NotoSansSymbols.glyphspackage
{
glyphname = zero;
layers = (
{
layerId = "24810176-774E-47FD-8B80-D284CD1191FD";
shapes = (
{
closed = 1;
nodes = (
(433,-10,o),
(507,115,o),
(507,360,cs),
(507,574,o),
(456,725,o),
(286,725,cs),
(121,725,o),
(62,568,o),
(62,360,cs),
(62,109,o),
(144,-10,o),
(285,-10,cs)
);
},
{
closed = 1;
nodes = (
(155,15,o),
(89,125,o),
(89,360,cs),
(89,557,o),
(136,700,o),
(286,700,cs),
(440,700,o),
(480,564,o),
(480,360,cs),
(480,127,o),
(422,15,o),
(285,15,cs)
);
}
);
vertWidth = 0;
width = 570;
},
{
layerId = "F394B0DB-5C84-43F6-ACB2-AE9DD557A8AE";
shapes = (
{
closed = 1;
nodes = (
(456,-10,o),
(523,127,o),
(523,358,cs),
(523,590,o),
(445,725,o),
(285,725,cs),
(114,725,o),
(49,589,o),
(49,358,cs),
(49,127,o),
(124,-10,o),
(285,-10,cs)
);
},
{
closed = 1;
nodes = (
(177,65,o),
(137,162,o),
(137,358,cs),
(137,553,o),
(177,650,o),
(285,650,cs),
(392,650,o),
(434,553,o),
(434,358,cs),
(434,161,o),
(392,65,o),
(285,65,cs)
);
}
);
vertWidth = 0;
width = 572;
},
{
layerId = "6E6EE38D-3D27-4929-8DEE-9F0163F8D5EF";
shapes = (
{
closed = 1;
nodes = (
(484,-10,o),
(551,127,o),
(551,356,cs),
(551,588,o),
(471,724,o),
(293,724,cs),
(102,724,o),
(35,587,o),
(35,356,cs),
(35,127,o),
(114,-10,o),
(293,-10,cs)
);
},
{
closed = 1;
nodes = (
(239,144,o),
(227,216,o),
(227,356,cs),
(227,497,o),
(239,570,o),
(293,570,cs),
(346,570,o),
(359,497,o),
(359,356,cs),
(359,215,o),
(346,144,o),
(293,144,cs)
);
}
);
vertWidth = 0;
width = 586;
}
);
unicode = 48;
}
{
glyphname = one;
layers = (
{
layerId = "24810176-774E-47FD-8B80-D284CD1191FD";
shapes = (
{
closed = 1;
nodes = (
(320,0,l),
(320,714,l),
(297,714,l),
(102,572,l),
(118,551,l),
(241,642,ls),
(266,661,o),
(279,671,o),
(295,685,c),
(294,658,o),
(294,620,o),
(294,563,cs),
(294,0,l)
);
}
);
vertWidth = 0;
width = 570;
},
{
layerId = "F394B0DB-5C84-43F6-ACB2-AE9DD557A8AE";
shapes = (
{
closed = 1;
nodes = (
(355,0,l),
(355,714,l),
(282,714,l),
(89,564,l),
(135,505,l),
(211,567,ls),
(237,589,o),
(252,600,o),
(273,622,c),
(270,584,o),
(269,556,o),
(269,499,cs),
(269,0,l)
);
}
);
vertWidth = 0;
width = 572;
},
{
layerId = "6E6EE38D-3D27-4929-8DEE-9F0163F8D5EF";
shapes = (
{
closed = 1;
nodes = (
(460,0,l),
(460,714,l),
(286,714,l),
(41,514,l),
(141,391,l),
(222,458,ls),
(236,470,o),
(250,484,o),
(267,504,c),
(264,453,o),
(264,372,o),
(264,353,cs),
(264,0,l)
);
}
);
vertWidth = 0;
width = 586;
}
);
unicode = 49;
}
{
glyphname = two;
layers = (
{
anchors = (
{
name = center;
pos = (275,0);
}
);
layerId = "24810176-774E-47FD-8B80-D284CD1191FD";
shapes = (
{
closed = 1;
nodes = (
(491,0,l),
(491,25,l),
(95,25,l),
(95,26,l),
(303,246,ls),
(400,348,o),
(458,419,o),
(458,539,cs),
(458,649,o),
(382,724,o),
(268,724,cs),
(211,724,o),
(141,705,o),
(80,655,c),
(95,635,l),
(148,678,o),
(211,699,o),
(268,699,cs),
(370,699,o),
(431,639,o),
(431,539,cs),
(431,428,o),
(380,362,o),
(283,260,cs),
(59,23,l),
(59,0,l)
);
}
);
vertWidth = 0;
width = 570;
},
{
anchors = (
{
name = center;
pos = (284,0);
}
);
layerId = "F394B0DB-5C84-43F6-ACB2-AE9DD557A8AE";
shapes = (
{
closed = 1;
nodes = (
(520,0,l),
(520,80,l),
(159,80,l),
(159,84,l),
(308,231,ls),
(417,339,o),
(491,422,o),
(491,534,cs),
(491,652,o),
(408,724,o),
(275,724,cs),
(184,724,o),
(112,687,o),
(56,640,c),
(103,581,l),
(158,624,o),
(205,649,o),
(275,649,cs),
(350,649,o),
(401,607,o),
(401,529,cs),
(401,432,o),
(342,370,o),
(235,262,cs),
(48,73,l),
(48,0,l)
);
}
);
vertWidth = 0;
width = 572;
},
{
anchors = (
{
name = center;
pos = (285,0);
}
);
layerId = "6E6EE38D-3D27-4929-8DEE-9F0163F8D5EF";
shapes = (
{
closed = 1;
nodes = (
(548,0,l),
(548,159,l),
(278,159,l),
(278,164,l),
(330,211,ls),
(466,334,o),
(534,405,o),
(534,529,cs),
(534,641,o),
(441,724,o),
(296,724,cs),
(154,724,o),
(86,667,o),
(22,610,c),
(128,486,l),
(186,536,o),
(229,562,o),
(274,562,cs),
(311,562,o),
(343,544,o),
(343,502,cs),
(343,450,o),
(314,414,o),
(204,303,cs),
(30,127,l),
(30,0,l)
);
}
);
vertWidth = 0;
width = 586;
}
);
unicode = 50;
}
{
glyphname = three;
layers = (
{
layerId = "24810176-774E-47FD-8B80-D284CD1191FD";
shapes = (
{
closed = 1;
nodes = (
(407,-10,o),
(492,75,o),
(492,194,cs),
(492,300,o),
(429,358,o),
(318,373,c),
(318,375,l),
(405,390,o),
(470,457,o),
(470,551,cs),
(470,662,o),
(390,724,o),
(273,724,cs),
(185,724,o),
(114,695,o),
(55,650,c),
(69,629,l),
(134,676,o),
(198,699,o),
(273,699,cs),
(375,699,o),
(443,651,o),
(443,551,cs),
(443,435,o),
(345,384,o),
(239,384,cs),
(156,384,l),
(156,359,l),
(239,359,ls),
(372,359,o),
(465,314,o),
(465,194,cs),
(465,85,o),
(391,15,o),
(247,15,cs),
(173,15,o),
(97,35,o),
(47,60,c),
(47,32,l),
(98,8,o),
(168,-10,o),
(247,-10,cs)
);
}
);
vertWidth = 0;
width = 570;
},
{
layerId = "F394B0DB-5C84-43F6-ACB2-AE9DD557A8AE";
shapes = (
{
closed = 1;
nodes = (
(430,-10,o),
(515,78,o),
(515,203,cs),
(515,297,o),
(459,358,o),
(345,372,c),
(345,376,l),
(435,394,o),
(493,451,o),
(493,547,cs),
(493,649,o),
(421,724,o),
(272,724,cs),
(176,724,o),
(100,690,o),
(49,650,c),
(93,590,l),
(146,625,o),
(196,650,o),
(273,650,cs),
(353,650,o),
(403,610,o),
(403,541,cs),
(403,460,o),
(341,406,o),
(224,406,cs),
(154,406,l),
(154,331,l),
(223,331,ls),
(349,331,o),
(423,294,o),
(423,205,cs),
(423,117,o),
(370,64,o),
(242,64,cs),
(178,64,o),
(105,81,o),
(45,111,c),
(45,29,l),
(104,0,o),
(166,-10,o),
(241,-10,cs)
);
}
);
vertWidth = 0;
width = 572;
},
{
layerId = "6E6EE38D-3D27-4929-8DEE-9F0163F8D5EF";
shapes = (
{
closed = 1;
nodes = (
(454,-10,o),
(545,87,o),
(545,204,cs),
(545,305,o),
(480,359,o),
(366,373,c),
(366,376,l),
(451,399,o),
(524,457,o),
(524,559,cs),
(524,662,o),
(434,724,o),
(287,724,cs),
(163,724,o),
(94,692,o),
(35,652,c),
(115,523,l),
(136,536,o),
(192,569,o),
(257,569,cs),
(305,569,o),
(337,551,o),
(337,513,cs),
(337,469,o),
(299,438,o),
(190,438,cs),
(145,438,l),
(145,293,l),
(189,293,ls),
(312,293,o),
(341,264,o),
(341,216,cs),
(341,171,o),
(313,142,o),
(219,142,cs),
(165,142,o),
(96,157,o),
(34,189,c),
(34,29,l),
(95,5,o),
(155,-10,o),
(247,-10,cs)
);
}
);
vertWidth = 0;
width = 586;
}
);
unicode = 51;
}
{
glyphname = four;
layers = (
{
anchors = (
{
name = center;
pos = (292,0);
}
);
layerId = "24810176-774E-47FD-8B80-D284CD1191FD";
shapes = (
{
closed = 1;
nodes = (
(426,0,l),
(426,194,l),
(560,194,l),
(560,219,l),
(426,219,l),
(426,718,l),
(398,718,l),
(25,212,l),
(25,194,l),
(400,194,l),
(400,0,l)
);
},
{
closed = 1;
nodes = (
(335,592,ls),
(365,633,o),
(376,650,o),
(399,686,c),
(401,686,l),
(400,635,o),
(400,610,o),
(400,524,cs),
(400,219,l),
(60,219,l)
);
}
);
vertWidth = 0;
width = 570;
},
{
anchors = (
{
name = center;
pos = (286,0);
}
);
layerId = "F394B0DB-5C84-43F6-ACB2-AE9DD557A8AE";
shapes = (
{
closed = 1;
nodes = (
(448,0,l),
(448,162,l),
(552,162,l),
(552,241,l),
(448,241,l),
(448,718,l),
(357,718,l),
(21,237,l),
(21,162,l),
(363,162,l),
(363,0,l)
);
},
{
closed = 1;
nodes = (
(321,546,ls),
(335,566,o),
(353,599,o),
(364,624,c),
(368,624,l),
(366,580,o),
(363,535,o),
(363,466,cs),
(363,241,l),
(107,241,l)
);
}
);
vertWidth = 0;
width = 572;
},
{
anchors = (
{
name = center;
pos = (294,0);
}
);
layerId = "6E6EE38D-3D27-4929-8DEE-9F0163F8D5EF";
shapes = (
{
closed = 1;
nodes = (
(492,0,l),
(492,138,l),
(571,138,l),
(571,282,l),
(492,282,l),
(492,714,l),
(314,714,l),
(17,280,l),
(17,138,l),
(302,138,l),
(302,0,l)
);
},
{
closed = 1;
nodes = (
(263,400,ls),
(280,426,o),
(288,441,o),
(301,470,c),
(306,470,l),
(305,468,o),
(302,395,o),
(302,365,cs),
(302,282,l),
(184,282,l)
);
}
);
vertWidth = 0;
width = 586;
}
);
unicode = 52;
}
{
glyphname = five;
layers = (
{
anchors = (
{
name = center;
pos = (289,0);
}
);
layerId = "24810176-774E-47FD-8B80-D284CD1191FD";
shapes = (
{
closed = 1;
nodes = (
(403,-10,o),
(505,76,o),
(505,217,cs),
(505,351,o),
(417,426,o),
(274,426,cs),
(206,426,o),
(159,414,o),
(126,406,c),
(151,689,l),
(462,689,l),
(462,714,l),
(128,714,l),
(98,393,l),
(117,378,l),
(166,392,o),
(212,401,o),
(274,401,cs),
(408,401,o),
(478,331,o),
(478,217,cs),
(478,90,o),
(389,15,o),
(253,15,cs),
(180,15,o),
(119,35,o),
(74,62,c),
(74,32,l),
(116,8,o),
(177,-10,o),
(253,-10,cs)
);
}
);
vertWidth = 0;
width = 570;
},
{
anchors = (
{
name = center;
pos = (289,0);
}
);
layerId = "F394B0DB-5C84-43F6-ACB2-AE9DD557A8AE";
shapes = (
{
closed = 1;
nodes = (
(416,-10,o),
(515,80,o),
(515,228,cs),
(515,361,o),
(421,438,o),
(275,438,cs),
(228,438,o),
(188,431,o),
(165,427,c),
(182,634,l),
(465,634,l),
(465,714,l),
(107,714,l),
(80,377,l),
(124,349,l),
(153,356,o),
(208,364,o),
(246,364,cs),
(370,364,o),
(425,312,o),
(425,219,cs),
(425,114,o),
(354,65,o),
(249,65,cs),
(186,65,o),
(111,83,o),
(63,112,c),
(63,29,l),
(107,3,o),
(174,-10,o),
(248,-10,cs)
);
}
);
vertWidth = 0;
width = 572;
},
{
anchors = (
{
name = center;
pos = (293,0);
}
);
layerId = "6E6EE38D-3D27-4929-8DEE-9F0163F8D5EF";
shapes = (
{
closed = 1;
nodes = (
(445,-10,o),
(540,78,o),
(540,238,cs),
(540,385,o),
(443,468,o),
(324,468,cs),
(277,468,o),
(261,463,o),
(240,459,c),
(249,553,l),
(492,553,l),
(492,714,l),
(85,714,l),
(58,337,l),
(129,302,l),
(155,310,o),
(191,319,o),
(227,319,cs),
(306,319,o),
(345,286,o),
(345,232,cs),
(345,173,o),
(305,142,o),
(234,142,cs),
(175,142,o),
(96,164,o),
(46,187,c),
(46,29,l),
(99,3,o),
(167,-10,o),
(250,-10,cs)
);
}
);
vertWidth = 0;
width = 586;
}
);
unicode = 53;
}
{
glyphname = six;
layers = (
{
layerId = "24810176-774E-47FD-8B80-D284CD1191FD";
shapes = (
{
closed = 1;
nodes = (
(435,-10,o),
(513,86,o),
(513,225,cs),
(513,355,o),
(436,439,o),
(304,439,cs),
(189,439,o),
(121,378,o),
(95,322,c),
(93,322,l),
(99,593,o),
(209,701,o),
(367,701,cs),
(407,701,o),
(441,695,o),
(465,686,c),
(465,713,l),
(438,721,o),
(407,726,o),
(367,726,cs),
(196,726,o),
(68,608,o),
(68,303,cs),
(68,150,o),
(130,-10,o),
(299,-10,cs)
);
},
{
closed = 1;
nodes = (
(137,15,o),
(100,179,o),
(100,258,cs),
(100,325,o),
(177,414,o),
(304,414,cs),
(426,414,o),
(486,342,o),
(486,225,cs),
(486,95,o),
(420,15,o),
(299,15,cs)
);
}
);
vertWidth = 0;
width = 570;
},
{
layerId = "F394B0DB-5C84-43F6-ACB2-AE9DD557A8AE";
shapes = (
{
closed = 1;
nodes = (
(437,-10,o),
(525,81,o),
(525,230,cs),
(525,368,o),
(442,447,o),
(318,447,cs),
(232,447,o),
(179,410,o),
(149,363,c),
(143,363,l),
(150,519,o),
(199,652,o),
(384,652,cs),
(414,652,o),
(446,648,o),
(470,640,c),
(470,715,l),
(448,721,o),
(410,724,o),
(382,724,cs),
(113,724,o),
(55,510,o),
(55,305,cs),
(55,91,o),
(162,-10,o),
(298,-10,cs)
);
},
{
closed = 1;
nodes = (
(196,64,o),
(144,160,o),
(144,247,cs),
(144,310,o),
(206,378,o),
(300,378,cs),
(392,378,o),
(438,321,o),
(438,230,cs),
(438,117,o),
(381,64,o),
(297,64,cs)
);
}
);
vertWidth = 0;
width = 572;
},
{
layerId = "6E6EE38D-3D27-4929-8DEE-9F0163F8D5EF";
shapes = (
{
closed = 1;
nodes = (
(459,-10,o),
(555,84,o),
(555,244,cs),
(555,392,o),
(480,476,o),
(355,476,cs),
(279,476,o),
(239,440,o),
(214,393,c),
(208,393,l),
(214,506,o),
(259,574,o),
(404,574,cs),
(452,574,o),
(483,570,o),
(510,565,c),
(510,716,l),
(483,720,o),
(436,724,o),
(408,724,cs),
(92,724,o),
(34,507,o),
(34,302,cs),
(34,88,o),
(150,-10,o),
(303,-10,cs)
);
},
{
closed = 1;
nodes = (
(248,143,o),
(226,199,o),
(226,250,cs),
(226,288,o),
(253,327,o),
(301,327,cs),
(348,327,o),
(368,294,o),
(368,240,cs),
(368,173,o),
(340,143,o),
(299,143,cs)
);
}
);
vertWidth = 0;
width = 586;
}
);
unicode = 54;
}
{
glyphname = seven;
layers = (
{
layerId = "24810176-774E-47FD-8B80-D284CD1191FD";
shapes = (
{
closed = 1;
nodes = (
(212,0,l),
(510,697,l),
(510,714,l),
(58,714,l),
(58,689,l),
(480,689,l),
(183,0,l)
);
}
);
vertWidth = 0;
width = 570;
},
{
layerId = "F394B0DB-5C84-43F6-ACB2-AE9DD557A8AE";
shapes = (
{
closed = 1;
nodes = (
(233,0,l),
(523,646,l),
(523,714,l),
(44,714,l),
(44,634,l),
(429,634,l),
(136,0,l)
);
}
);
vertWidth = 0;
width = 572;
},
{
layerId = "6E6EE38D-3D27-4929-8DEE-9F0163F8D5EF";
shapes = (
{
closed = 1;
nodes = (
(302,0,l),
(553,600,l),
(553,714,l),
(38,714,l),
(38,554,l),
(347,554,l),
(102,0,l)
);
}
);
vertWidth = 0;
width = 586;
}
);
unicode = 55;
}
{
glyphname = eight;
layers = (
{
layerId = "24810176-774E-47FD-8B80-D284CD1191FD";
shapes = (
{
closed = 1;
nodes = (
(404,-10,o),
(503,59,o),
(503,181,cs),
(503,284,o),
(432,342,o),
(314,382,c),
(415,422,o),
(479,473,o),
(479,561,cs),
(479,663,o),
(403,724,o),
(283,724,cs),
(168,724,o),
(87,659,o),
(87,559,cs),
(87,460,o),
(161,415,o),
(251,381,c),
(138,343,o),
(64,284,o),
(64,175,cs),
(64,65,o),
(153,-10,o),
(279,-10,cs)
);
},
{
closed = 1;
nodes = (
(167,15,o),
(91,76,o),
(91,175,cs),
(91,282,o),
(175,333,o),
(281,368,c),
(309,358,ls),
(418,319,o),
(476,268,o),
(476,181,cs),
(476,72,o),
(393,15,o),
(279,15,cs)
);
},
{
closed = 1;
nodes = (
(182,430,o),
(114,474,o),
(114,559,cs),
(114,649,o),
(185,699,o),
(283,699,cs),
(389,699,o),
(452,653,o),
(452,561,cs),
(452,482,o),
(396,439,o),
(286,394,c)
);
}
);
vertWidth = 0;
width = 570;
},
{
layerId = "F394B0DB-5C84-43F6-ACB2-AE9DD557A8AE";
shapes = (
{
closed = 1;
nodes = (
(430,-10,o),
(522,65,o),
(522,185,cs),
(522,282,o),
(451,335,o),
(363,378,c),
(437,416,o),
(499,467,o),
(499,553,cs),
(499,664,o),
(410,724,o),
(285,724,cs),
(163,724,o),
(72,663,o),
(72,554,cs),
(72,466,o),
(127,413,o),
(197,373,c),
(118,337,o),
(49,279,o),
(49,182,cs),
(49,61,o),
(134,-10,o),
(288,-10,cs)
);
},
{
closed = 1;
nodes = (
(183,60,o),
(135,112,o),
(135,181,cs),
(135,254,o),
(182,299,o),
(270,337,c),
(286,331,ls),
(377,296,o),
(436,253,o),
(436,184,cs),
(436,111,o),
(383,60,o),
(286,60,cs)
);
},
{
closed = 1;
nodes = (
(216,443,o),
(158,476,o),
(158,550,cs),
(158,616,o),
(210,653,o),
(284,653,cs),
(361,653,o),
(412,616,o),
(412,550,cs),
(412,478,o),
(358,441,o),
(289,412,c)
);
}
);
vertWidth = 0;
width = 572;
},
{
layerId = "6E6EE38D-3D27-4929-8DEE-9F0163F8D5EF";
shapes = (
{
closed = 1;
nodes = (
(473,-10,o),
(554,75,o),
(554,190,cs),
(554,284,o),
(477,338,o),
(410,376,c),
(482,411,o),
(533,464,o),
(533,550,cs),
(533,667,o),
(436,724,o),
(295,724,cs),
(154,724,o),
(54,666,o),
(54,551,cs),
(54,468,o),
(103,413,o),
(163,373,c),
(88,335,o),
(33,287,o),
(33,188,cs),
(33,71,o),
(112,-10,o),
(293,-10,cs)
);
},
{
closed = 1;
nodes = (
(240,129,o),
(210,156,o),
(210,196,cs),
(210,239,o),
(247,268,o),
(291,291,c),
(304,283,ls),
(329,268,o),
(377,236,o),
(377,192,cs),
(377,153,o),
(350,129,o),
(291,129,cs)
);
},
{
closed = 1;
nodes = (
(260,477,o),
(235,502,o),
(235,533,cs),
(235,565,o),
(262,585,o),
(294,585,cs),
(325,585,o),
(352,565,o),
(352,533,cs),
(352,495,o),
(320,475,o),
(292,459,c)
);
}
);
vertWidth = 0;
width = 586;
}
);
unicode = 56;
}
{
glyphname = nine;
layers = (
{
anchors = (
{
name = center;
pos = (277,0);
}
);
layerId = "24810176-774E-47FD-8B80-D284CD1191FD";
shapes = (
{
closed = 1;
nodes = (
(372,-12,o),
(500,107,o),
(500,413,cs),
(500,568,o),
(441,724,o),
(269,724,cs),
(133,724,o),
(55,629,o),
(55,491,cs),
(55,360,o),
(130,275,o),
(262,275,cs),
(377,275,o),
(447,337,o),
(473,394,c),
(475,394,l),
(469,124,o),
(357,13,o),
(201,13,cs),
(159,13,o),
(117,20,o),
(93,29,c),
(93,1,l),
(120,-7,o),
(162,-12,o),
(201,-12,cs)
);
},
{
closed = 1;
nodes = (
(142,300,o),
(82,373,o),
(82,491,cs),
(82,620,o),
(148,699,o),
(269,699,cs),
(431,699,o),
(468,536,o),
(468,458,cs),
(468,390,o),
(390,300,o),
(264,300,cs)
);
}
);
vertWidth = 0;
width = 570;
},
{
anchors = (
{
name = center;
pos = (285,0);
}
);
layerId = "F394B0DB-5C84-43F6-ACB2-AE9DD557A8AE";
shapes = (
{
closed = 1;
nodes = (
(462,-10,o),
(520,204,o),
(520,409,cs),
(520,622,o),
(414,724,o),
(278,724,cs),
(140,724,o),
(50,632,o),
(50,483,cs),
(50,345,o),
(132,267,o),
(255,267,cs),
(342,267,o),
(395,304,o),
(425,350,c),
(431,350,l),
(425,194,o),
(376,62,o),
(190,62,cs),
(160,62,o),
(126,67,o),
(102,75,c),
(102,0,l),
(124,-7,o),
(165,-10,o),
(192,-10,cs)
);
},
{
closed = 1;
nodes = (
(181,336,o),
(137,392,o),
(137,484,cs),
(137,596,o),
(195,650,o),
(278,650,cs),
(380,650,o),
(431,553,o),
(431,467,cs),
(431,403,o),
(370,336,o),
(274,336,cs)
);
}
);
vertWidth = 0;
width = 572;
},
{
anchors = (
{
name = center;
pos = (291,0);
}
);
layerId = "6E6EE38D-3D27-4929-8DEE-9F0163F8D5EF";
shapes = (
{
closed = 1;
nodes = (
(444,-10,o),
(552,146,o),
(552,401,cs),
(552,626,o),
(433,724,o),
(284,724,cs),
(127,724,o),
(31,630,o),
(31,471,cs),
(31,322,o),
(108,238,o),
(228,238,cs),
(309,238,o),
(346,273,o),
(372,321,c),
(378,321,l),
(372,214,o),
(331,140,o),
(170,140,cs),
(133,140,o),
(107,143,o),
(79,148,c),
(79,-5,l),
(106,-9,o),
(150,-10,o),
(179,-10,cs)
);
},
{
closed = 1;
nodes = (
(241,386,o),
(218,420,o),
(218,473,cs),
(218,541,o),
(244,570,o),
(289,570,cs),
(339,570,o),
(360,515,o),
(360,464,cs),
(360,426,o),
(330,386,o),
(287,386,cs)
);
}
);
vertWidth = 0;
width = 586;
}
);
unicode = 57;
}
{
glyphname = A;
kernLeft = A.right;
kernRight = A.left;
layers = (
{
layerId = "24810176-774E-47FD-8B80-D284CD1191FD";
shapes = (
{
closed = 1;
nodes = (
(28,0,l),
(135,271,l),
(445,271,l),
(549,0,l),
(577,0,l),
(307,716,l),
(282,716,l),
(0,0,l)
);
},
{
closed = 1;
nodes = (
(260,593,ls),
(270,620,o),
(283,652,o),
(293,682,c),
(306,645,o),
(317,617,o),
(325,594,cs),
(435,296,l),
(144,296,l)
);
}
);
vertWidth = 0;
width = 577;
},
{
layerId = "F394B0DB-5C84-43F6-ACB2-AE9DD557A8AE";
shapes = (
{
closed = 1;
nodes = (
(91,0,l),
(176,221,l),
(459,221,l),
(545,0,l),
(638,0,l),
(360,717,l),
(279,717,l),
(0,0,l)
);
},
{
closed = 1;
nodes = (
(287,517,ls),
(295,540,o),
(308,583,o),
(318,624,c),
(325,599,o),
(346,533,o),
(352,517,cs),
(432,301,l),
(206,301,l)
);
}
);
vertWidth = 0;
width = 639;
},
{
layerId = "6E6EE38D-3D27-4929-8DEE-9F0163F8D5EF";
shapes = (
{
closed = 1;
nodes = (
(212,0,l),
(248,134,l),
(480,134,l),
(515,0,l),
(726,0,l),
(490,717,l),
(233,717,l),
(0,0,l)
);
},
{
closed = 1;
nodes = (
(319,409,ls),
(331,456,o),
(354,550,o),
(363,599,c),
(372,550,o),
(399,447,o),
(409,409,cs),
(440,292,l),
(288,292,l)
);
}
);
vertWidth = 0;
width = 726;
}
);
unicode = 65;
}
{
glyphname = B;
layers = (
{
anchors = (
{
name = center;
pos = (330,0);
}
);
layerId = "24810176-774E-47FD-8B80-D284CD1191FD";
shapes = (
{
closed = 1;
nodes = (
(303,0,ls),
(449,0,o),
(557,56,o),
(557,203,cs),
(557,293,o),
(516,357,o),
(398,375,c),
(398,377,l),
(490,393,o),
(539,461,o),
(539,542,cs),
(539,657,o),
(469,714,o),
(294,714,cs),
(103,714,l),
(103,0,l)
);
},
{
closed = 1;
nodes = (
(129,363,l),
(300,363,l),
(443,363,o),
(530,325,o),
(530,202,cs),
(530,79,o),
(447,25,o),
(311,25,cs),
(129,25,l)
);
},
{
closed = 1;
nodes = (
(129,689,l),
(291,689,ls),
(446,689,o),
(512,646,o),
(512,541,cs),
(512,440,o),
(444,388,o),
(303,388,cs),
(129,388,l)
);
}
);
vertWidth = 0;
width = 613;
},
{
anchors = (
{
name = center;
pos = (346,0);
}
);
layerId = "F394B0DB-5C84-43F6-ACB2-AE9DD557A8AE";
shapes = (
{
closed = 1;
nodes = (
(348,0,ls),
(501,0,o),
(596,73,o),
(596,203,cs),
(596,314,o),
(526,359,o),
(436,374,c),
(436,379,l),
(524,395,o),
(572,453,o),
(572,537,cs),
(572,667,o),
(479,714,o),
(301,714,cs),
(97,714,l),
(97,0,l)
);
},
{
closed = 1;
nodes = (
(187,335,l),
(324,335,l),
(456,335,o),
(500,285,o),
(500,210,cs),
(500,130,o),
(457,76,o),
(331,76,cs),
(187,76,l)
);
},
{
closed = 1;
nodes = (
(187,637,l),
(305,637,ls),
(426,637,o),
(479,605,o),
(479,527,cs),
(479,450,o),
(441,410,o),
(319,410,cs),
(187,410,l)
);
}
);
vertWidth = 0;
width = 650;
},
{
anchors = (
{
name = center;
pos = (352,0);
}
);
layerId = "6E6EE38D-3D27-4929-8DEE-9F0163F8D5EF";
shapes = (
{
closed = 1;
nodes = (
(355,0,ls),
(523,0,o),
(627,79,o),
(627,209,cs),
(627,323,o),
(559,359,o),
(501,374,c),
(501,379,l),
(554,392,o),
(613,442,o),
(613,536,cs),
(613,651,o),
(532,714,o),
(326,714,cs),
(77,714,l),
(77,0,l)
);
},
{
closed = 1;
nodes = (
(270,299,l),
(334,299,l),
(406,299,o),
(428,263,o),
(428,225,cs),
(428,181,o),
(405,149,o),
(338,149,cs),
(270,149,l)
);
},
{
closed = 1;
nodes = (
(270,568,l),
(324,568,ls),
(386,568,o),
(415,547,o),
(415,508,cs),
(415,470,o),
(392,440,o),
(328,440,cs),
(270,440,l)
);
}
);
vertWidth = 0;
width = 674;
}
);
unicode = 66;
}
{
glyphname = C;
kernLeft = O.right;
kernRight = C.left;
layers = (
{
layerId = "24810176-774E-47FD-8B80-D284CD1191FD";
shapes = (
{
closed = 1;
nodes = (
(465,-10,o),
(526,4,o),
(570,21,c),
(570,44,l),
(522,27,o),
(463,15,o),
(386,15,cs),
(189,15,o),
(90,153,o),
(90,360,cs),
(90,555,o),
(204,699,o),
(405,699,cs),
(460,699,o),
(516,692,o),
(573,662,c),
(583,687,l),
(528,712,o),
(470,724,o),
(405,724,cs),
(191,724,o),
(63,568,o),
(63,360,cs),
(63,139,o),
(174,-10,o),
(386,-10,cs)
);
}
);
vertWidth = 0;
width = 614;
},
{
layerId = "F394B0DB-5C84-43F6-ACB2-AE9DD557A8AE";
shapes = (
{
closed = 1;
nodes = (
(468,-10,o),
(520,-1,o),
(573,19,c),
(573,97,l),
(519,81,o),
(464,69,o),
(402,69,cs),
(238,69,o),
(156,180,o),
(156,357,cs),
(156,536,o),
(250,645,o),
(403,645,cs),
(467,645,o),
(521,626,o),
(565,606,c),
(601,682,l),
(547,709,o),
(477,724,o),
(404,724,cs),
(183,724,o),
(61,574,o),
(61,358,cs),
(61,133,o),
(170,-10,o),
(389,-10,cs)
);
}
);
vertWidth = 0;
width = 632;
},
{
layerId = "6E6EE38D-3D27-4929-8DEE-9F0163F8D5EF";
shapes = (
{
closed = 1;
nodes = (
(459,-10,o),
(524,2,o),
(587,30,c),
(587,193,l),
(527,168,o),
(469,148,o),
(406,148,cs),
(300,148,o),
(249,219,o),
(249,354,cs),
(249,487,o),
(304,566,o),
(395,566,cs),
(455,566,o),
(507,547,o),
(559,522,c),
(618,674,l),
(545,709,o),
(466,724,o),
(397,724,cs),
(174,724,o),
(51,571,o),
(51,355,cs),
(51,138,o),
(152,-10,o),
(385,-10,cs)
);
}
);
vertWidth = 0;
width = 649;
}
);
unicode = 67;
}
{
glyphname = D;
kernRight = O.left;
layers = (
{
layerId = "24810176-774E-47FD-8B80-D284CD1191FD";
shapes = (
{
closed = 1;
nodes = (
(257,0,ls),
(507,0,o),
(628,125,o),
(628,364,cs),
(628,591,o),
(516,714,o),
(280,714,cs),
(103,714,l),
(103,0,l)
);
},
{
closed = 1;
nodes = (
(129,689,l),
(270,689,ls),
(502,689,o),
(601,575,o),
(601,363,cs),
(601,136,o),
(489,25,o),
(260,25,cs),
(129,25,l)
);
}
);
vertWidth = 0;
width = 692;
},
{
layerId = "F394B0DB-5C84-43F6-ACB2-AE9DD557A8AE";
shapes = (
{
closed = 1;
nodes = (
(296,0,ls),
(531,0,o),
(669,123,o),
(669,364,cs),
(669,593,o),
(532,714,o),
(317,714,cs),
(97,714,l),
(97,0,l)
);
},
{
closed = 1;
nodes = (
(187,637,l),
(304,637,ls),
(476,637,o),
(574,551,o),
(574,361,cs),
(574,173,o),
(477,77,o),
(284,77,cs),
(187,77,l)
);
}
);
vertWidth = 0;
width = 730;
},
{
layerId = "6E6EE38D-3D27-4929-8DEE-9F0163F8D5EF";
shapes = (
{
closed = 1;
nodes = (
(308,0,ls),
(535,0,o),
(683,123,o),
(683,372,cs),
(683,593,o),
(554,714,o),
(324,714,cs),
(77,714,l),
(77,0,l)
);
},
{
closed = 1;
nodes = (
(270,558,l),
(326,558,ls),
(431,558,o),
(483,495,o),
(483,365,cs),
(483,225,o),
(430,158,o),
(313,158,cs),
(270,158,l)
);
}
);
vertWidth = 0;
width = 734;
}
);
unicode = 68;
}
{
glyphname = E;
kernRight = E.left;
layers = (
{
anchors = (
{
name = center;
pos = (295,0);
}
);
layerId = "24810176-774E-47FD-8B80-D284CD1191FD";
shapes = (
{
closed = 1;
nodes = (
(488,0,l),
(488,25,l),
(129,25,l),
(129,364,l),
(468,364,l),
(468,389,l),
(129,389,l),
(129,689,l),
(488,689,l),
(488,714,l),
(103,714,l),
(103,0,l)
);
}
);
vertWidth = 0;
width = 550;
},
{
anchors = (
{
name = center;
pos = (296,0);
}
);
layerId = "F394B0DB-5C84-43F6-ACB2-AE9DD557A8AE";
shapes = (
{
closed = 1;
nodes = (
(496,0,l),
(496,79,l),
(187,79,l),
(187,334,l),
(478,334,l),
(478,412,l),
(187,412,l),
(187,635,l),
(496,635,l),
(496,714,l),
(97,714,l),
(97,0,l)
);
}
);
vertWidth = 0;
width = 556;
},
{
anchors = (
{
name = center;
pos = (289,0);
}
);
layerId = "6E6EE38D-3D27-4929-8DEE-9F0163F8D5EF";
shapes = (
{
closed = 1;
nodes = (
(501,0,l),
(501,157,l),
(270,157,l),
(270,292,l),
(484,292,l),
(484,447,l),
(270,447,l),
(270,559,l),
(501,559,l),
(501,714,l),
(77,714,l),
(77,0,l)
);
}
);
vertWidth = 0;
width = 549;
}
);
unicode = 69;
}
{
glyphname = F;
layers = (
{
layerId = "24810176-774E-47FD-8B80-D284CD1191FD";
shapes = (
{
closed = 1;
nodes = (
(129,0,l),
(129,329,l),
(470,329,l),
(470,354,l),
(129,354,l),
(129,689,l),
(489,689,l),
(489,714,l),
(103,714,l),
(103,0,l)
);
}
);
vertWidth = 0;
width = 492;
},
{
layerId = "F394B0DB-5C84-43F6-ACB2-AE9DD557A8AE";
shapes = (
{
closed = 1;
nodes = (
(187,0,l),
(187,303,l),
(477,303,l),
(477,382,l),
(187,382,l),
(187,635,l),
(496,635,l),
(496,714,l),
(97,714,l),
(97,0,l)
);
}
);
vertWidth = 0;
width = 519;
},
{
layerId = "6E6EE38D-3D27-4929-8DEE-9F0163F8D5EF";
shapes = (
{
closed = 1;
nodes = (
(267,0,l),
(267,268,l),
(481,268,l),
(481,423,l),
(267,423,l),
(267,559,l),
(499,559,l),
(499,714,l),
(77,714,l),
(77,0,l)
);
}
);
vertWidth = 0;
width = 539;
}
);
unicode = 70;
}
{
glyphname = G;
kernLeft = O.right;
layers = (
{
layerId = "24810176-774E-47FD-8B80-D284CD1191FD";
shapes = (
{
closed = 1;
nodes = (
(496,-10,o),
(575,5,o),
(639,36,c),
(639,350,l),
(367,350,l),
(367,325,l),
(613,325,l),
(613,50,l),
(561,28,o),
(496,15,o),
(419,15,cs),
(219,15,o),
(90,114,o),
(90,356,cs),
(90,554,o),
(216,701,o),
(423,701,cs),
(487,701,o),
(551,690,o),
(619,657,c),
(631,682,l),
(568,713,o),
(500,726,o),
(424,726,cs),
(199,726,o),
(63,566,o),
(63,355,cs),
(63,121,o),
(186,-10,o),
(417,-10,cs)
);
}
);
vertWidth = 0;
width = 720;
},
{
layerId = "F394B0DB-5C84-43F6-ACB2-AE9DD557A8AE";
shapes = (
{
closed = 1;
nodes = (
(503,-10,o),
(577,2,o),
(654,27,c),
(654,377,l),
(407,377,l),
(407,297,l),
(564,297,l),
(564,85,l),
(528,76,o),
(487,68,o),
(424,68,cs),
(232,68,o),
(155,186,o),
(155,357,cs),
(155,535,o),
(255,645,o),
(426,645,cs),
(494,645,o),
(559,626,o),
(610,604,c),
(644,682,l),
(583,708,o),
(511,724,o),
(431,724,cs),
(197,724,o),
(61,580,o),
(61,357,cs),
(61,131,o),
(181,-10,o),
(403,-10,cs)
);
}
);
vertWidth = 0;
width = 728;
},
{
layerId = "6E6EE38D-3D27-4929-8DEE-9F0163F8D5EF";
shapes = (
{
closed = 1;
nodes = (
(500,-10,o),
(598,8,o),
(672,33,c),
(672,418,l),
(364,418,l),
(364,269,l),
(491,269,l),
(491,157,l),
(474,153,o),
(435,149,o),
(412,149,cs),
(308,149,o),
(250,221,o),
(250,354,cs),
(250,470,o),
(299,566,o),
(427,566,cs),
(490,566,o),
(545,553,o),
(596,528,c),
(657,679,l),
(598,705,o),
(515,724,o),
(426,724,cs),
(182,724,o),
(51,583,o),
(51,359,cs),
(51,109,o),
(190,-10,o),
(396,-10,cs)
);
}
);
vertWidth = 0;
width = 740;
}
);
unicode = 71;
}
{
glyphname = H;
layers = (
{
layerId = "24810176-774E-47FD-8B80-D284CD1191FD";
shapes = (
{
closed = 1;
nodes = (
(129,0,l),
(129,363,l),
(577,363,l),
(577,0,l),
(603,0,l),
(603,714,l),
(577,714,l),
(577,388,l),
(129,388,l),
(129,714,l),
(103,714,l),
(103,0,l)
);
}
);
vertWidth = 0;
width = 706;
},
{
layerId = "F394B0DB-5C84-43F6-ACB2-AE9DD557A8AE";
shapes = (
{
closed = 1;
nodes = (
(187,0,l),
(187,333,l),
(553,333,l),
(553,0,l),
(643,0,l),
(643,714,l),
(553,714,l),
(553,412,l),
(187,412,l),
(187,714,l),
(97,714,l),
(97,0,l)
);
}
);
vertWidth = 0;
width = 741;
},
{
layerId = "6E6EE38D-3D27-4929-8DEE-9F0163F8D5EF";
shapes = (
{
closed = 1;
nodes = (
(271,0,l),
(271,291,l),
(495,291,l),
(495,0,l),
(689,0,l),
(689,714,l),
(495,714,l),
(495,449,l),
(271,449,l),
(271,714,l),
(77,714,l),
(77,0,l)
);
}
);
vertWidth = 0;
width = 766;
}
);
unicode = 72;
}
{
glyphname = I;
layers = (
{
anchors = (
{
name = center;
pos = (142,0);
}
);
layerId = "24810176-774E-47FD-8B80-D284CD1191FD";
shapes = (
{
closed = 1;
nodes = (
(223,0,l),
(223,20,l),
(155,23,l),
(155,690,l),
(223,694,l),
(223,714,l),
(61,714,l),
(61,694,l),
(129,690,l),
(129,23,l),
(61,20,l),
(61,0,l)
);
}
);
vertWidth = 0;
width = 283;
},
{
anchors = (
{
name = center;
pos = (169,0);
}
);
layerId = "F394B0DB-5C84-43F6-ACB2-AE9DD557A8AE";
shapes = (
{
closed = 1;
nodes = (
(298,0,l),
(298,52,l),
(214,71,l),
(214,642,l),
(298,662,l),
(298,714,l),
(40,714,l),
(40,662,l),
(124,642,l),
(124,71,l),
(40,52,l),
(40,0,l)
);
}
);
vertWidth = 0;
width = 339;
},
{
anchors = (
{
name = center;
pos = (220,0);
}
);
layerId = "6E6EE38D-3D27-4929-8DEE-9F0163F8D5EF";
shapes = (
{
closed = 1;
nodes = (
(406,0,l),
(406,110,l),
(317,144,l),
(317,571,l),
(406,604,l),
(406,714,l),
(34,714,l),
(34,604,l),
(123,571,l),
(123,144,l),
(34,110,l),
(34,0,l)
);
}
);
vertWidth = 0;
width = 440;
}
);
unicode = 73;
}
{
glyphname = J;
layers = (
{
anchors = (
{
name = center;
pos = (17,0);
}
);
layerId = "24810176-774E-47FD-8B80-D284CD1191FD";
shapes = (
{
closed = 1;
nodes = (
(93,-174,o),
(132,-97,o),
(132,2,cs),
(132,714,l),
(106,714,l),
(106,5,ls),
(106,-86,o),
(77,-148,o),
(-19,-148,cs),
(-50,-148,o),
(-80,-142,o),
(-98,-134,c),
(-98,-162,l),
(-81,-168,o),
(-56,-174,o),
(-19,-174,cs)
);
}
);
vertWidth = 0;
width = 231;
},
{
anchors = (
{
name = center;
pos = (52,0);
}
);
layerId = "F394B0DB-5C84-43F6-ACB2-AE9DD557A8AE";
shapes = (
{
closed = 1;
nodes = (
(108,-190,o),
(182,-127,o),
(182,11,cs),
(182,714,l),
(92,714,l),
(92,4,ls),
(92,-87,o),
(44,-111,o),
(-6,-111,cs),
(-33,-111,o),
(-57,-107,o),
(-78,-101,c),
(-78,-177,l),
(-60,-185,o),
(-36,-190,o),
(-4,-190,cs)
);
}
);
vertWidth = 0;
width = 273;
},
{
anchors = (
{
name = center;
pos = (98,0);
}
);
layerId = "6E6EE38D-3D27-4929-8DEE-9F0163F8D5EF";
shapes = (
{
closed = 1;
nodes = (
(171,-224,o),
(275,-145,o),
(275,70,cs),
(275,714,l),
(81,714,l),
(81,53,ls),
(81,-32,o),
(61,-74,o),
(-8,-74,cs),
(-35,-74,o),
(-58,-68,o),
(-79,-64,c),
(-79,-214,l),
(-55,-219,o),
(-23,-224,o),
(21,-224,cs)
);
}
);
vertWidth = 0;
width = 352;
}
);
unicode = 74;
}
{
glyphname = K;
kernRight = K.left;
layers = (
{
anchors = (
{
name = center;
pos = (330,0);
}
);
layerId = "24810176-774E-47FD-8B80-D284CD1191FD";
shapes = (
{
closed = 1;
nodes = (
(129,0,l),
(129,293,l),
(234,398,l),
(524,0,l),
(558,0,l),
(254,417,l),
(552,714,l),
(514,714,l),
(179,376,ls),
(161,358,o),
(144,341,o),
(129,324,c),
(129,714,l),
(103,714,l),
(103,0,l)
);
}
);
vertWidth = 0;
width = 558;
},
{
anchors = (
{
name = center;
pos = (358,0);
}
);
layerId = "F394B0DB-5C84-43F6-ACB2-AE9DD557A8AE";
shapes = (
{
closed = 1;
nodes = (
(187,0,l),
(187,277,l),
(260,341,l),
(513,0,l),
(619,0,l),
(325,403,l),
(608,714,l),
(503,714,l),
(310,498,ls),
(269,452,o),
(227,407,o),
(187,362,c),
(187,714,l),
(97,714,l),
(97,0,l)
);
}
);
vertWidth = 0;
width = 619;
},
{
anchors = (
{
name = center;
pos = (384,0);
}
);
layerId = "6E6EE38D-3D27-4929-8DEE-9F0163F8D5EF";
shapes = (
{
closed = 1;
nodes = (
(271,0,l),
(271,239,l),
(328,273,l),
(469,0,l),
(687,0,l),
(466,394,l),
(691,714,l),
(480,714,l),
(330,495,ls),
(310,466,o),
(287,435,o),
(271,404,c),
(271,714,l),
(77,714,l),
(77,0,l)
);
}
);
vertWidth = 0;
width = 687;
}
);
unicode = 75;
}
{
glyphname = L;
kernRight = L.left;
layers = (
{
layerId = "24810176-774E-47FD-8B80-D284CD1191FD";
shapes = (
{
closed = 1;
nodes = (
(486,0,l),
(486,25,l),
(129,25,l),
(129,714,l),
(103,714,l),
(103,0,l)
);
}
);
vertWidth = 0;
width = 506;
},
{
layerId = "F394B0DB-5C84-43F6-ACB2-AE9DD557A8AE";
shapes = (
{
closed = 1;
nodes = (
(499,0,l),
(499,80,l),
(187,80,l),
(187,714,l),
(97,714,l),
(97,0,l)
);
}
);
vertWidth = 0;
width = 524;
},
{
layerId = "6E6EE38D-3D27-4929-8DEE-9F0163F8D5EF";
shapes = (
{
closed = 1;
nodes = (
(545,0,l),
(545,156,l),
(270,156,l),
(270,714,l),
(77,714,l),
(77,0,l)
);
}
);
vertWidth = 0;
width = 582;
}
);
unicode = 76;
}
{
glyphname = M;
layers = (
{
anchors = (
{
name = center;
pos = (418,0);
}
);
layerId = "24810176-774E-47FD-8B80-D284CD1191FD";
shapes = (
{
closed = 1;
nodes = (
(129,0,l),
(129,596,ls),
(129,626,o),
(129,646,o),
(128,679,c),
(130,679,l),
(408,0,l),
(428,0,l),
(706,678,l),
(708,678,l),
(707,645,o),
(707,622,o),
(707,602,cs),
(707,0,l),
(733,0,l),
(733,714,l),
(693,714,l),
(420,48,l),
(417,48,l),
(145,714,l),
(103,714,l),
(103,0,l)
);
}
);
vertWidth = 0;
width = 837;
},
{
anchors = (
{
name = center;
pos = (453,0);
}
);
layerId = "F394B0DB-5C84-43F6-ACB2-AE9DD557A8AE";
shapes = (
{
closed = 1;
nodes = (
(180,0,l),
(180,433,ls),
(180,509,o),
(177,585,o),
(173,626,c),
(177,626,l),
(412,0,l),
(486,0,l),
(724,625,l),
(728,625,l),
(725,582,o),
(721,508,o),
(721,439,cs),
(721,0,l),
(810,0,l),
(810,714,l),
(678,714,l),
(454,129,l),
(450,129,l),
(230,714,l),
(97,714,l),
(97,0,l)
);
}
);
vertWidth = 0;
width = 907;
},
{
anchors = (
{
name = center;
pos = (483,0);
}
);
layerId = "6E6EE38D-3D27-4929-8DEE-9F0163F8D5EF";
shapes = (
{
closed = 1;
nodes = (
(248,0,l),
(248,310,ls),
(248,383,o),
(241,474,o),
(238,514,c),
(242,514,l),
(388,0,l),
(572,0,l),
(716,513,l),
(720,513,l),
(717,473,o),
(713,380,o),
(713,313,cs),
(713,0,l),
(890,0,l),
(890,714,l),
(633,714,l),
(487,207,l),
(483,207,l),
(334,714,l),
(77,714,l),
(77,0,l)
);
}
);
vertWidth = 0;
width = 967;
}
);
unicode = 77;
}
{
glyphname = N;
layers = (
{
anchors = (
{
name = center;
pos = (348,0);
}
);
layerId = "24810176-774E-47FD-8B80-D284CD1191FD";
shapes = (
{
closed = 1;
nodes = (
(129,0,l),
(129,502,ls),
(129,555,o),
(129,597,o),
(128,655,c),
(130,655,l),
(575,0,l),
(594,0,l),
(594,714,l),
(568,714,l),
(568,211,ls),
(568,165,o),
(568,111,o),
(569,61,c),
(567,61,l),
(123,714,l),
(103,714,l),
(103,0,l)
);
}
);
vertWidth = 0;
width = 698;
},
{
anchors = (
{
name = center;
pos = (380,0);
}
);
layerId = "F394B0DB-5C84-43F6-ACB2-AE9DD557A8AE";
shapes = (
{
closed = 1;
nodes = (
(180,0,l),
(180,399,ls),
(180,472,o),
(175,546,o),
(172,593,c),
(176,593,l),
(558,0,l),
(663,0,l),
(663,714,l),
(579,714,l),
(579,311,ls),
(579,246,o),
(584,155,o),
(586,123,c),
(582,123,l),
(201,714,l),
(97,714,l),
(97,0,l)
);
}
);
vertWidth = 0;
width = 760;
},
{
anchors = (
{
name = center;
pos = (417,0);
}
);
layerId = "6E6EE38D-3D27-4929-8DEE-9F0163F8D5EF";
shapes = (
{
closed = 1;
nodes = (
(248,0,l),
(248,322,ls),
(248,375,o),
(243,457,o),
(239,503,c),
(243,503,l),
(504,0,l),
(757,0,l),
(757,714,l),
(585,714,l),
(585,391,ls),
(585,342,o),
(589,264,o),
(592,218,c),
(589,218,l),
(329,714,l),
(77,714,l),
(77,0,l)
);
}
);
vertWidth = 0;
width = 834;
}
);
unicode = 78;
}
{
glyphname = P;
kernRight = P.left;
layers = (
{
layerId = "24810176-774E-47FD-8B80-D284CD1191FD";
shapes = (
{
closed = 1;
nodes = (
(129,0,l),
(129,305,l),
(256,305,ls),
(414,305,o),
(516,364,o),
(516,519,cs),
(516,658,o),
(429,714,o),
(270,714,cs),
(103,714,l),
(103,0,l)
);
},
{
closed = 1;
nodes = (
(129,689,l),
(266,689,ls),
(418,689,o),
(489,639,o),
(489,518,cs),
(489,372,o),
(394,330,o),
(254,330,cs),
(129,330,l)
);
}
);
vertWidth = 0;
width = 573;
},
{
layerId = "F394B0DB-5C84-43F6-ACB2-AE9DD557A8AE";
shapes = (
{
closed = 1;
nodes = (
(187,0,l),
(187,278,l),
(269,278,ls),
(483,278,o),
(554,386,o),
(554,504,cs),
(554,637,o),
(473,714,o),
(286,714,cs),
(97,714,l),
(97,0,l)
);
},
{
closed = 1;
nodes = (
(187,637,l),
(278,637,ls),
(404,637,o),
(461,592,o),
(461,500,cs),
(461,395,o),
(395,355,o),
(259,355,cs),
(187,355,l)
);
}
);
vertWidth = 0;
width = 605;
},
{
layerId = "6E6EE38D-3D27-4929-8DEE-9F0163F8D5EF";
shapes = (
{
closed = 1;
nodes = (
(270,0,l),
(270,237,l),
(324,237,ls),
(527,237,o),
(595,357,o),
(595,487,cs),
(595,632,o),
(505,714,o),
(324,714,cs),
(77,714,l),
(77,0,l)
);
},
{
closed = 1;
nodes = (
(270,558,l),
(320,558,ls),
(376,558,o),
(402,527,o),
(402,482,cs),
(402,417,o),
(358,394,o),
(308,394,cs),
(270,394,l)
);
}
);
vertWidth = 0;
width = 632;
}
);
unicode = 80;
}
{
glyphname = Q;
kernLeft = O.right;
kernRight = O.left;
layers = (
{
layerId = "24810176-774E-47FD-8B80-D284CD1191FD";
shapes = (
{
closed = 1;
nodes = (
(585,-170,l),
(443,-4,l),
(608,23,o),
(690,168,o),
(690,358,cs),
(690,590,o),
(579,725,o),
(382,725,cs),
(177,725,o),
(63,574,o),
(63,359,cs),
(63,143,o),
(168,-10,o),
(376,-10,cs),
(389,-10,o),
(401,-9,o),
(413,-8,c),
(549,-170,l)
);
},
{
closed = 1;
nodes = (
(182,15,o),
(90,159,o),
(90,359,cs),
(90,556,o),
(186,700,o),
(382,700,cs),
(562,700,o),
(663,575,o),
(663,358,cs),
(663,156,o),
(573,15,o),
(377,15,cs)
);
}
);
vertWidth = 0;
width = 754;
},
{
layerId = "F394B0DB-5C84-43F6-ACB2-AE9DD557A8AE";
shapes = (
{
closed = 1;
nodes = (
(683,-170,l),
(512,8,l),
(649,54,o),
(720,183,o),
(720,358,cs),
(720,580,o),
(606,725,o),
(392,725,cs),
(168,725,o),
(61,578,o),
(61,359,cs),
(61,138,o),
(168,-10,o),
(391,-10,cs),
(399,-10,o),
(408,-9,o),
(416,-9,c),
(554,-170,l)
);
},
{
closed = 1;
nodes = (
(230,68,o),
(156,178,o),
(156,358,cs),
(156,538,o),
(230,646,o),
(392,646,cs),
(553,646,o),
(625,538,o),
(625,358,cs),
(625,178,o),
(553,68,o),
(391,68,cs)
);
}
);
vertWidth = 0;
width = 781;
},
{
layerId = "6E6EE38D-3D27-4929-8DEE-9F0163F8D5EF";
shapes = (
{
closed = 1;
nodes = (
(765,-170,l),
(591,31,l),
(700,91,o),
(745,209,o),
(745,358,cs),
(745,580,o),
(643,725,o),
(399,725,cs),
(158,725,o),
(51,581,o),
(51,359,cs),
(51,136,o),
(158,-10,o),
(398,-10,cs),
(399,-10,o),
(404,-10,o),
(405,-10,c),
(525,-170,l)
);
},
{
closed = 1;
nodes = (
(295,151,o),
(254,229,o),
(254,358,cs),
(254,487,o),
(294,567,o),
(399,567,cs),
(504,567,o),
(542,487,o),
(542,358,cs),
(542,229,o),
(504,151,o),
(398,151,cs)
);
}
);
vertWidth = 0;
width = 797;
}
);
unicode = 81;
}
{
glyphname = R;
layers = (
{
layerId = "24810176-774E-47FD-8B80-D284CD1191FD";
shapes = (
{
closed = 1;
nodes = (
(129,0,l),
(129,320,l),
(327,320,l),
(518,0,l),
(551,0,l),
(355,327,l),
(456,354,o),
(516,419,o),
(516,525,cs),
(516,673,o),
(427,714,o),
(262,714,cs),
(103,714,l),
(103,0,l)
);
},
{
closed = 1;
nodes = (
(129,689,l),
(257,689,ls),
(413,689,o),
(489,652,o),
(489,524,cs),
(489,410,o),
(408,345,o),
(292,345,cs),
(129,345,l)
);
}
);
vertWidth = 0;
width = 577;
},
{
layerId = "F394B0DB-5C84-43F6-ACB2-AE9DD557A8AE";
shapes = (
{
closed = 1;
nodes = (
(187,0,l),
(187,295,l),
(329,295,l),
(502,0,l),
(607,0,l),
(411,320,l),
(483,345,o),
(554,397,o),
(554,511,cs),
(554,647,o),
(471,714,o),
(294,714,cs),
(97,714,l),
(97,0,l)
);
},
{
closed = 1;
nodes = (
(187,636,l),
(289,636,ls),
(406,636,o),
(461,600,o),
(461,507,cs),
(461,417,o),
(410,371,o),
(294,371,cs),
(187,371,l)
);
}
);
vertWidth = 0;
width = 622;
},
{
layerId = "6E6EE38D-3D27-4929-8DEE-9F0163F8D5EF";
shapes = (
{
closed = 1;
nodes = (
(270,0,l),
(270,260,l),
(319,260,l),
(470,0,l),
(689,0,l),
(481,311,l),
(556,353,o),
(602,416,o),
(602,503,cs),
(602,642,o),
(505,714,o),
(311,714,cs),
(77,714,l),
(77,0,l)
);
},
{
closed = 1;
nodes = (
(270,568,l),
(308,568,ls),
(378,568,o),
(407,540,o),
(407,494,cs),
(407,427,o),
(365,405,o),
(306,405,cs),
(270,405,l)
);
}
);
vertWidth = 0;
width = 677;
}
);
unicode = 82;
}
{
glyphname = S;
layers = (
{
layerId = "24810176-774E-47FD-8B80-D284CD1191FD";
shapes = (
{
closed = 1;
nodes = (
(380,-10,o),
(489,51,o),
(489,180,cs),
(489,298,o),
(404,335,o),
(277,375,cs),
(174,407,o),
(91,437,o),
(91,546,cs),
(91,653,o),
(183,699,o),
(289,699,cs),
(342,699,o),
(398,691,o),
(460,664,c),
(471,687,l),
(412,713,o),
(354,724,o),
(291,724,cs),
(165,724,o),
(64,664,o),
(64,544,cs),
(64,425,o),
(147,389,o),
(263,352,cs),
(386,313,o),
(462,280,o),
(462,181,cs),
(462,65,o),
(365,15,o),
(252,15,cs),
(171,15,o),
(109,29,o),
(56,48,c),
(56,19,l),
(104,5,o),
(158,-10,o),
(250,-10,cs)
);
}
);
vertWidth = 0;
width = 543;
},
{
layerId = "F394B0DB-5C84-43F6-ACB2-AE9DD557A8AE";
shapes = (
{
closed = 1;
nodes = (
(403,-10,o),
(502,64,o),
(502,191,cs),
(502,303,o),
(433,350,o),
(307,397,cs),
(191,440,o),
(151,469,o),
(151,541,cs),
(151,603,o),
(197,645,o),
(286,645,cs),
(348,645,o),
(407,628,o),
(457,607,c),
(485,684,l),
(431,708,o),
(366,724,o),
(288,724,cs),
(153,724,o),
(60,655,o),
(60,542,cs),
(60,431,o),
(122,374,o),
(244,330,cs),
(373,283,o),
(412,253,o),
(412,183,cs),
(412,112,o),
(357,68,o),
(251,68,cs),
(175,68,o),
(99,89,o),
(51,110,c),
(51,24,l),
(96,2,o),
(167,-10,o),
(247,-10,cs)
);
}
);
vertWidth = 0;
width = 549;
},
{
layerId = "6E6EE38D-3D27-4929-8DEE-9F0163F8D5EF";
shapes = (
{
closed = 1;
nodes = (
(459,-10,o),
(544,100,o),
(544,217,cs),
(544,328,o),
(484,379,o),
(380,426,cs),
(274,474,o),
(240,490,o),
(240,524,cs),
(240,550,o),
(262,570,o),
(312,570,cs),
(363,570,o),
(424,552,o),
(485,524,c),
(544,673,l),
(485,699,o),
(411,724,o),
(318,724,cs),
(158,724,o),
(49,653,o),
(49,515,cs),
(49,392,o),
(116,343,o),
(222,294,cs),
(315,251,o),
(351,237,o),
(351,200,cs),
(351,169,o),
(325,147,o),
(268,147,cs),
(204,147,o),
(121,168,o),
(44,207,c),
(44,35,l),
(112,3,o),
(166,-10,o),
(264,-10,cs)
);
}
);
vertWidth = 0;
width = 577;
}
);
unicode = 83;
}
{
glyphname = T;
kernLeft = T.right;
kernRight = T.left;
layers = (
{
layerId = "24810176-774E-47FD-8B80-D284CD1191FD";
shapes = (
{
closed = 1;
nodes = (
(265,0,l),
(265,689,l),
(503,689,l),
(503,714,l),
(2,714,l),
(2,689,l),
(239,689,l),
(239,0,l)
);
}
);
vertWidth = 0;
width = 505;
},
{
layerId = "F394B0DB-5C84-43F6-ACB2-AE9DD557A8AE";
shapes = (
{
closed = 1;
nodes = (
(323,0,l),
(323,635,l),
(545,635,l),
(545,714,l),
(10,714,l),
(10,635,l),
(233,635,l),
(233,0,l)
);
}
);
vertWidth = 0;
width = 556;
},
{
layerId = "6E6EE38D-3D27-4929-8DEE-9F0163F8D5EF";
shapes = (
{
closed = 1;
nodes = (
(392,0,l),
(392,556,l),
(566,556,l),
(566,714,l),
(25,714,l),
(25,556,l),
(199,556,l),
(199,0,l)
);
}
);
vertWidth = 0;
width = 591;
}
);
unicode = 84;
}
{
glyphname = U;
kernLeft = U.right;
kernRight = U.left;
layers = (
{
layerId = "24810176-774E-47FD-8B80-D284CD1191FD";
shapes = (
{
closed = 1;
nodes = (
(510,-10,o),
(618,74,o),
(618,252,cs),
(618,714,l),
(592,714,l),
(592,244,ls),
(592,92,o),
(498,15,o),
(356,15,cs),
(207,15,o),
(121,96,o),
(121,256,cs),
(121,714,l),
(95,714,l),
(95,254,ls),
(95,81,o),
(190,-10,o),
(355,-10,cs)
);
}
);
vertWidth = 0;
width = 712;
},
{
layerId = "F394B0DB-5C84-43F6-ACB2-AE9DD557A8AE";
shapes = (
{
closed = 1;
nodes = (
(551,-10,o),
(640,104,o),
(640,252,cs),
(640,714,l),
(551,714,l),
(551,252,ls),
(551,144,o),
(496,68,o),
(367,68,cs),
(242,68,o),
(180,135,o),
(180,251,cs),
(180,714,l),
(90,714,l),
(90,254,ls),
(90,95,o),
(184,-10,o),
(362,-10,cs)
);
}
);
vertWidth = 0;
width = 731;
},
{
layerId = "6E6EE38D-3D27-4929-8DEE-9F0163F8D5EF";
shapes = (
{
closed = 1;
nodes = (
(582,-10,o),
(684,104,o),
(684,284,cs),
(684,714,l),
(491,714,l),
(491,296,ls),
(491,194,o),
(458,151,o),
(379,151,cs),
(305,151,o),
(267,194,o),
(267,295,cs),
(267,714,l),
(73,714,l),
(73,280,ls),
(73,95,o),
(179,-10,o),
(376,-10,cs)
);
}
);
vertWidth = 0;
width = 757;
}
);
unicode = 85;
}
{
glyphname = V;
kernLeft = V.right;
kernRight = V.left;
layers = (
{
anchors = (
{
name = center;
pos = (281,0);
}
);
layerId = "24810176-774E-47FD-8B80-D284CD1191FD";
shapes = (
{
closed = 1;
nodes = (
(294,0,l),
(563,714,l),
(535,714,l),
(320,143,ls),
(303,98,o),
(292,67,o),
(282,37,c),
(272,67,o),
(258,105,o),
(244,143,cs),
(28,714,l),
(0,714,l),
(269,0,l)
);
}
);
vertWidth = 0;
width = 563;
},
{
anchors = (
{
name = center;
pos = (300,0);
}
);
layerId = "F394B0DB-5C84-43F6-ACB2-AE9DD557A8AE";
shapes = (
{
closed = 1;
nodes = (
(345,0,l),
(600,714,l),
(505,714,l),
(345,258,ls),
(324,198,o),
(309,147,o),
(300,100,c),
(290,147,o),
(276,197,o),
(255,256,cs),
(94,714,l),
(0,714,l),
(255,0,l)
);
}
);
vertWidth = 0;
width = 600;
},
{
anchors = (
{
name = center;
pos = (347,0);
}
);
layerId = "6E6EE38D-3D27-4929-8DEE-9F0163F8D5EF";
shapes = (
{
closed = 1;
nodes = (
(460,0,l),
(694,714,l),
(478,714,l),
(379,350,ls),
(368,309,o),
(351,224,o),
(347,184,c),
(344,224,o),
(325,311,o),
(314,352,cs),
(217,714,l),
(0,714,l),
(233,0,l)
);
}
);
vertWidth = 0;
width = 694;
}
);
unicode = 86;
}
{
glyphname = W;
kernLeft = V.right;
kernRight = V.left;
layers = (
{
layerId = "24810176-774E-47FD-8B80-D284CD1191FD";
shapes = (
{
closed = 1;
nodes = (
(252,0,l),
(415,604,ls),
(421,627,o),
(425,641,o),
(431,675,c),
(439,639,o),
(446,620,o),
(456,582,cs),
(617,0,l),
(641,0,l),
(839,714,l),
(812,714,l),
(658,168,ls),
(643,116,o),
(637,88,o),
(629,48,c),
(620,88,o),
(613,116,o),
(598,168,cs),
(445,714,l),
(420,714,l),
(271,171,ls),
(257,121,o),
(249,90,o),
(240,52,c),
(231,90,o),
(221,121,o),
(208,170,cs),
(60,714,l),
(33,714,l),
(228,0,l)
);
}
);
vertWidth = 0;
width = 869;
},
{
layerId = "F394B0DB-5C84-43F6-ACB2-AE9DD557A8AE";
shapes = (
{
closed = 1;
nodes = (
(292,0,l),
(427,465,ls),
(445,526,o),
(459,591,o),
(461,609,c),
(464,591,o),
(480,525,o),
(497,468,cs),
(636,0,l),
(727,0,l),
(917,714,l),
(823,714,l),
(713,279,ls),
(697,216,o),
(684,157,o),
(678,108,c),
(671,154,o),
(658,218,o),
(639,280,cs),
(508,714,l),
(415,714,l),
(289,283,ls),
(272,224,o),
(258,160,o),
(251,108,c),
(244,158,o),
(233,216,o),
(217,278,cs),
(106,714,l),
(12,714,l),
(201,0,l)
);
}
);
vertWidth = 0;
width = 930;
},
{
layerId = "6E6EE38D-3D27-4929-8DEE-9F0163F8D5EF";
shapes = (
{
closed = 1;
nodes = (
(420,0,l),
(489,311,ls),
(494,334,o),
(516,437,o),
(521,486,c),
(526,437,o),
(547,334,o),
(552,311,cs),
(620,0,l),
(848,0,l),
(1024,714,l),
(838,714,l),
(759,355,ls),
(751,319,o),
(730,216,o),
(724,167,c),
(715,245,o),
(684,388,o),
(671,444,cs),
(610,714,l),
(431,714,l),
(368,444,ls),
(354,386,o),
(325,248,o),
(315,167,c),
(309,214,o),
(287,321,o),
(279,356,cs),
(201,714,l),
(15,714,l),
(192,0,l)
);
}
);
vertWidth = 0;
width = 1039;
}
);
unicode = 87;
}
{
glyphname = X;
kernRight = K.left;
layers = (
{
layerId = "24810176-774E-47FD-8B80-D284CD1191FD";
shapes = (
{
closed = 1;
nodes = (
(28,0,l),
(256,350,l),
(481,0,l),
(512,0,l),
(274,370,l),
(494,714,l),
(463,714,l),
(257,390,l),
(53,714,l),
(22,714,l),
(239,370,l),
(-3,0,l)
);
}
);
vertWidth = 0;
width = 509;
},
{
layerId = "F394B0DB-5C84-43F6-ACB2-AE9DD557A8AE";
shapes = (
{
closed = 1;
nodes = (
(99,0,l),
(291,310,l),
(480,0,l),
(582,0,l),
(344,374,l),
(565,714,l),
(470,714,l),
(294,434,l),
(119,714,l),
(19,714,l),
(241,372,l),
(4,0,l)
);
}
);
vertWidth = 0;
width = 586;
},
{
layerId = "6E6EE38D-3D27-4929-8DEE-9F0163F8D5EF";
shapes = (
{
closed = 1;
nodes = (
(220,0,l),
(358,223,l),
(497,0,l),
(720,0,l),
(477,350,l),
(703,714,l),
(483,714,l),
(359,493,l),
(230,714,l),
(16,714,l),
(239,365,l),
(2,0,l)
);
}
);
vertWidth = 0;
width = 723;
}
);
unicode = 88;
}
{
glyphname = Y;
kernLeft = Y.right;
kernRight = Y.left;
layers = (
{
anchors = (
{
name = center;
pos = (252,0);
}
);
layerId = "24810176-774E-47FD-8B80-D284CD1191FD";
shapes = (
{
closed = 1;
nodes = (
(267,0,l),
(267,275,l),
(505,714,l),
(475,714,l),
(253,301,l),
(30,714,l),
(0,714,l),
(241,271,l),
(241,0,l)
);
}
);
vertWidth = 0;
width = 505;
},
{
anchors = (
{
name = center;
pos = (283,0);
}
);
layerId = "F394B0DB-5C84-43F6-ACB2-AE9DD557A8AE";
shapes = (
{
closed = 1;
nodes = (
(328,0,l),
(328,277,l),
(566,714,l),
(469,714,l),
(283,363,l),
(98,714,l),
(0,714,l),
(238,273,l),
(238,0,l)
);
}
);
vertWidth = 0;
width = 566;
},
{
anchors = (
{
name = center;
pos = (332,0);
}
);
layerId = "6E6EE38D-3D27-4929-8DEE-9F0163F8D5EF";
shapes = (
{
closed = 1;
nodes = (
(429,0,l),
(429,279,l),
(664,714,l),
(455,714,l),
(332,449,l),
(210,714,l),
(0,714,l),
(235,273,l),
(235,0,l)
);
}
);
vertWidth = 0;
width = 664;
}
);
unicode = 89;
}
{
glyphname = Z;
kernLeft = Z.right;
kernRight = Z.left;
layers = (
{
anchors = (
{
name = center;
pos = (287,0);
}
);
layerId = "24810176-774E-47FD-8B80-D284CD1191FD";
shapes = (
{
closed = 1;
nodes = (
(538,0,l),
(538,25,l),
(73,25,l),
(526,696,l),
(526,714,l),
(64,714,l),
(64,689,l),
(489,689,l),
(36,18,l),
(36,0,l)
);
}
);
vertWidth = 0;
width = 578;
},
{
anchors = (
{
name = center;
pos = (285,0);
}
);
layerId = "F394B0DB-5C84-43F6-ACB2-AE9DD557A8AE";
shapes = (
{
closed = 1;
nodes = (
(533,0,l),
(533,80,l),
(147,80,l),
(523,646,l),
(523,714,l),
(50,714,l),
(50,634,l),
(414,634,l),
(38,68,l),
(38,0,l)
);
}
);
vertWidth = 0;
width = 572;
},
{
anchors = (
{
name = center;
pos = (308,0);
}
);
layerId = "6E6EE38D-3D27-4929-8DEE-9F0163F8D5EF";
shapes = (
{
closed = 1;
nodes = (
(586,0,l),
(586,156,l),
(269,156,l),
(578,595,l),
(578,714,l),
(37,714,l),
(37,558,l),
(339,558,l),
(30,119,l),
(30,0,l)
);
}
);
vertWidth = 0;
width = 611;
}
);
unicode = 90;
}
{
glyphname = a;
kernLeft = a.right;
kernRight = n.left;
layers = (
{
anchors = (
{
name = center;
pos = (238,0);
}
);
layerId = "24810176-774E-47FD-8B80-D284CD1191FD";
shapes = (
{
closed = 1;
nodes = (
(316,-10,o),
(372,42,o),
(400,103,c),
(402,103,l),
(406,0,l),
(428,0,l),
(428,350,ls),
(428,480,o),
(373,537,o),
(264,537,cs),
(205,537,o),
(150,522,o),
(97,498,c),
(106,472,l),
(163,501,o),
(211,512,o),
(264,512,cs),
(357,512,o),
(402,463,o),
(402,343,cs),
(402,300,l),
(299,294,ls),
(142,285,o),
(48,234,o),
(48,129,cs),
(48,45,o),
(102,-10,o),
(208,-10,cs)
);
},
{
closed = 1;
nodes = (
(123,15,o),
(76,58,o),
(76,129,cs),
(76,222,o),
(165,263,o),
(301,270,cs),
(402,275,l),
(402,220,ls),
(402,99,o),
(341,15,o),
(208,15,cs)
);
}
);
vertWidth = 0;
width = 511;
},
{
anchors = (
{
name = center;
pos = (263,0);
}
);
layerId = "F394B0DB-5C84-43F6-ACB2-AE9DD557A8AE";
shapes = (
{
closed = 1;
nodes = (
(305,-10,o),
(348,17,o),
(395,76,c),
(399,76,l),
(416,0,l),
(480,0,l),
(480,365,ls),
(480,490,o),
(418,545,o),
(288,545,cs),
(218,545,o),
(152,524,o),
(105,499,c),
(132,433,l),
(176,454,o),
(227,474,o),
(283,474,cs),
(353,474,o),
(394,444,o),
(394,355,cs),
(394,323,l),
(303,320,ls),
(128,315,o),
(46,256,o),
(46,149,cs),
(46,40,o),
(118,-10,o),
(215,-10,cs)
);
},
{
closed = 1;
nodes = (
(177,61,o),
(137,88,o),
(137,148,cs),
(137,216,o),
(180,254,o),
(314,259,cs),
(393,262,l),
(393,214,ls),
(393,110,o),
(325,61,o),
(235,61,cs)
);
}
);
vertWidth = 0;
width = 561;
},
{
anchors = (
{
name = center;
pos = (297,0);
}
);
layerId = "6E6EE38D-3D27-4929-8DEE-9F0163F8D5EF";
shapes = (
{
closed = 1;
nodes = (
(296,-10,o),
(339,14,o),
(386,73,c),
(390,73,l),
(427,0,l),
(559,0,l),
(559,363,ls),
(559,491,o),
(476,563,o),
(336,563,cs),
(236,563,o),
(156,546,o),
(92,513,c),
(147,387,l),
(201,411,o),
(257,428,o),
(301,428,cs),
(342,428,o),
(368,409,o),
(368,360,cs),
(368,352,l),
(276,349,ls),
(120,344,o),
(36,287,o),
(36,169,cs),
(36,48,o),
(108,-10,o),
(204,-10,cs)
);
},
{
closed = 1;
nodes = (
(252,125,o),
(230,142,o),
(230,180,cs),
(230,220,o),
(255,242,o),
(325,245,cs),
(369,247,l),
(369,204,l),
(369,157,o),
(331,125,o),
(285,125,cs)
);
}
);
vertWidth = 0;
width = 623;
}
);
unicode = 97;
}
{
glyphname = b;
kernLeft = b;
kernRight = o.left;
layers = (
{
layerId = "24810176-774E-47FD-8B80-D284CD1191FD";
shapes = (
{
closed = 1;
nodes = (
(456,-10,o),
(524,114,o),
(524,266,cs),
(524,444,o),
(451,539,o),
(311,539,cs),
(210,539,o),
(137,483,o),
(115,406,c),
(113,406,l),
(114,439,o),
(115,493,o),
(115,525,cs),
(115,760,l),
(89,760,l),
(89,0,l),
(111,0,l),
(115,104,l),
(117,104,l),
(141,38,o),
(200,-10,o),
(295,-10,cs)
);
},
{
closed = 1;
nodes = (
(174,15,o),
(115,98,o),
(115,253,cs),
(115,263,ls),
(115,419,o),
(178,514,o),
(311,514,cs),
(435,514,o),
(497,430,o),
(497,266,cs),
(497,106,o),
(427,15,o),
(295,15,cs)
);
}
);
vertWidth = 0;
width = 583;
},
{
layerId = "F394B0DB-5C84-43F6-ACB2-AE9DD557A8AE";
shapes = (
{
closed = 1;
nodes = (
(471,-10,o),
(560,84,o),
(560,268,cs),
(560,452,o),
(472,545,o),
(339,545,cs),
(255,545,o),
(203,510,o),
(173,465,c),
(168,465,l),
(170,487,o),
(173,530,o),
(173,575,cs),
(173,760,l),
(85,760,l),
(85,0,l),
(148,0,l),
(166,68,l),
(173,68,l),
(203,25,o),
(255,-10,o),
(339,-10,cs)
);
},
{
closed = 1;
nodes = (
(208,63,o),
(173,135,o),
(173,267,cs),
(173,271,ls),
(173,408,o),
(210,472,o),
(324,472,cs),
(422,472,o),
(469,404,o),
(469,269,cs),
(469,136,o),
(422,63,o),
(326,63,cs)
);
}
);
vertWidth = 0;
width = 615;
},
{
layerId = "6E6EE38D-3D27-4929-8DEE-9F0163F8D5EF";
shapes = (
{
closed = 1;
nodes = (
(518,-10,o),
(600,89,o),
(600,278,cs),
(600,463,o),
(519,563,o),
(404,563,cs),
(329,563,o),
(285,527,o),
(257,482,c),
(250,482,l),
(254,513,o),
(257,549,o),
(257,588,cs),
(257,760,l),
(66,760,l),
(66,0,l),
(215,0,l),
(245,54,l),
(257,54,l),
(285,23,o),
(320,-10,o),
(398,-10,cs)
);
},
{
closed = 1;
nodes = (
(277,144,o),
(257,185,o),
(257,271,cs),
(257,298,ls),
(257,377,o),
(281,413,o),
(334,413,c),
(383,413,o),
(406,368,o),
(406,280,cs),
(406,191,o),
(381,144,o),
(336,144,cs)
);
}
);
vertWidth = 0;
width = 643;
}
);
unicode = 98;
}
{
glyphname = c;
kernLeft = o.right;
layers = (
{
anchors = (
{
name = center;
pos = (250,0);
}
);
layerId = "24810176-774E-47FD-8B80-D284CD1191FD";
shapes = (
{
closed = 1;
nodes = (
(357,-10,o),
(405,2,o),
(438,16,c),
(438,41,l),
(399,25,o),
(350,15,o),
(302,15,cs),
(150,15,o),
(86,125,o),
(86,261,cs),
(86,409,o),
(175,513,o),
(319,513,cs),
(357,513,o),
(397,507,o),
(437,489,c),
(442,514,l),
(405,530,o),
(367,538,o),
(319,538,cs),
(157,538,o),
(59,422,o),
(59,261,cs),
(59,106,o),
(133,-10,o),
(302,-10,cs)
);
}
);
vertWidth = 0;
width = 472;
},
{
anchors = (
{
name = center;
pos = (251,0);
}
);
layerId = "F394B0DB-5C84-43F6-ACB2-AE9DD557A8AE";
shapes = (
{
closed = 1;
nodes = (
(361,-10,o),
(402,0,o),
(438,19,c),
(438,97,l),
(401,80,o),
(357,66,o),
(299,66,cs),
(198,66,o),
(146,137,o),
(146,266,cs),
(146,400,o),
(197,469,o),
(304,469,cs),
(341,469,o),
(388,456,o),
(420,444,c),
(447,517,l),
(415,533,o),
(360,546,o),
(306,546,cs),
(162,546,o),
(55,463,o),
(55,265,cs),
(55,75,o),
(157,-10,o),
(300,-10,cs)
);
}
);
vertWidth = 0;
width = 480;
},
{
anchors = (
{
name = center;
pos = (278,0);
}
);
layerId = "6E6EE38D-3D27-4929-8DEE-9F0163F8D5EF";
shapes = (
{
closed = 1;
nodes = (
(394,-10,o),
(449,9,o),
(495,39,c),
(495,191,l),
(446,160,o),
(389,142,o),
(334,142,cs),
(276,142,o),
(236,179,o),
(236,275,cs),
(236,368,o),
(275,413,o),
(333,413,cs),
(375,413,o),
(412,400,o),
(458,380,c),
(514,521,l),
(462,547,o),
(401,563,o),
(333,563,cs),
(166,563,o),
(42,475,o),
(42,274,cs),
(42,77,o),
(150,-10,o),
(318,-10,cs)
);
}
);
vertWidth = 0;
width = 539;
}
);
unicode = 99;
}
{
glyphname = d;
kernLeft = o.right;
kernRight = d;
layers = (
{
layerId = "24810176-774E-47FD-8B80-D284CD1191FD";
shapes = (
{
closed = 1;
nodes = (
(388,-10,o),
(444,46,o),
(468,113,c),
(470,113,l),
(472,0,l),
(494,0,l),
(494,760,l),
(468,760,l),
(468,543,ls),
(468,501,o),
(468,459,o),
(470,414,c),
(468,414,l),
(446,484,o),
(387,538,o),
(291,538,cs),
(141,538,o),
(59,437,o),
(59,254,cs),
(59,83,o),
(131,-10,o),
(283,-10,cs)
);
},
{
closed = 1;
nodes = (
(149,15,o),
(86,94,o),
(86,254,cs),
(86,427,o),
(159,513,o),
(291,513,cs),
(410,513,o),
(468,426,o),
(468,266,cs),
(468,263,ls),
(468,107,o),
(416,15,o),
(283,15,cs)
);
}
);
vertWidth = 0;
width = 583;
},
{
layerId = "F394B0DB-5C84-43F6-ACB2-AE9DD557A8AE";
shapes = (
{
closed = 1;
nodes = (
(359,-10,o),
(410,26,o),
(442,72,c),
(446,72,l),
(459,0,l),
(530,0,l),
(530,760,l),
(442,760,l),
(442,546,ls),
(442,526,o),
(446,484,o),
(448,467,c),
(442,467,l),
(409,511,o),
(359,546,o),
(276,546,cs),
(143,546,o),
(55,451,o),
(55,267,cs),
(55,83,o),
(142,-10,o),
(275,-10,cs)
);
},
{
closed = 1;
nodes = (
(193,63,o),
(146,137,o),
(146,265,cs),
(146,392,o),
(193,473,o),
(288,473,cs),
(407,473,o),
(443,399,o),
(443,266,cs),
(443,250,ls),
(443,125,o),
(402,63,o),
(289,63,cs)
);
}
);
vertWidth = 0;
width = 615;
},
{
layerId = "6E6EE38D-3D27-4929-8DEE-9F0163F8D5EF";
shapes = (
{
closed = 1;
nodes = (
(314,-10,o),
(358,26,o),
(385,70,c),
(392,70,l),
(433,0,l),
(577,0,l),
(577,760,l),
(385,760,l),
(385,612,ls),
(385,565,o),
(389,510,o),
(394,482,c),
(390,482,l),
(361,528,o),
(319,563,o),
(245,563,cs),
(125,563,o),
(42,465,o),
(42,276,cs),
(42,89,o),
(124,-10,o),
(238,-10,cs)
);
},
{
closed = 1;
nodes = (
(268,141,o),
(235,181,o),
(235,273,cs),
(235,366,o),
(268,409,o),
(314,409,cs),
(381,409,o),
(401,361,o),
(401,274,cs),
(401,259,ls),
(399,179,o),
(377,141,o),
(316,141,cs)
);
}
);
vertWidth = 0;
width = 643;
}
);
unicode = 100;
}
{
glyphname = e;
kernLeft = o.right;
kernRight = o.left;
layers = (
{
anchors = (
{
name = center;
pos = (269,0);
}
);
layerId = "24810176-774E-47FD-8B80-D284CD1191FD";
shapes = (
{
closed = 1;
nodes = (
(360,-10,o),
(408,0,o),
(459,23,c),
(459,50,l),
(397,22,o),
(360,15,o),
(296,15,cs),
(159,15,o),
(86,105,o),
(86,266,c),
(479,266,l),
(479,291,ls),
(479,430,o),
(422,538,o),
(287,538,cs),
(133,538,o),
(59,408,o),
(59,259,cs),
(59,104,o),
(130,-10,o),
(296,-10,cs)
);
},
{
closed = 1;
nodes = (
(99,436,o),
(175,513,o),
(287,513,cs),
(399,513,o),
(452,424,o),
(452,291,c),
(87,291,l)
);
}
);
vertWidth = 0;
width = 540;
},
{
anchors = (
{
name = center;
pos = (284,0);
}
);
layerId = "F394B0DB-5C84-43F6-ACB2-AE9DD557A8AE";
shapes = (
{
closed = 1;
nodes = (
(386,-10,o),
(434,1,o),
(489,25,c),
(489,102,l),
(433,78,o),
(385,65,o),
(317,65,cs),
(210,65,o),
(149,130,o),
(146,251,c),
(513,251,l),
(513,304,ls),
(513,450,o),
(429,546,o),
(292,546,cs),
(150,546,o),
(55,440,o),
(55,264,cs),
(55,85,o),
(160,-10,o),
(313,-10,cs)
);
},
{
closed = 1;
nodes = (
(157,417,o),
(207,474,o),
(291,474,cs),
(380,474,o),
(421,412,o),
(421,321,c),
(148,321,l)
);
}
);
vertWidth = 0;
width = 564;
},
{
anchors = (
{
name = center;
pos = (309,0);
}
);
layerId = "6E6EE38D-3D27-4929-8DEE-9F0163F8D5EF";
shapes = (
{
closed = 1;
nodes = (
(429,-10,o),
(487,3,o),
(540,31,c),
(540,168,l),
(479,139,o),
(425,126,o),
(356,126,cs),
(278,126,o),
(238,167,o),
(235,225,c),
(576,225,l),
(576,310,l),
(576,479,o),
(476,563,o),
(315,563,cs),
(152,563,o),
(42,472,o),
(42,273,cs),
(42,76,o),
(166,-10,o),
(333,-10,cs)
);
},
{
closed = 1;
nodes = (
(244,406,o),
(277,433,o),
(322,433,cs),
(374,433,o),
(403,394,o),
(403,345,c),
(239,345,l)
);
}
);
vertWidth = 0;
width = 618;
}
);
unicode = 101;
}
{
glyphname = f;
kernLeft = f.right;
kernRight = f.left;
layers = (
{
anchors = (
{
name = center;
pos = (175,0);
}
);
layerId = "24810176-774E-47FD-8B80-D284CD1191FD";
shapes = (
{
closed = 1;
nodes = (
(139,0,l),
(139,503,l),
(258,503,l),
(258,528,l),
(139,528,l),
(139,603,ls),
(139,701,o),
(172,740,o),
(257,740,cs),
(282,740,o),
(311,736,o),
(335,727,c),
(339,753,l),
(314,760,o),
(290,765,o),
(257,765,cs),
(154,765,o),
(113,707,o),
(113,603,cs),
(113,528,l),
(11,525,l),
(11,503,l),
(113,503,l),
(113,0,l)
);
}
);
vertWidth = 0;
width = 274;
},
{
anchors = (
{
name = center;
pos = (201,0);
}
);
layerId = "F394B0DB-5C84-43F6-ACB2-AE9DD557A8AE";
shapes = (
{
closed = 1;
nodes = (
(197,0,l),
(197,468,l),
(332,468,l),
(332,536,l),
(197,536,l),
(197,571,ls),
(197,655,o),
(225,693,o),
(284,693,cs),
(313,693,o),
(342,685,o),
(364,678,c),
(387,747,l),
(361,756,o),
(325,765,o),
(283,765,cs),
(173,765,o),
(109,708,o),
(109,570,cs),
(109,539,l),
(15,509,l),
(15,468,l),
(109,468,l),
(109,0,l)
);
}
);
vertWidth = 0;
width = 344;
},
{
anchors = (
{
name = center;
pos = (230,0);
}
);
layerId = "6E6EE38D-3D27-4929-8DEE-9F0163F8D5EF";
shapes = (
{
closed = 1;
nodes = (
(286,0,l),
(286,410,l),
(404,410,l),
(404,553,l),
(286,553,l),
(286,568,ls),
(286,608,o),
(299,625,o),
(328,625,cs),
(355,625,o),
(378,620,o),
(397,615,c),
(438,739,l),
(387,756,o),
(344,765,o),
(287,765,cs),
(153,765,o),
(99,703,o),
(99,560,cs),
(99,551,l),
(22,504,l),
(22,410,l),
(95,410,l),
(95,0,l)
);
}
);
vertWidth = 0;
width = 413;
}
);
unicode = 102;
}
{
glyphname = g;
kernLeft = g.right;
layers = (
{
layerId = "24810176-774E-47FD-8B80-D284CD1191FD";
shapes = (
{
closed = 1;
nodes = (
(433,-240,o),
(492,-152,o),
(492,-25,cs),
(492,528,l),
(470,528,l),
(465,437,l),
(463,437,l),
(435,495,o),
(387,538,o),
(290,538,cs),
(136,538,o),
(59,430,o),
(59,256,cs),
(59,81,o),
(140,-10,o),
(276,-10,cs),
(375,-10,o),
(442,34,o),
(466,117,c),
(468,117,l),
(466,78,o),
(466,56,o),
(466,17,cs),
(466,-25,ls),
(466,-140,o),
(414,-215,o),
(273,-215,cs),
(198,-215,o),
(135,-196,o),
(87,-173,c),
(87,-203,l),
(135,-223,o),
(192,-240,o),
(273,-240,cs)
);
},
{
closed = 1;
nodes = (
(154,15,o),
(86,99,o),
(86,256,cs),
(86,417,o),
(150,513,o),
(290,513,cs),
(425,513,o),
(466,419,o),
(466,294,cs),
(466,246,ls),
(466,136,o),
(432,15,o),
(276,15,cs)
);
}
);
vertWidth = 0;
width = 583;
},
{
layerId = "F394B0DB-5C84-43F6-ACB2-AE9DD557A8AE";
shapes = (
{
closed = 1;
nodes = (
(454,-240,o),
(530,-162,o),
(530,-9,cs),
(530,536,l),
(460,536,l),
(448,465,l),
(443,465,l),
(403,520,o),
(345,546,o),
(275,546,cs),
(137,546,o),
(55,438,o),
(55,267,cs),
(55,92,o),
(137,-10,o),
(276,-10,cs),
(349,-10,o),
(405,16,o),
(442,71,c),
(446,71,l),
(445,59,o),
(443,21,o),
(443,5,cs),
(443,-16,l),
(443,-110,o),
(387,-167,o),
(295,-167,cs),
(218,-167,o),
(148,-152,o),
(97,-125,c),
(97,-206,l),
(148,-229,o),
(212,-240,o),
(290,-240,cs)
);
},
{
closed = 1;
nodes = (
(195,62,o),
(146,134,o),
(146,266,cs),
(146,398,o),
(197,472,o),
(287,472,cs),
(395,472,o),
(444,413,o),
(444,267,cs),
(444,246,ls),
(444,117,o),
(397,62,o),
(289,62,cs)
);
}
);
vertWidth = 0;
width = 615;
},
{
layerId = "6E6EE38D-3D27-4929-8DEE-9F0163F8D5EF";
shapes = (
{
closed = 1;
nodes = (
(482,-240,o),
(577,-157,o),
(577,-1,c),
(577,553,l),
(412,553,l),
(398,485,l),
(394,485,l),
(365,529,o),
(320,563,o),
(243,563,cs),
(124,563,o),
(42,463,o),
(42,276,cs),
(42,89,o),
(122,-10,o),
(240,-10,cs),
(316,-10,o),
(360,26,o),
(386,70,c),
(392,70,l),
(388,43,o),
(386,18,o),
(386,1,cs),
(386,-9,l),
(386,-62,o),
(348,-91,o),
(271,-91,cs),
(184,-91,o),
(133,-77,o),
(66,-49,c),
(66,-208,l),
(129,-232,o),
(193,-240,o),
(282,-240,cs)
);
},
{
closed = 1;
nodes = (
(262,138,o),
(236,177,o),
(236,273,cs),
(236,366,o),
(262,415,o),
(315,415,cs),
(383,415,o),
(401,365,o),
(401,279,cs),
(401,256,ls),
(401,177,o),
(380,138,o),
(318,138,cs)
);
}
);
vertWidth = 0;
width = 643;
}
);
unicode = 103;
}
{
glyphname = h;
kernLeft = b;
kernRight = n.left;
layers = (
{
anchors = (
{
name = center;
pos = (289,0);
}
);
layerId = "24810176-774E-47FD-8B80-D284CD1191FD";
shapes = (
{
closed = 1;
nodes = (
(116,0,l),
(116,302,ls),
(116,446,o),
(194,513,o),
(309,513,cs),
(406,513,o),
(463,462,o),
(463,345,cs),
(463,0,l),
(489,0,l),
(489,346,ls),
(489,477,o),
(423,538,o),
(309,538,cs),
(197,538,o),
(137,480,o),
(116,417,c),
(114,417,l),
(115,446,o),
(116,466,o),
(116,496,cs),
(116,760,l),
(90,760,l),
(90,0,l)
);
}
);
vertWidth = 0;
width = 573;
},
{
anchors = (
{
name = center;
pos = (311,0);
}
);
layerId = "F394B0DB-5C84-43F6-ACB2-AE9DD557A8AE";
shapes = (
{
closed = 1;
nodes = (
(173,0,l),
(173,277,ls),
(173,402,o),
(210,472,o),
(330,472,cs),
(412,472,o),
(450,429,o),
(450,343,cs),
(450,0,l),
(537,0,l),
(537,349,ls),
(537,486,o),
(471,545,o),
(341,545,cs),
(272,545,o),
(208,517,o),
(174,462,c),
(168,462,l),
(171,483,o),
(173,511,o),
(173,537,cs),
(173,760,l),
(85,760,l),
(85,0,l)
);
}
);
vertWidth = 0;
width = 618;
},
{
anchors = (
{
name = center;
pos = (336,0);
}
);
layerId = "6E6EE38D-3D27-4929-8DEE-9F0163F8D5EF";
shapes = (
{
closed = 1;
nodes = (
(257,0,l),
(257,243,ls),
(257,352,o),
(279,413,o),
(348,413,cs),
(393,413,o),
(414,375,o),
(414,302,cs),
(414,0,l),
(606,0,l),
(606,360,ls),
(606,503,o),
(519,563,o),
(410,563,cs),
(344,563,o),
(294,542,o),
(258,485,c),
(249,485,l),
(252,514,o),
(257,570,o),
(257,652,cs),
(257,760,l),
(66,760,l),
(66,0,l)
);
}
);
vertWidth = 0;
width = 670;
}
);
unicode = 104;
}
{
glyphname = i;
layers = (
{
layerId = "24810176-774E-47FD-8B80-D284CD1191FD";
shapes = (
{
closed = 1;
nodes = (
(116,0,l),
(116,528,l),
(90,528,l),
(90,0,l)
);
},
{
closed = 1;
nodes = (
(127,659,o),
(130,673,o),
(130,690,cs),
(130,706,o),
(127,721,o),
(103,721,cs),
(83,721,o),
(78,706,o),
(78,690,cs),
(78,673,o),
(83,659,o),
(103,659,cs)
);
}
);
vertWidth = 0;
width = 207;
},
{
layerId = "F394B0DB-5C84-43F6-ACB2-AE9DD557A8AE";
shapes = (
{
closed = 1;
nodes = (
(173,0,l),
(173,536,l),
(85,536,l),
(85,0,l)
);
},
{
closed = 1;
nodes = (
(157,625,o),
(181,643,o),
(181,681,cs),
(181,720,o),
(157,737,o),
(130,737,cs),
(101,737,o),
(78,720,o),
(78,681,cs),
(78,643,o),
(101,625,o),
(130,625,cs)
);
}
);
vertWidth = 0;
width = 258;
},
{
layerId = "6E6EE38D-3D27-4929-8DEE-9F0163F8D5EF";
shapes = (
{
closed = 1;
nodes = (
(258,0,l),
(258,553,l),
(67,553,l),
(67,0,l)
);
},
{
closed = 1;
nodes = (
(218,607,o),
(265,625,o),
(265,691,cs),
(265,759,o),
(218,776,o),
(163,776,cs),
(107,776,o),
(62,759,o),
(62,691,c),
(62,625,o),
(107,607,o),
(163,607,cs)
);
}
);
vertWidth = 0;
width = 325;
}
);
unicode = 105;
}
{
glyphname = j;
kernRight = j;
layers = (
{
anchors = (
{
name = center;
pos = (40,0);
}
);
layerId = "24810176-774E-47FD-8B80-D284CD1191FD";
shapes = (
{
closed = 1;
nodes = (
(68,-240,o),
(116,-201,o),
(116,-120,cs),
(116,528,l),
(90,528,l),
(90,-116,ls),
(90,-178,o),
(64,-215,o),
(11,-215,cs),
(-9,-215,o),
(-30,-213,o),
(-50,-204,c),
(-50,-230,l),
(-34,-236,o),
(-14,-240,o),
(11,-240,cs)
);
},
{
closed = 1;
nodes = (
(127,659,o),
(130,673,o),
(130,690,cs),
(130,706,o),
(127,721,o),
(103,721,cs),
(83,721,o),
(78,706,o),
(78,690,cs),
(78,673,o),
(83,659,o),
(103,659,cs)
);
}
);
vertWidth = 0;
width = 207;
},
{
anchors = (
{
name = center;
pos = (63,0);
}
);
layerId = "F394B0DB-5C84-43F6-ACB2-AE9DD557A8AE";
shapes = (
{
closed = 1;
nodes = (
(127,-240,o),
(173,-180,o),
(173,-80,cs),
(173,536,l),
(85,536,l),
(85,-83,ls),
(85,-148,o),
(54,-167,o),
(11,-167,cs),
(-15,-167,o),
(-35,-163,o),
(-55,-157,c),
(-55,-228,l),
(-37,-235,o),
(-12,-240,o),
(22,-240,cs)
);
},
{
closed = 1;
nodes = (
(157,625,o),
(181,643,o),
(181,681,cs),
(181,720,o),
(157,737,o),
(130,737,cs),
(101,737,o),
(78,720,o),
(78,681,cs),
(78,643,o),
(101,625,o),
(130,625,cs)
);
}
);
vertWidth = 0;
width = 258;
},
{
anchors = (
{
name = center;
pos = (106,0);
}
);
layerId = "6E6EE38D-3D27-4929-8DEE-9F0163F8D5EF";
shapes = (
{
closed = 1;
nodes = (
(204,-240,o),
(257,-145,o),
(257,-45,cs),
(257,553,l),
(66,553,l),
(66,-5,ls),
(66,-72,o),
(39,-88,o),
(8,-88,cs),
(-14,-88,o),
(-30,-85,o),
(-51,-79,c),
(-51,-228,l),
(-25,-235,o),
(21,-240,o),
(52,-240,cs)
);
},
{
closed = 1;
nodes = (
(217,607,o),
(264,625,o),
(264,691,cs),
(264,759,o),
(217,776,o),
(162,776,cs),
(106,776,o),
(61,759,o),
(61,691,cs),
(61,625,o),
(106,607,o),
(162,607,cs)
);
}
);
vertWidth = 0;
width = 324;
}
);
unicode = 106;
}
{
glyphname = k;
kernLeft = b;
kernRight = k;
layers = (
{
anchors = (
{
name = center;
pos = (274,0);
}
);
layerId = "24810176-774E-47FD-8B80-D284CD1191FD";
shapes = (
{
closed = 1;
nodes = (
(116,0,l),
(116,172,l),
(216,283,l),
(428,0,l),
(459,0,l),
(234,301,l),
(439,528,l),
(405,528,l),
(172,268,ls),
(150,244,o),
(137,229,o),
(114,203,c),
(115,203,l),
(116,267,o),
(116,321,o),
(116,385,cs),
(116,760,l),
(90,760,l),
(90,0,l)
);
}
);
vertWidth = 0;
width = 454;
},
{
anchors = (
{
name = center;
pos = (305,0);
}
);
layerId = "F394B0DB-5C84-43F6-ACB2-AE9DD557A8AE";
shapes = (
{
closed = 1;
nodes = (
(172,0,l),
(172,197,l),
(233,250,l),
(419,0,l),
(525,0,l),
(293,307,l),
(510,536,l),
(407,536,l),
(236,355,ls),
(218,335,o),
(184,292,o),
(172,276,c),
(168,276,l),
(169,301,o),
(172,342,o),
(172,363,cs),
(172,760,l),
(85,760,l),
(85,0,l)
);
}
);
vertWidth = 0;
width = 534;
},
{
anchors = (
{
name = center;
pos = (362,0);
}
);
layerId = "6E6EE38D-3D27-4929-8DEE-9F0163F8D5EF";
shapes = (
{
closed = 1;
nodes = (
(258,0,l),
(258,151,l),
(320,198,l),
(441,0,l),
(659,0,l),
(455,318,l),
(647,553,l),
(434,553,l),
(310,397,ls),
(292,374,o),
(266,334,o),
(251,311,c),
(247,311,l),
(254,356,o),
(258,416,o),
(258,461,cs),
(258,760,l),
(66,760,l),
(66,0,l)
);
}
);
vertWidth = 0;
width = 659;
}
);
unicode = 107;
}
{
glyphname = l;
kernLeft = b;
kernRight = d;
layers = (
{
layerId = "24810176-774E-47FD-8B80-D284CD1191FD";
shapes = (
{
closed = 1;
nodes = (
(117,0,l),
(117,760,l),
(91,760,l),
(91,0,l)
);
}
);
vertWidth = 0;
width = 207;
},
{
layerId = "F394B0DB-5C84-43F6-ACB2-AE9DD557A8AE";
shapes = (
{
closed = 1;
nodes = (
(173,0,l),
(173,760,l),
(85,760,l),
(85,0,l)
);
}
);
vertWidth = 0;
width = 258;
},
{
layerId = "6E6EE38D-3D27-4929-8DEE-9F0163F8D5EF";
shapes = (
{
closed = 1;
nodes = (
(257,0,l),
(257,760,l),
(66,760,l),
(66,0,l)
);
}
);
vertWidth = 0;
width = 323;
}
);
unicode = 108;
}
{
glyphname = m;
kernLeft = n.right;
kernRight = n.left;
layers = (
{
layerId = "24810176-774E-47FD-8B80-D284CD1191FD";
shapes = (
{
closed = 1;
nodes = (
(116,0,l),
(116,325,ls),
(116,459,o),
(194,513,o),
(287,513,cs),
(360,513,o),
(417,467,o),
(417,360,cs),
(417,0,l),
(443,0,l),
(443,325,ls),
(443,459,o),
(514,513,o),
(614,513,cs),
(687,513,o),
(744,467,o),
(744,360,cs),
(744,0,l),
(770,0,l),
(770,361,ls),
(770,482,o),
(704,538,o),
(614,538,cs),
(519,538,o),
(460,494,o),
(435,429,c),
(433,429,l),
(415,500,o),
(360,538,o),
(287,538,cs),
(185,538,o),
(138,481,o),
(117,432,c),
(115,432,l),
(111,528,l),
(90,528,l),
(90,0,l)
);
}
);
vertWidth = 0;
width = 852;
},
{
layerId = "F394B0DB-5C84-43F6-ACB2-AE9DD557A8AE";
shapes = (
{
closed = 1;
nodes = (
(173,0,l),
(173,278,ls),
(173,403,o),
(208,472,o),
(316,472,cs),
(391,472,o),
(426,429,o),
(426,345,cs),
(426,0,l),
(513,0,l),
(513,296,ls),
(513,410,o),
(554,472,o),
(658,472,cs),
(732,472,o),
(767,429,o),
(767,345,cs),
(767,0,l),
(854,0,l),
(854,349,ls),
(854,487,o),
(794,546,o),
(673,546,cs),
(603,546,o),
(537,517,o),
(501,456,c),
(496,456,l),
(470,517,o),
(414,546,o),
(332,546,cs),
(268,546,o),
(207,519,o),
(174,463,c),
(169,463,l),
(156,536,l),
(85,536,l),
(85,0,l)
);
}
);
vertWidth = 0;
width = 935;
},
{
layerId = "6E6EE38D-3D27-4929-8DEE-9F0163F8D5EF";
shapes = (
{
closed = 1;
nodes = (
(257,0,l),
(257,242,ls),
(257,352,o),
(275,413,o),
(341,413,cs),
(384,413,o),
(405,381,o),
(405,301,cs),
(405,0,l),
(596,0,l),
(596,258,ls),
(596,357,o),
(616,413,o),
(678,413,cs),
(722,413,o),
(745,385,o),
(745,301,cs),
(745,0,l),
(936,0,l),
(936,360,ls),
(936,502,o),
(867,563,o),
(741,563,cs),
(672,563,o),
(615,535,o),
(580,486,c),
(574,486,l),
(541,534,o),
(490,563,o),
(409,563,cs),
(327,563,o),
(272,530,o),
(243,485,c),
(238,485,l),
(210,553,l),
(66,553,l),
(66,0,l)
);
}
);
vertWidth = 0;
width = 1000;
}
);
unicode = 109;
}
{
glyphname = n;
kernLeft = n.right;
kernRight = n.left;
layers = (
{
layerId = "24810176-774E-47FD-8B80-D284CD1191FD";
shapes = (
{
closed = 1;
nodes = (
(116,0,l),
(116,302,ls),
(116,446,o),
(194,513,o),
(309,513,cs),
(406,513,o),
(463,462,o),
(463,345,cs),
(463,0,l),
(489,0,l),
(489,346,ls),
(489,477,o),
(423,538,o),
(309,538,cs),
(197,538,o),
(140,478,o),
(117,417,c),
(115,417,l),
(111,528,l),
(90,528,l),
(90,0,l)
);
}
);
vertWidth = 0;
width = 573;
},
{
layerId = "F394B0DB-5C84-43F6-ACB2-AE9DD557A8AE";
shapes = (
{
closed = 1;
nodes = (
(173,0,l),
(173,278,ls),
(173,403,o),
(211,472,o),
(330,472,cs),
(412,472,o),
(450,429,o),
(450,343,cs),
(450,0,l),
(537,0,l),
(537,349,ls),
(537,487,o),
(471,546,o),
(343,546,cs),
(275,546,o),
(209,519,o),
(174,463,c),
(169,463,l),
(156,536,l),
(85,536,l),
(85,0,l)
);
}
);
vertWidth = 0;
width = 618;
},
{
layerId = "6E6EE38D-3D27-4929-8DEE-9F0163F8D5EF";
shapes = (
{
closed = 1;
nodes = (
(257,0,l),
(257,242,ls),
(257,352,o),
(276,413,o),
(348,413,cs),
(395,413,o),
(415,375,o),
(415,302,cs),
(415,0,l),
(606,0,l),
(606,360,ls),
(606,502,o),
(526,563,o),
(412,563,cs),
(334,563,o),
(278,532,o),
(243,480,c),
(236,480,l),
(210,553,l),
(66,553,l),
(66,0,l)
);
}
);
vertWidth = 0;
width = 670;
}
);
unicode = 110;
}
{
glyphname = o;
kernLeft = o.right;
kernRight = o.left;
layers = (
{
anchors = (
{
name = center;
pos = (287,0);
}
);
layerId = "24810176-774E-47FD-8B80-D284CD1191FD";
shapes = (
{
closed = 1;
nodes = (
(443,-10,o),
(515,109,o),
(515,264,cs),
(515,417,o),
(451,538,o),
(292,538,cs),
(145,538,o),
(59,432,o),
(59,264,cs),
(59,107,o),
(134,-10,o),
(286,-10,cs)
);
},
{
closed = 1;
nodes = (
(151,15,o),
(86,117,o),
(86,264,cs),
(86,420,o),
(160,513,o),
(292,513,cs),
(433,513,o),
(488,402,o),
(488,264,cs),
(488,119,o),
(426,15,o),
(286,15,cs)
);
}
);
vertWidth = 0;
width = 575;
},
{
anchors = (
{
name = center;
pos = (303,0);
}
);
layerId = "F394B0DB-5C84-43F6-ACB2-AE9DD557A8AE";
shapes = (
{
closed = 1;
nodes = (
(454,-10,o),
(551,91,o),
(551,269,cs),
(551,446,o),
(449,546,o),
(304,546,cs),
(150,546,o),
(55,446,o),
(55,269,cs),
(55,91,o),
(159,-10,o),
(301,-10,cs)
);
},
{
closed = 1;
nodes = (
(194,63,o),
(146,142,o),
(146,269,cs),
(146,396,o),
(193,472,o),
(302,472,cs),
(411,472,o),
(460,396,o),
(460,269,cs),
(460,142,o),
(411,63,o),
(303,63,cs)
);
}
);
vertWidth = 0;
width = 605;
},
{
anchors = (
{
name = center;
pos = (318,0);
}
);
layerId = "6E6EE38D-3D27-4929-8DEE-9F0163F8D5EF";
shapes = (
{
closed = 1;
nodes = (
(489,-10,o),
(594,93,o),
(594,278,cs),
(594,461,o),
(479,563,o),
(320,563,cs),
(147,563,o),
(42,461,o),
(42,278,cs),
(42,93,o),
(157,-10,o),
(317,-10,cs)
);
},
{
closed = 1;
nodes = (
(259,132,o),
(236,183,o),
(236,278,cs),
(236,372,o),
(260,421,o),
(318,421,cs),
(378,421,o),
(400,372,o),
(400,278,cs),
(400,183,o),
(378,132,o),
(319,132,cs)
);
}
);
vertWidth = 0;
width = 637;
}
);
unicode = 111;
}
{
glyphname = p;
kernLeft = n.right;
kernRight = o.left;
layers = (
{
layerId = "24810176-774E-47FD-8B80-D284CD1191FD";
shapes = (
{
closed = 1;
nodes = (
(117,-232,l),
(117,-15,ls),
(117,27,o),
(117,71,o),
(115,116,c),
(117,116,l),
(139,46,o),
(198,-10,o),
(303,-10,cs),
(444,-10,o),
(526,91,o),
(526,269,cs),
(526,445,o),
(453,538,o),
(313,538,cs),
(203,538,o),
(139,472,o),
(117,402,c),
(115,402,l),
(113,528,l),
(91,528,l),
(91,-232,l)
);
},
{
closed = 1;
nodes = (
(189,15,o),
(117,92,o),
(117,262,cs),
(117,265,ls),
(117,421,o),
(185,513,o),
(313,513,cs),
(435,513,o),
(499,434,o),
(499,269,cs),
(499,101,o),
(426,15,o),
(303,15,cs)
);
}
);
vertWidth = 0;
width = 583;
},
{
layerId = "F394B0DB-5C84-43F6-ACB2-AE9DD557A8AE";
shapes = (
{
closed = 1;
nodes = (
(173,-240,l),
(173,-20,ls),
(173,5,o),
(169,45,o),
(167,68,c),
(173,68,l),
(204,26,o),
(256,-10,o),
(339,-10,cs),
(472,-10,o),
(560,86,o),
(560,269,cs),
(560,454,o),
(472,546,o),
(340,546,cs),
(253,546,o),
(205,509,o),
(173,463,c),
(169,463,l),
(157,536,l),
(85,536,l),
(85,-240,l)
);
},
{
closed = 1;
nodes = (
(209,63,o),
(173,137,o),
(173,269,cs),
(173,286,ls),
(175,411,o),
(215,472,o),
(324,472,cs),
(423,472,o),
(469,392,o),
(469,270,cs),
(469,150,o),
(423,63,o),
(326,63,cs)
);
}
);
vertWidth = 0;
width = 615;
},
{
layerId = "6E6EE38D-3D27-4929-8DEE-9F0163F8D5EF";
shapes = (
{
closed = 1;
nodes = (
(257,-240,l),
(257,-38,ls),
(257,1,o),
(254,29,o),
(251,54,c),
(257,54,l),
(281,24,o),
(320,-10,o),
(398,-10,cs),
(514,-10,o),
(600,89,o),
(600,278,cs),
(600,462,o),
(526,563,o),
(404,563,cs),
(327,563,o),
(284,526,o),
(257,483,c),
(248,483,l),
(221,553,l),
(66,553,l),
(66,-240,l)
);
},
{
closed = 1;
nodes = (
(274,144,o),
(257,191,o),
(257,279,cs),
(257,294,ls),
(259,373,o),
(276,413,o),
(332,413,cs),
(380,413,o),
(406,377,o),
(406,280,cs),
(406,182,o),
(381,144,o),
(333,144,cs)
);
}
);
vertWidth = 0;
width = 643;
}
);
unicode = 112;
}
{
glyphname = q;
kernLeft = o.right;
layers = (
{
layerId = "24810176-774E-47FD-8B80-D284CD1191FD";
shapes = (
{
closed = 1;
nodes = (
(491,-232,l),
(491,528,l),
(469,528,l),
(465,424,l),
(463,424,l),
(440,487,o),
(380,538,o),
(285,538,cs),
(124,538,o),
(56,414,o),
(56,262,cs),
(56,84,o),
(129,-11,o),
(269,-11,cs),
(370,-11,o),
(443,45,o),
(465,122,c),
(467,122,l),
(466,89,o),
(465,35,o),
(465,3,cs),
(465,-232,l)
);
},
{
closed = 1;
nodes = (
(145,14,o),
(83,98,o),
(83,262,cs),
(83,422,o),
(153,513,o),
(285,513,cs),
(406,513,o),
(465,430,o),
(465,275,cs),
(465,265,ls),
(465,109,o),
(404,14,o),
(269,14,cs)
);
}
);
vertWidth = 0;
width = 583;
},
{
layerId = "F394B0DB-5C84-43F6-ACB2-AE9DD557A8AE";
shapes = (
{
closed = 1;
nodes = (
(530,-240,l),
(530,536,l),
(460,536,l),
(447,463,l),
(443,463,l),
(411,509,o),
(360,546,o),
(276,546,cs),
(145,546,o),
(55,451,o),
(55,267,cs),
(55,83,o),
(143,-10,o),
(273,-10,cs),
(358,-10,o),
(410,26,o),
(441,72,c),
(447,72,l),
(443,49,o),
(442,13,o),
(442,-11,cs),
(442,-240,l)
);
},
{
closed = 1;
nodes = (
(192,63,o),
(146,138,o),
(146,265,cs),
(146,392,o),
(192,473,o),
(288,473,cs),
(404,473,o),
(443,402,o),
(443,266,cs),
(443,248,ls),
(441,123,o),
(400,63,o),
(290,63,cs)
);
}
);
vertWidth = 0;
width = 615;
},
{
layerId = "6E6EE38D-3D27-4929-8DEE-9F0163F8D5EF";
shapes = (
{
closed = 1;
nodes = (
(577,-240,l),
(577,553,l),
(412,553,l),
(398,485,l),
(394,485,l),
(365,529,o),
(320,563,o),
(243,563,cs),
(124,563,o),
(42,463,o),
(42,276,cs),
(42,89,o),
(122,-10,o),
(240,-10,cs),
(316,-10,o),
(360,26,o),
(386,70,c),
(392,70,l),
(388,43,o),
(386,16,o),
(386,-11,cs),
(386,-240,l)
);
},
{
closed = 1;
nodes = (
(262,138,o),
(236,177,o),
(236,273,cs),
(236,366,o),
(262,415,o),
(315,415,cs),
(383,415,o),
(401,365,o),
(401,279,cs),
(401,256,ls),
(401,177,o),
(380,138,o),
(318,138,cs)
);
}
);
vertWidth = 0;
width = 643;
}
);
unicode = 113;
}
{
glyphname = r;
kernLeft = n.right;
kernRight = r.left;
layers = (
{
anchors = (
{
name = center;
pos = (225,0);
}
);
layerId = "24810176-774E-47FD-8B80-D284CD1191FD";
shapes = (
{
closed = 1;
nodes = (
(117,0,l),
(117,297,ls),
(117,428,o),
(167,511,o),
(278,511,cs),
(308,511,o),
(328,508,o),
(353,501,c),
(359,525,l),
(335,532,o),
(310,536,o),
(278,536,cs),
(193,536,o),
(138,488,o),
(119,427,c),
(117,427,l),
(115,528,l),
(91,528,l),
(91,0,l)
);
}
);
vertWidth = 0;
width = 375;
},
{
anchors = (
{
name = center;
pos = (241,0);
}
);
layerId = "F394B0DB-5C84-43F6-ACB2-AE9DD557A8AE";
shapes = (
{
closed = 1;
nodes = (
(173,0,l),
(173,286,ls),
(173,394,o),
(246,466,o),
(329,466,cs),
(347,466,o),
(370,463,o),
(387,459,c),
(398,540,l),
(380,544,o),
(355,546,o),
(335,546,cs),
(260,546,o),
(205,497,o),
(171,438,c),
(167,438,l),
(157,536,l),
(85,536,l),
(85,0,l)
);
}
);
vertWidth = 0;
width = 413;
},
{
anchors = (
{
name = center;
pos = (262,0);
}
);
layerId = "6E6EE38D-3D27-4929-8DEE-9F0163F8D5EF";
shapes = (
{
closed = 1;
nodes = (
(257,0,l),
(257,272,ls),
(257,372,o),
(328,383,o),
(376,383,cs),
(411,383,o),
(428,380,o),
(441,377,c),
(458,557,l),
(447,559,o),
(421,563,o),
(400,563,cs),
(337,563,o),
(277,519,o),
(247,465,c),
(238,465,l),
(208,553,l),
(66,553,l),
(66,0,l)
);
}
);
vertWidth = 0;
width = 469;
}
);
unicode = 114;
}
{
glyphname = s;
kernLeft = s.right;
layers = (
{
anchors = (
{
name = center;
pos = (225,0);
}
);
layerId = "24810176-774E-47FD-8B80-D284CD1191FD";
shapes = (
{
closed = 1;
nodes = (
(345,-10,o),
(411,45,o),
(411,134,cs),
(411,235,o),
(321,258,o),
(233,286,cs),
(152,312,o),
(83,325,o),
(83,407,cs),
(83,478,o),
(142,513,o),
(238,513,cs),
(291,513,o),
(350,501,o),
(387,483,c),
(398,508,l),
(356,525,o),
(301,538,o),
(238,538,cs),
(126,538,o),
(56,489,o),
(56,407,cs),
(56,309,o),
(131,290,o),
(224,262,cs),
(312,236,o),
(384,212,o),
(384,134,cs),
(384,60,o),
(334,15,o),
(213,15,cs),
(151,15,o),
(92,28,o),
(39,54,c),
(39,24,l),
(77,7,o),
(140,-10,o),
(213,-10,cs)
);
}
);
vertWidth = 0;
width = 458;
},
{
anchors = (
{
name = center;
pos = (242,0);
}
);
layerId = "F394B0DB-5C84-43F6-ACB2-AE9DD557A8AE";
shapes = (
{
closed = 1;
nodes = (
(351,-10,o),
(434,44,o),
(434,148,cs),
(434,234,o),
(374,269,o),
(273,307,cs),
(170,346,o),
(135,364,o),
(135,409,cs),
(135,449,o),
(174,474,o),
(246,474,cs),
(298,474,o),
(348,459,o),
(393,440,c),
(423,510,l),
(373,532,o),
(317,546,o),
(252,546,cs),
(132,546,o),
(51,495,o),
(51,404,cs),
(51,316,o),
(113,284,o),
(217,244,cs),
(322,204,o),
(349,180,o),
(349,140,cs),
(349,92,o),
(311,61,o),
(222,61,cs),
(159,61,o),
(94,83,o),
(52,104,c),
(52,24,l),
(93,2,o),
(145,-10,o),
(220,-10,cs)
);
}
);
vertWidth = 0;
width = 479;
},
{
anchors = (
{
name = center;
pos = (259,0);
}
);
layerId = "6E6EE38D-3D27-4929-8DEE-9F0163F8D5EF";
shapes = (
{
closed = 1;
nodes = (
(411,-10,o),
(477,65,o),
(477,170,cs),
(477,267,o),
(431,307,o),
(335,346,cs),
(243,383,o),
(224,390,o),
(224,411,cs),
(224,426,o),
(241,434,o),
(271,434,cs),
(304,434,o),
(366,418,o),
(421,393,c),
(473,516,l),
(404,547,o),
(343,563,o),
(270,563,cs),
(133,563,o),
(42,508,o),
(42,400,cs),
(42,309,o),
(87,266,o),
(179,228,cs),
(272,190,o),
(297,181,o),
(297,157,cs),
(297,138,o),
(278,129,o),
(235,129,cs),
(193,129,o),
(113,142,o),
(43,174,c),
(43,21,l),
(107,-3,o),
(164,-10,o),
(243,-10,cs)
);
}
);
vertWidth = 0;
width = 517;
}
);
unicode = 115;
}
{
glyphname = t;
kernLeft = t.right;
kernRight = t.left;
layers = (
{
layerId = "24810176-774E-47FD-8B80-D284CD1191FD";
shapes = (
{
closed = 1;
nodes = (
(247,-10,o),
(269,-4,o),
(291,3,c),
(291,28,l),
(269,20,o),
(245,15,o),
(212,15,cs),
(138,15,o),
(117,61,o),
(117,143,cs),
(117,503,l),
(289,503,l),
(289,528,l),
(117,528,l),
(117,659,l),
(96,659,l),
(90,528,l),
(10,525,l),
(10,503,l),
(91,503,l),
(91,140,ls),
(91,47,o),
(119,-10,o),
(212,-10,cs)
);
}
);
vertWidth = 0;
width = 319;
},
{
layerId = "F394B0DB-5C84-43F6-ACB2-AE9DD557A8AE";
shapes = (
{
closed = 1;
nodes = (
(281,-10,o),
(320,-3,o),
(339,6,c),
(339,73,l),
(322,67,o),
(290,62,o),
(264,62,cs),
(215,62,o),
(180,93,o),
(180,158,cs),
(180,468,l),
(335,468,l),
(335,536,l),
(180,536,l),
(180,659,l),
(128,659,l),
(93,545,l),
(16,510,l),
(16,468,l),
(92,468,l),
(92,156,ls),
(92,26,o),
(165,-10,o),
(249,-10,cs)
);
}
);
vertWidth = 0;
width = 361;
},
{
layerId = "6E6EE38D-3D27-4929-8DEE-9F0163F8D5EF";
shapes = (
{
closed = 1;
nodes = (
(346,-10,o),
(387,3,o),
(429,21,c),
(429,160,l),
(398,149,o),
(371,141,o),
(337,141,cs),
(304,141,o),
(285,159,o),
(285,195,cs),
(285,410,l),
(421,410,l),
(421,553,l),
(285,553,l),
(285,664,l),
(160,664,l),
(111,548,l),
(26,488,l),
(26,410,l),
(93,410,l),
(93,182,ls),
(93,32,o),
(166,-10,o),
(274,-10,cs)
);
}
);
vertWidth = 0;
width = 460;
}
);
unicode = 116;
}
{
glyphname = u;
kernLeft = n.right;
layers = (
{
layerId = "24810176-774E-47FD-8B80-D284CD1191FD";
shapes = (
{
closed = 1;
nodes = (
(374,-10,o),
(431,50,o),
(454,111,c),
(456,111,l),
(460,0,l),
(481,0,l),
(481,528,l),
(455,528,l),
(455,226,ls),
(455,82,o),
(377,15,o),
(262,15,cs),
(163,15,o),
(108,68,o),
(108,186,cs),
(108,528,l),
(82,528,l),
(82,182,ls),
(82,57,o),
(144,-10,o),
(262,-10,cs)
);
}
);
vertWidth = 0;
width = 573;
},
{
layerId = "F394B0DB-5C84-43F6-ACB2-AE9DD557A8AE";
shapes = (
{
closed = 1;
nodes = (
(343,-10,o),
(409,15,o),
(444,71,c),
(448,71,l),
(461,0,l),
(533,0,l),
(533,536,l),
(445,536,l),
(445,257,ls),
(445,132,o),
(406,63,o),
(287,63,cs),
(206,63,o),
(168,105,o),
(168,191,cs),
(168,536,l),
(79,536,l),
(79,185,ls),
(79,49,o),
(145,-10,o),
(274,-10,cs)
);
}
);
vertWidth = 0;
width = 618;
},
{
layerId = "6E6EE38D-3D27-4929-8DEE-9F0163F8D5EF";
shapes = (
{
closed = 1;
nodes = (
(326,-10,o),
(390,13,o),
(425,69,c),
(436,69,l),
(460,0,l),
(604,0,l),
(604,553,l),
(413,553,l),
(413,311,ls),
(413,201,o),
(394,141,o),
(322,141,cs),
(275,141,o),
(256,179,o),
(256,251,cs),
(256,553,l),
(65,553,l),
(65,193,ls),
(65,51,o),
(149,-10,o),
(258,-10,cs)
);
}
);
vertWidth = 0;
width = 670;
}
);
unicode = 117;
}
{
glyphname = v;
kernLeft = v.right;
kernRight = v.left;
layers = (
{
anchors = (
{
name = center;
pos = (215,0);
}
);
layerId = "24810176-774E-47FD-8B80-D284CD1191FD";
shapes = (
{
closed = 1;
nodes = (
(226,0,l),
(430,528,l),
(403,528,l),
(253,138,ls),
(236,95,o),
(228,69,o),
(216,36,c),
(214,36,l),
(203,69,o),
(194,95,o),
(177,138,cs),
(27,528,l),
(0,528,l),
(204,0,l)
);
}
);
vertWidth = 0;
width = 430;
},
{
anchors = (
{
name = center;
pos = (254,0);
}
);
layerId = "F394B0DB-5C84-43F6-ACB2-AE9DD557A8AE";
shapes = (
{
closed = 1;
nodes = (
(304,0,l),
(508,536,l),
(414,536,l),
(300,220,ls),
(285,177,o),
(262,111,o),
(255,78,c),
(251,78,l),
(245,111,o),
(224,176,o),
(208,220,cs),
(94,536,l),
(0,536,l),
(203,0,l)
);
}
);
vertWidth = 0;
width = 508;
},
{
anchors = (
{
name = center;
pos = (305,0);
}
);
layerId = "6E6EE38D-3D27-4929-8DEE-9F0163F8D5EF";
shapes = (
{
closed = 1;
nodes = (
(400,0,l),
(611,553,l),
(412,553,l),
(314,225,ls),
(311,214,o),
(305,192,o),
(305,170,c),
(302,170,l),
(302,191,o),
(295,220,o),
(293,226,cs),
(199,553,l),
(0,553,l),
(211,0,l)
);
}
);
vertWidth = 0;
width = 611;
}
);
unicode = 118;
}
{
glyphname = w;
kernLeft = v.right;
kernRight = v.left;
layers = (
{
layerId = "24810176-774E-47FD-8B80-D284CD1191FD";
shapes = (
{
closed = 1;
nodes = (
(191,-1,l),
(320,388,ls),
(331,420,o),
(339,446,o),
(349,482,c),
(351,482,l),
(361,446,o),
(369,423,o),
(380,388,cs),
(506,-1,l),
(528,-1,l),
(669,527,l),
(643,527,l),
(544,156,ls),
(529,99,o),
(521,72,o),
(517,41,c),
(515,41,l),
(507,72,o),
(497,106,o),
(481,157,cs),
(362,527,l),
(341,527,l),
(216,156,ls),
(196,95,o),
(190,72,o),
(182,41,c),
(180,41,l),
(173,72,o),
(167,95,o),
(150,156,cs),
(45,527,l),
(16,527,l),
(169,-1,l)
);
}
);
vertWidth = 0;
width = 685;
},
{
layerId = "F394B0DB-5C84-43F6-ACB2-AE9DD557A8AE";
shapes = (
{
closed = 1;
nodes = (
(258,1,l),
(354,302,ls),
(372,358,o),
(385,415,o),
(390,445,c),
(394,445,l),
(400,415,o),
(414,358,o),
(431,303,cs),
(523,1,l),
(626,1,l),
(775,537,l),
(685,537,l),
(610,251,ls),
(594,190,o),
(578,125,o),
(574,92,c),
(570,92,l),
(565,130,o),
(548,189,o),
(534,235,cs),
(442,537,l),
(346,537,l),
(251,235,ls),
(237,191,o),
(222,124,o),
(215,91,c),
(211,91,l),
(206,129,o),
(191,193,o),
(176,251,cs),
(102,537,l),
(11,537,l),
(158,1,l)
);
}
);
vertWidth = 0;
width = 786;
},
{
layerId = "6E6EE38D-3D27-4929-8DEE-9F0163F8D5EF";
shapes = (
{
closed = 1;
nodes = (
(364,0,l),
(420,235,ls),
(434,292,o),
(448,377,o),
(452,407,c),
(455,407,l),
(459,377,o),
(472,292,o),
(484,242,cs),
(542,0,l),
(746,0,l),
(898,553,l),
(714,553,l),
(665,341,ls),
(655,298,o),
(644,213,o),
(640,159,c),
(637,159,l),
(632,211,o),
(617,289,o),
(609,327,cs),
(562,553,l),
(351,553,l),
(300,330,ls),
(296,311,o),
(276,212,o),
(273,159,c),
(270,159,l),
(267,212,o),
(255,294,o),
(245,341,cs),
(200,553,l),
(12,553,l),
(163,0,l)
);
}
);
vertWidth = 0;
width = 910;
}
);
unicode = 119;
}
{
glyphname = x;
kernLeft = v.right;
kernRight = k.left;
layers = (
{
anchors = (
{
name = center;
pos = (237,0);
}
);
layerId = "24810176-774E-47FD-8B80-D284CD1191FD";
shapes = (
{
closed = 1;
nodes = (
(57,0,l),
(236,253,l),
(417,0,l),
(449,0,l),
(254,272,l),
(437,528,l),
(405,528,l),
(236,290,l),
(67,528,l),
(34,528,l),
(219,272,l),
(26,0,l)
);
}
);
vertWidth = 0;
width = 479;
},
{
anchors = (
{
name = center;
pos = (264,0);
}
);
layerId = "F394B0DB-5C84-43F6-ACB2-AE9DD557A8AE";
shapes = (
{
closed = 1;
nodes = (
(117,0,l),
(265,214,l),
(411,0,l),
(511,0,l),
(316,274,l),
(501,536,l),
(402,536,l),
(265,334,l),
(127,536,l),
(27,536,l),
(212,274,l),
(18,0,l)
);
}
);
vertWidth = 0;
width = 529;
},
{
anchors = (
{
name = center;
pos = (315,0);
}
);
layerId = "6E6EE38D-3D27-4929-8DEE-9F0163F8D5EF";
shapes = (
{
closed = 1;
nodes = (
(222,0,l),
(315,168,l),
(408,0,l),
(625,0,l),
(445,282,l),
(618,553,l),
(401,553,l),
(315,398,l),
(231,553,l),
(14,553,l),
(183,282,l),
(5,0,l)
);
}
);
vertWidth = 0;
width = 630;
}
);
unicode = 120;
}
{
glyphname = y;
kernLeft = v.right;
kernRight = v.left;
layers = (
{
anchors = (
{
name = center;
pos = (212,0);
}
);
layerId = "24810176-774E-47FD-8B80-D284CD1191FD";
shapes = (
{
closed = 1;
nodes = (
(113,-243,o),
(147,-202,o),
(181,-115,cs),
(430,528,l),
(403,528,l),
(264,168,ls),
(241,108,o),
(226,66,o),
(216,37,c),
(214,37,l),
(204,65,o),
(189,108,o),
(164,172,cs),
(27,528,l),
(0,528,l),
(201,6,l),
(160,-102,ls),
(128,-187,o),
(99,-218,o),
(48,-218,cs),
(27,-218,o),
(13,-214,o),
(-6,-207,c),
(-6,-233,l),
(13,-240,o),
(29,-243,o),
(48,-243,cs)
);
}
);
vertWidth = 0;
width = 428;
},
{
anchors = (
{
name = center;
pos = (255,0);
}
);
layerId = "F394B0DB-5C84-43F6-ACB2-AE9DD557A8AE";
shapes = (
{
closed = 1;
nodes = (
(188,-240,o),
(241,-175,o),
(279,-74,cs),
(510,536,l),
(415,536,l),
(306,232,ls),
(286,177,o),
(268,118,o),
(260,85,c),
(256,85,l),
(248,129,o),
(231,177,o),
(211,231,cs),
(95,536,l),
(1,536,l),
(217,-2,l),
(189,-73,ls),
(166,-131,o),
(131,-168,o),
(70,-168,cs),
(47,-168,o),
(25,-165,o),
(11,-162,c),
(11,-232,l),
(28,-236,o),
(52,-240,o),
(84,-240,cs)
);
}
);
vertWidth = 0;
width = 510;
},
{
anchors = (
{
name = center;
pos = (304,0);
}
);
layerId = "6E6EE38D-3D27-4929-8DEE-9F0163F8D5EF";
shapes = (
{
closed = 1;
nodes = (
(273,-240,o),
(341,-170,o),
(391,-35,cs),
(610,553,l),
(415,553,l),
(319,235,ls),
(315,222,o),
(310,202,o),
(307,176,c),
(303,176,l),
(302,197,o),
(298,222,o),
(294,236,cs),
(200,553,l),
(-1,553,l),
(217,8,l),
(215,3,ls),
(196,-45,o),
(172,-88,o),
(109,-88,cs),
(86,-88,o),
(64,-85,o),
(50,-82,c),
(50,-232,l),
(69,-236,o),
(93,-240,o),
(128,-240,cs)
);
}
);
vertWidth = 0;
width = 610;
}
);
unicode = 121;
}
{
glyphname = z;
kernLeft = z.right;
layers = (
{
layerId = "24810176-774E-47FD-8B80-D284CD1191FD";
shapes = (
{
closed = 1;
nodes = (
(412,0,l),
(412,25,l),
(77,25,l),
(415,513,l),
(415,528,l),
(68,528,l),
(68,503,l),
(377,503,l),
(41,17,l),
(41,0,l)
);
}
);
vertWidth = 0;
width = 456;
},
{
layerId = "F394B0DB-5C84-43F6-ACB2-AE9DD557A8AE";
shapes = (
{
closed = 1;
nodes = (
(431,0,l),
(431,68,l),
(140,68,l),
(424,470,l),
(424,536,l),
(56,536,l),
(56,468,l),
(327,468,l),
(39,58,l),
(39,0,l)
);
}
);
vertWidth = 0;
width = 470;
},
{
layerId = "6E6EE38D-3D27-4929-8DEE-9F0163F8D5EF";
shapes = (
{
closed = 1;
nodes = (
(482,0,l),
(482,146,l),
(252,146,l),
(471,435,l),
(471,553,l),
(37,553,l),
(37,407,l),
(253,407,l),
(24,109,l),
(24,0,l)
);
}
);
vertWidth = 0;
width = 507;
}
);
unicode = 122;
}
{
category = Mark;
glyphname = enclosingcirclecomb;
layers = (
{
anchors = (
{
name = _center;
pos = (-650,0);
}
);
layerId = "24810176-774E-47FD-8B80-D284CD1191FD";
shapes = (
{
closed = 1;
nodes = (
(-291,-292,o),
(0,-1,o),
(0,358,cs),
(0,717,o),
(-291,1008,o),
(-650,1008,cs),
(-1009,1008,o),
(-1300,717,o),
(-1300,358,cs),
(-1300,-1,o),
(-1009,-292,o),
(-650,-292,cs)
);
},
{
closed = 1;
nodes = (
(-995,-266,o),
(-1274,13,o),
(-1274,358,cs),
(-1274,703,o),
(-995,982,o),
(-650,982,cs),
(-305,982,o),
(-26,703,o),
(-26,358,cs),
(-26,13,o),
(-305,-266,o),
(-650,-266,cs)
);
}
);
vertWidth = 0;
width = 0;
},
{
anchors = (
{
name = _center;
pos = (-650,0);
}
);
layerId = "F394B0DB-5C84-43F6-ACB2-AE9DD557A8AE";
shapes = (
{
closed = 1;
nodes = (
(-291,-292,o),
(0,-1,o),
(0,358,cs),
(0,717,o),
(-291,1008,o),
(-650,1008,cs),
(-1009,1008,o),
(-1300,717,o),
(-1300,358,cs),
(-1300,-1,o),
(-1009,-292,o),
(-650,-292,cs)
);
},
{
closed = 1;
nodes = (
(-975,-230,o),
(-1238,33,o),
(-1238,358,cs),
(-1238,683,o),
(-975,946,o),
(-650,946,cs),
(-325,946,o),
(-62,683,o),
(-62,358,cs),
(-62,33,o),
(-325,-230,o),
(-650,-230,cs)
);
}
);
vertWidth = 0;
width = 0;
},
{
anchors = (
{
name = _center;
pos = (-650,0);
}
);
layerId = "6E6EE38D-3D27-4929-8DEE-9F0163F8D5EF";
shapes = (
{
closed = 1;
nodes = (
(-291,-292,o),
(0,-1,o),
(0,358,cs),
(0,717,o),
(-291,1008,o),
(-650,1008,cs),
(-1009,1008,o),
(-1300,717,o),
(-1300,358,cs),
(-1300,-1,o),
(-1009,-292,o),
(-650,-292,cs)
);
},
{
closed = 1;
nodes = (
(-924,-138,o),
(-1146,84,o),
(-1146,358,cs),
(-1146,632,o),
(-924,854,o),
(-650,854,cs),
(-376,854,o),
(-154,632,o),
(-154,358,cs),
(-154,84,o),
(-373,-138,o),
(-650,-138,cs)
);
}
);
vertWidth = 0;
width = 0;
}
);
note = uni20DD;
subCategory = Nonspacing;
unicode = 8413;
}
{
glyphname = enclosingsquarecomb;
layers = (
{
layerId = "24810176-774E-47FD-8B80-D284CD1191FD";
shapes = (
{
closed = 1;
nodes = (
(660,-292,l),
(660,1028,l),
(-660,1028,l),
(-660,-292,l)
);
},
{
closed = 1;
nodes = (
(-634,1002,l),
(634,1002,l),
(634,-266,l),
(-634,-266,l)
);
}
);
vertWidth = 0;
width = 0;
},
{
layerId = "F394B0DB-5C84-43F6-ACB2-AE9DD557A8AE";
shapes = (
{
closed = 1;
nodes = (
(660,-292,l),
(660,1028,l),
(-660,1028,l),
(-660,-292,l)
);
},
{
closed = 1;
nodes = (
(-598,966,l),
(598,966,l),
(598,-230,l),
(-598,-230,l)
);
}
);
vertWidth = 0;
width = 0;
},
{
layerId = "6E6EE38D-3D27-4929-8DEE-9F0163F8D5EF";
shapes = (
{
closed = 1;
nodes = (
(660,-292,l),
(660,1028,l),
(-660,1028,l),
(-660,-292,l)
);
},
{
closed = 1;
nodes = (
(-506,874,l),
(506,874,l),
(506,-138,l),
(-506,-138,l)
);
}
);
vertWidth = 0;
width = 0;
}
);
note = uni20DE;
production = uni20DE;
unicode = 8414;
}
{
glyphname = enclosingdiamondcomb;
layers = (
{
layerId = "24810176-774E-47FD-8B80-D284CD1191FD";
shapes = (
{
closed = 1;
nodes = (
(914,368,l),
(0,1301,l),
(-914,368,l),
(0,-565,l)
);
},
{
closed = 1;
nodes = (
(-877,368,l),
(0,1264,l),
(877,368,l),
(0,-528,l)
);
}
);
vertWidth = 0;
width = 0;
},
{
layerId = "F394B0DB-5C84-43F6-ACB2-AE9DD557A8AE";
shapes = (
{
closed = 1;
nodes = (
(914,368,l),
(0,1301,l),
(-914,368,l),
(0,-565,l)
);
},
{
closed = 1;
nodes = (
(-826,368,l),
(0,1212,l),
(826,368,l),
(0,-476,l)
);
}
);
vertWidth = 0;
width = 0;
},
{
layerId = "6E6EE38D-3D27-4929-8DEE-9F0163F8D5EF";
shapes = (
{
closed = 1;
nodes = (
(914,368,l),
(0,1301,l),
(-914,368,l),
(0,-565,l)
);
},
{
closed = 1;
nodes = (
(-706,368,l),
(0,1093,l),
(706,368,l),
(0,-357,l)
);
}
);
vertWidth = 0;
width = 0;
}
);
note = uni20DF;
production = uni20DF;
unicode = 8415;
}
{
category = Mark;
glyphname = enclosingscreencomb;
layers = (
{
anchors = (
{
name = _center;
}
);
layerId = "24810176-774E-47FD-8B80-D284CD1191FD";
shapes = (
{
closed = 1;
nodes = (
(387,-293,o),
(782,-257,o),
(975,-208,c),
(1043,2,o),
(1067,154,o),
(1067,387,cs),
(1067,620,o),
(1043,773,o),
(975,984,c),
(782,1033,o),
(385,1069,o),
(-2,1069,cs),
(-389,1069,o),
(-784,1033,o),
(-977,984,c),
(-1042,777,o),
(-1067,615,o),
(-1067,387,cs),
(-1067,169,o),
(-1043,16,o),
(-977,-208,c),
(-789,-257,o),
(-390,-293,o),
(-1,-293,cs)
);
},
{
closed = 1;
nodes = (
(-356,-267,o),
(-794,-228,o),
(-954,-187,c),
(-1004,-59,o),
(-1041,149,o),
(-1041,387,cs),
(-1041,631,o),
(-1006,822,o),
(-954,962,c),
(-760,1005,o),
(-354,1043,o),
(-1,1043,cs),
(360,1043,o),
(763,1005,o),
(955,962,c),
(1010,795,o),
(1041,608,o),
(1041,387,cs),
(1041,153,o),
(1006,-38,o),
(955,-187,c),
(792,-227,o),
(360,-267,o),
(-1,-267,cs)
);
}
);
vertWidth = 0;
width = 0;
},
{
anchors = (
{
name = _center;
}
);
layerId = "F394B0DB-5C84-43F6-ACB2-AE9DD557A8AE";
shapes = (
{
closed = 1;
nodes = (
(387,-293,o),
(782,-257,o),
(975,-208,c),
(1043,2,o),
(1067,154,o),
(1067,387,cs),
(1067,620,o),
(1043,773,o),
(975,984,c),
(782,1033,o),
(385,1069,o),
(-2,1069,cs),
(-389,1069,o),
(-784,1033,o),
(-977,984,c),
(-1042,777,o),
(-1067,615,o),
(-1067,387,cs),
(-1067,160,o),
(-1043,2,o),
(-977,-208,c),
(-789,-257,o),
(-390,-293,o),
(-1,-293,cs)
);
},
{
closed = 1;
nodes = (
(-344,-231,o),
(-776,-193,o),
(-930,-155,c),
(-977,-34,o),
(-1005,163,o),
(-1005,387,cs),
(-1005,618,o),
(-979,799,o),
(-930,931,c),
(-743,973,o),
(-341,1007,o),
(-1,1007,cs),
(347,1007,o),
(747,973,o),
(931,931,c),
(983,773,o),
(1005,596,o),
(1005,387,cs),
(1005,166,o),
(980,-15,o),
(931,-155,c),
(774,-193,o),
(347,-231,o),
(-1,-231,cs)
);
}
);
vertWidth = 0;
width = 0;
},
{
anchors = (
{
name = _center;
}
);
layerId = "6E6EE38D-3D27-4929-8DEE-9F0163F8D5EF";
shapes = (
{
closed = 1;
nodes = (
(387,-293,o),
(782,-257,o),
(975,-208,c),
(1043,2,o),
(1067,154,o),
(1067,387,cs),
(1067,620,o),
(1043,773,o),
(975,984,c),
(782,1033,o),
(385,1069,o),
(-2,1069,cs),
(-389,1069,o),
(-784,1033,o),
(-977,984,c),
(-1042,777,o),
(-1067,615,o),
(-1067,387,cs),
(-1067,169,o),
(-1043,16,o),
(-977,-208,c),
(-789,-257,o),
(-390,-293,o),
(-1,-293,cs)
);
},
{
closed = 1;
nodes = (
(-320,-139,o),
(-713,-108,o),
(-856,-75,c),
(-889,28,o),
(-913,196,o),
(-913,387,cs),
(-913,584,o),
(-890,737,o),
(-856,850,c),
(-682,884,o),
(-318,915,o),
(-1,915,cs),
(323,915,o),
(685,884,o),
(857,850,c),
(893,715,o),
(913,565,o),
(913,387,cs),
(913,199,o),
(890,45,o),
(857,-75,c),
(711,-107,o),
(323,-139,o),
(-1,-139,cs)
);
}
);
vertWidth = 0;
width = 0;
}
);
note = uni20E2;
subCategory = Nonspacing;
unicode = 8418;
}
{
category = Mark;
glyphname = enclosingkeycapcomb;
layers = (
{
anchors = (
{
name = _center;
}
);
layerId = "24810176-774E-47FD-8B80-D284CD1191FD";
shapes = (
{
closed = 1;
nodes = (
(336,-10,ls),
(388,-10,o),
(422,24,o),
(422,76,cs),
(422,746,ls),
(422,798,o),
(388,832,o),
(336,832,cs),
(-335,832,ls),
(-387,832,o),
(-422,798,o),
(-422,746,cs),
(-422,76,ls),
(-422,24,o),
(-387,-10,o),
(-335,-10,cs)
);
},
{
closed = 1;
nodes = (
(-285,76,o),
(-308,98,o),
(-308,155,cs),
(-308,666,ls),
(-308,723,o),
(-286,746,o),
(-228,746,cs),
(230,746,ls),
(288,746,o),
(309,725,o),
(309,666,cs),
(309,155,ls),
(309,96,o),
(289,76,o),
(230,76,cs),
(-228,76,ls)
);
},
{
closed = 1;
nodes = (
(346,78,l),
(346,680,ls),
(346,759,o),
(328,779,o),
(249,779,cs),
(-319,779,l),
(-358,812,l),
(327,812,ls),
(374,812,o),
(401,779,o),
(401,733,cs),
(401,51,l)
);
}
);
vertWidth = 0;
width = 0;
},
{
anchors = (
{
name = _center;
}
);
layerId = "F394B0DB-5C84-43F6-ACB2-AE9DD557A8AE";
shapes = (
{
closed = 1;
nodes = (
(336,-10,ls),
(388,-10,o),
(422,24,o),
(422,76,cs),
(422,746,ls),
(422,798,o),
(388,832,o),
(336,832,cs),
(-335,832,ls),
(-387,832,o),
(-422,798,o),
(-422,746,cs),
(-422,76,ls),
(-422,24,o),
(-387,-10,o),
(-335,-10,cs)
);
},
{
closed = 1;
nodes = (
(-246,122,o),
(-265,141,o),
(-265,190,cs),
(-265,631,ls),
(-265,680,o),
(-246,700,o),
(-197,700,cs),
(198,700,ls),
(249,700,o),
(266,682,o),
(266,631,cs),
(266,190,ls),
(266,139,o),
(249,122,o),
(198,122,cs),
(-197,122,ls)
);
},
{
closed = 1;
nodes = (
(314,93,l),
(314,678,ls),
(314,725,o),
(292,748,o),
(247,748,cs),
(-282,748,l),
(-355,808,l),
(327,808,ls),
(370,808,o),
(398,776,o),
(398,733,cs),
(398,52,l)
);
}
);
vertWidth = 0;
width = 0;
},
{
anchors = (
{
name = _center;
}
);
layerId = "6E6EE38D-3D27-4929-8DEE-9F0163F8D5EF";
shapes = (
{
closed = 1;
nodes = (
(389,-76,ls),
(449,-76,o),
(488,-37,o),
(488,23,cs),
(488,799,ls),
(488,859,o),
(449,898,o),
(389,898,cs),
(-388,898,ls),
(-448,898,o),
(-488,859,o),
(-488,799,cs),
(-488,23,ls),
(-488,-37,o),
(-448,-76,o),
(-388,-76,cs)
);
},
{
closed = 1;
nodes = (
(-234,136,o),
(-252,154,o),
(-252,201,cs),
(-252,621,ls),
(-252,667,o),
(-234,687,o),
(-188,687,cs),
(189,687,ls),
(237,687,o),
(253,669,o),
(253,621,cs),
(253,201,ls),
(253,152,o),
(237,136,o),
(189,136,cs),
(-188,136,ls)
);
},
{
closed = 1;
nodes = (
(314,93,l),
(314,678,ls),
(314,725,o),
(292,748,o),
(247,748,cs),
(-282,748,l),
(-399,846,l),
(361,846,ls),
(406,846,o),
(436,812,o),
(436,767,cs),
(436,34,l)
);
}
);
vertWidth = 0;
width = 0;
}
);
note = uni20E3;
subCategory = Nonspacing;
unicode = 8419;
}
{
category = Mark;
glyphname = enclosingupwardpointingtrianglecomb;
layers = (
{
anchors = (
{
name = _center;
}
);
layerId = "24810176-774E-47FD-8B80-D284CD1191FD";
shapes = (
{
closed = 1;
nodes = (
(963,-193,l),
(0,1471,l),
(-963,-193,l)
);
},
{
closed = 1;
nodes = (
(0,1420,l),
(916,-167,l),
(-916,-167,l)
);
}
);
vertWidth = 0;
width = 0;
},
{
anchors = (
{
name = _center;
}
);
layerId = "F394B0DB-5C84-43F6-ACB2-AE9DD557A8AE";
shapes = (
{
closed = 1;
nodes = (
(963,-193,l),
(0,1471,l),
(-963,-193,l)
);
},
{
closed = 1;
nodes = (
(0,1349,l),
(855,-131,l),
(-855,-131,l)
);
}
);
vertWidth = 0;
width = 0;
},
{
anchors = (
{
name = _center;
}
);
layerId = "6E6EE38D-3D27-4929-8DEE-9F0163F8D5EF";
shapes = (
{
closed = 1;
nodes = (
(963,-193,l),
(0,1471,l),
(-963,-193,l)
);
},
{
closed = 1;
nodes = (
(0,1182,l),
(710,-47,l),
(-710,-47,l)
);
}
);
vertWidth = 0;
width = 0;
}
);
note = uni20E4;
subCategory = Nonspacing;
unicode = 8420;
}
{
glyphname = "One-roman";
layers = (
{
layerId = "24810176-774E-47FD-8B80-D284CD1191FD";
shapes = (
{
closed = 1;
nodes = (
(185,0,l),
(185,20,l),
(116,23,l),
(116,695,l),
(185,699,l),
(185,719,l),
(21,719,l),
(21,699,l),
(90,695,l),
(90,23,l),
(21,20,l),
(21,0,l)
);
}
);
vertWidth = 0;
width = 206;
},
{
layerId = "F394B0DB-5C84-43F6-ACB2-AE9DD557A8AE";
shapes = (
{
closed = 1;
nodes = (
(298,0,l),
(298,52,l),
(214,71,l),
(214,642,l),
(298,662,l),
(298,714,l),
(40,714,l),
(40,662,l),
(124,642,l),
(124,71,l),
(40,52,l),
(40,0,l)
);
}
);
vertWidth = 0;
width = 339;
},
{
layerId = "6E6EE38D-3D27-4929-8DEE-9F0163F8D5EF";
shapes = (
{
closed = 1;
nodes = (
(406,0,l),
(406,110,l),
(317,144,l),
(317,571,l),
(406,604,l),
(406,714,l),
(34,714,l),
(34,604,l),
(123,571,l),
(123,144,l),
(34,110,l),
(34,0,l)
);
}
);
vertWidth = 0;
width = 440;
}
);
production = uni2160;
unicode = 8544;
}
{
glyphname = "Two-roman";
layers = (
{
layerId = "24810176-774E-47FD-8B80-D284CD1191FD";
shapes = (
{
closed = 1;
nodes = (
(185,0,l),
(185,20,l),
(116,23,l),
(116,695,l),
(185,699,l),
(185,719,l),
(21,719,l),
(21,699,l),
(90,695,l),
(90,23,l),
(21,20,l),
(21,0,l)
);
},
{
closed = 1;
nodes = (
(374,0,l),
(374,20,l),
(306,23,l),
(306,695,l),
(374,699,l),
(374,719,l),
(211,719,l),
(211,699,l),
(279,695,l),
(279,23,l),
(211,20,l),
(211,0,l)
);
}
);
vertWidth = 0;
width = 395;
},
{
layerId = "F394B0DB-5C84-43F6-ACB2-AE9DD557A8AE";
shapes = (
{
closed = 1;
nodes = (
(298,0,l),
(298,52,l),
(214,71,l),
(214,642,l),
(298,662,l),
(298,714,l),
(40,714,l),
(40,662,l),
(124,642,l),
(124,71,l),
(40,52,l),
(40,0,l)
);
},
{
closed = 1;
nodes = (
(637,0,l),
(637,52,l),
(553,71,l),
(553,642,l),
(637,662,l),
(637,714,l),
(379,714,l),
(379,662,l),
(463,642,l),
(463,71,l),
(379,52,l),
(379,0,l)
);
}
);
vertWidth = 0;
width = 678;
},
{
layerId = "6E6EE38D-3D27-4929-8DEE-9F0163F8D5EF";
shapes = (
{
closed = 1;
nodes = (
(406,0,l),
(406,110,l),
(317,144,l),
(317,571,l),
(406,604,l),
(406,714,l),
(34,714,l),
(34,604,l),
(123,571,l),
(123,144,l),
(34,110,l),
(34,0,l)
);
},
{
closed = 1;
nodes = (
(846,0,l),
(846,110,l),
(757,144,l),
(757,571,l),
(846,604,l),
(846,714,l),
(474,714,l),
(474,604,l),
(563,571,l),
(563,144,l),
(474,110,l),
(474,0,l)
);
}
);
vertWidth = 0;
width = 880;
}
);
metricLeft = "One-roman";
metricRight = "One-roman";
production = uni2161;
unicode = 8545;
}
{
glyphname = "Three-roman";
layers = (
{
anchors = (
{
name = center;
pos = (292,0);
}
);
layerId = "24810176-774E-47FD-8B80-D284CD1191FD";
shapes = (
{
closed = 1;
nodes = (
(563,0,l),
(563,20,l),
(495,23,l),
(495,695,l),
(563,699,l),
(563,719,l),
(400,719,l),
(400,699,l),
(469,695,l),
(469,23,l),
(400,20,l),
(400,0,l)
);
},
{
closed = 1;
nodes = (
(185,0,l),
(185,20,l),
(116,23,l),
(116,695,l),
(185,699,l),
(185,719,l),
(21,719,l),
(21,699,l),
(90,695,l),
(90,23,l),
(21,20,l),
(21,0,l)
);
},
{
closed = 1;
nodes = (
(374,0,l),
(374,20,l),
(306,23,l),
(306,695,l),
(374,699,l),
(374,719,l),
(211,719,l),
(211,699,l),
(279,695,l),
(279,23,l),
(211,20,l),
(211,0,l)
);
}
);
vertWidth = 0;
width = 584;
},
{
anchors = (
{
name = center;
pos = (508,0);
}
);
layerId = "F394B0DB-5C84-43F6-ACB2-AE9DD557A8AE";
shapes = (
{
closed = 1;
nodes = (
(976,0,l),
(976,52,l),
(892,71,l),
(892,642,l),
(976,662,l),
(976,714,l),
(718,714,l),
(718,662,l),
(802,642,l),
(802,71,l),
(718,52,l),
(718,0,l)
);
},
{
closed = 1;
nodes = (
(298,0,l),
(298,52,l),
(214,71,l),
(214,642,l),
(298,662,l),
(298,714,l),
(40,714,l),
(40,662,l),
(124,642,l),
(124,71,l),
(40,52,l),
(40,0,l)
);
},
{
closed = 1;
nodes = (
(637,0,l),
(637,52,l),
(553,71,l),
(553,642,l),
(637,662,l),
(637,714,l),
(379,714,l),
(379,662,l),
(463,642,l),
(463,71,l),
(379,52,l),
(379,0,l)
);
}
);
vertWidth = 0;
width = 1017;
},
{
anchors = (
{
name = center;
pos = (660,0);
}
);
layerId = "6E6EE38D-3D27-4929-8DEE-9F0163F8D5EF";
shapes = (
{
closed = 1;
nodes = (
(1286,0,l),
(1286,110,l),
(1197,144,l),
(1197,571,l),
(1286,604,l),
(1286,714,l),
(914,714,l),
(914,604,l),
(1003,571,l),
(1003,144,l),
(914,110,l),
(914,0,l)
);
},
{
closed = 1;
nodes = (
(406,0,l),
(406,110,l),
(317,144,l),
(317,571,l),
(406,604,l),
(406,714,l),
(34,714,l),
(34,604,l),
(123,571,l),
(123,144,l),
(34,110,l),
(34,0,l)
);
},
{
closed = 1;
nodes = (
(846,0,l),
(846,110,l),
(757,144,l),
(757,571,l),
(846,604,l),
(846,714,l),
(474,714,l),
(474,604,l),
(563,571,l),
(563,144,l),
(474,110,l),
(474,0,l)
);
}
);
vertWidth = 0;
width = 1320;
}
);
metricLeft = "One-roman";
metricRight = "One-roman";
production = uni2162;
unicode = 8546;
}
{
glyphname = "Four-roman";
layers = (
{
anchors = (
{
name = center;
pos = (398,0);
}
);
layerId = "24810176-774E-47FD-8B80-D284CD1191FD";
shapes = (
{
closed = 1;
nodes = (
(505,0,l),
(776,719,l),
(748,719,l),
(531,144,ls),
(514,99,o),
(503,67,o),
(493,37,c),
(483,67,o),
(469,106,o),
(455,144,cs),
(237,719,l),
(209,719,l),
(480,0,l)
);
},
{
closed = 1;
nodes = (
(185,0,l),
(185,20,l),
(116,23,l),
(116,695,l),
(185,699,l),
(185,719,l),
(21,719,l),
(21,699,l),
(90,695,l),
(90,23,l),
(21,20,l),
(21,0,l)
);
}
);
vertWidth = 0;
width = 781;
},
{
anchors = (
{
name = center;
pos = (489,0);
}
);
layerId = "F394B0DB-5C84-43F6-ACB2-AE9DD557A8AE";
shapes = (
{
closed = 1;
nodes = (
(684,0,l),
(939,714,l),
(844,714,l),
(684,258,ls),
(663,198,o),
(648,147,o),
(639,100,c),
(629,147,o),
(615,197,o),
(594,256,cs),
(433,714,l),
(339,714,l),
(594,0,l)
);
},
{
closed = 1;
nodes = (
(298,0,l),
(298,52,l),
(214,71,l),
(214,642,l),
(298,662,l),
(298,714,l),
(40,714,l),
(40,662,l),
(124,642,l),
(124,71,l),
(40,52,l),
(40,0,l)
);
}
);
vertWidth = 0;
width = 939;
},
{
anchors = (
{
name = center;
pos = (584,0);
}
);
layerId = "6E6EE38D-3D27-4929-8DEE-9F0163F8D5EF";
shapes = (
{
closed = 1;
nodes = (
(900,0,l),
(1134,714,l),
(918,714,l),
(819,350,ls),
(808,309,o),
(791,224,o),
(787,184,c),
(784,224,o),
(765,311,o),
(754,352,cs),
(657,714,l),
(440,714,l),
(673,0,l)
);
},
{
closed = 1;
nodes = (
(406,0,l),
(406,110,l),
(317,144,l),
(317,571,l),
(406,604,l),
(406,714,l),
(34,714,l),
(34,604,l),
(123,571,l),
(123,144,l),
(34,110,l),
(34,0,l)
);
}
);
vertWidth = 0;
width = 1134;
}
);
metricLeft = "One-roman";
metricRight = "Five-roman";
production = uni2163;
unicode = 8547;
}
{
glyphname = "Five-roman";
layers = (
{
anchors = (
{
name = center;
pos = (288,0);
}
);
layerId = "24810176-774E-47FD-8B80-D284CD1191FD";
shapes = (
{
closed = 1;
nodes = (
(301,0,l),
(572,719,l),
(543,719,l),
(327,144,ls),
(310,99,o),
(299,67,o),
(289,37,c),
(279,67,o),
(264,106,o),
(250,144,cs),
(33,719,l),
(5,719,l),
(276,0,l)
);
}
);
vertWidth = 0;
width = 577;
},
{
anchors = (
{
name = center;
pos = (300,0);
}
);
layerId = "F394B0DB-5C84-43F6-ACB2-AE9DD557A8AE";
shapes = (
{
closed = 1;
nodes = (
(345,0,l),
(600,714,l),
(505,714,l),
(345,258,ls),
(324,198,o),
(309,147,o),
(300,100,c),
(290,147,o),
(276,197,o),
(255,256,cs),
(94,714,l),
(0,714,l),
(255,0,l)
);
}
);
vertWidth = 0;
width = 600;
},
{
anchors = (
{
name = center;
pos = (347,0);
}
);
layerId = "6E6EE38D-3D27-4929-8DEE-9F0163F8D5EF";
shapes = (
{
closed = 1;
nodes = (
(460,0,l),
(694,714,l),
(478,714,l),
(379,350,ls),
(368,309,o),
(351,224,o),
(347,184,c),
(344,224,o),
(325,311,o),
(314,352,cs),
(217,714,l),
(0,714,l),
(233,0,l)
);
}
);
vertWidth = 0;
width = 694;
}
);
production = uni2164;
unicode = 8548;
}
{
glyphname = "Six-roman";
layers = (
{
anchors = (
{
name = center;
pos = (382,0);
}
);
layerId = "24810176-774E-47FD-8B80-D284CD1191FD";
shapes = (
{
closed = 1;
nodes = (
(301,0,l),
(572,719,l),
(543,719,l),
(327,144,ls),
(310,99,o),
(299,67,o),
(289,37,c),
(279,67,o),
(264,106,o),
(250,144,cs),
(33,719,l),
(5,719,l),
(276,0,l)
);
},
{
closed = 1;
nodes = (
(759,0,l),
(759,20,l),
(691,23,l),
(691,695,l),
(759,699,l),
(759,719,l),
(596,719,l),
(596,699,l),
(665,695,l),
(665,23,l),
(596,20,l),
(596,0,l)
);
}
);
vertWidth = 0;
width = 780;
},
{
anchors = (
{
name = center;
pos = (449,0);
}
);
layerId = "F394B0DB-5C84-43F6-ACB2-AE9DD557A8AE";
shapes = (
{
closed = 1;
nodes = (
(345,0,l),
(600,714,l),
(505,714,l),
(345,258,ls),
(324,198,o),
(309,147,o),
(300,100,c),
(290,147,o),
(276,197,o),
(255,256,cs),
(94,714,l),
(0,714,l),
(255,0,l)
);
},
{
closed = 1;
nodes = (
(898,0,l),
(898,52,l),
(814,71,l),
(814,642,l),
(898,662,l),
(898,714,l),
(640,714,l),
(640,662,l),
(724,642,l),
(724,71,l),
(640,52,l),
(640,0,l)
);
}
);
vertWidth = 0;
width = 939;
},
{
anchors = (
{
name = center;
pos = (550,0);
}
);
layerId = "6E6EE38D-3D27-4929-8DEE-9F0163F8D5EF";
shapes = (
{
closed = 1;
nodes = (
(460,0,l),
(694,714,l),
(478,714,l),
(379,350,ls),
(368,309,o),
(351,224,o),
(347,184,c),
(344,224,o),
(325,311,o),
(314,352,cs),
(217,714,l),
(0,714,l),
(233,0,l)
);
},
{
closed = 1;
nodes = (
(1100,0,l),
(1100,110,l),
(1011,144,l),
(1011,571,l),
(1100,604,l),
(1100,714,l),
(728,714,l),
(728,604,l),
(817,571,l),
(817,144,l),
(728,110,l),
(728,0,l)
);
}
);
vertWidth = 0;
width = 1134;
}
);
metricLeft = "Five-roman";
metricRight = "One-roman";
production = uni2165;
unicode = 8549;
}
{
glyphname = "Seven-roman";
layers = (
{
anchors = (
{
name = center;
pos = (477,0);
}
);
layerId = "24810176-774E-47FD-8B80-D284CD1191FD";
shapes = (
{
closed = 1;
nodes = (
(301,0,l),
(572,719,l),
(543,719,l),
(327,144,ls),
(310,99,o),
(299,67,o),
(289,37,c),
(279,67,o),
(264,106,o),
(250,144,cs),
(33,719,l),
(5,719,l),
(276,0,l)
);
},
{
closed = 1;
nodes = (
(759,0,l),
(759,20,l),
(691,23,l),
(691,695,l),
(759,699,l),
(759,719,l),
(596,719,l),
(596,699,l),
(665,695,l),
(665,23,l),
(596,20,l),
(596,0,l)
);
},
{
closed = 1;
nodes = (
(949,0,l),
(949,20,l),
(880,23,l),
(880,695,l),
(949,699,l),
(949,719,l),
(786,719,l),
(786,699,l),
(854,695,l),
(854,23,l),
(786,20,l),
(786,0,l)
);
}
);
vertWidth = 0;
width = 970;
},
{
anchors = (
{
name = center;
pos = (618,0);
}
);
layerId = "F394B0DB-5C84-43F6-ACB2-AE9DD557A8AE";
shapes = (
{
closed = 1;
nodes = (
(345,0,l),
(600,714,l),
(505,714,l),
(345,258,ls),
(324,198,o),
(309,147,o),
(300,100,c),
(290,147,o),
(276,197,o),
(255,256,cs),
(94,714,l),
(0,714,l),
(255,0,l)
);
},
{
closed = 1;
nodes = (
(898,0,l),
(898,52,l),
(814,71,l),
(814,642,l),
(898,662,l),
(898,714,l),
(640,714,l),
(640,662,l),
(724,642,l),
(724,71,l),
(640,52,l),
(640,0,l)
);
},
{
closed = 1;
nodes = (
(1237,0,l),
(1237,52,l),
(1153,71,l),
(1153,642,l),
(1237,662,l),
(1237,714,l),
(979,714,l),
(979,662,l),
(1063,642,l),
(1063,71,l),
(979,52,l),
(979,0,l)
);
}
);
vertWidth = 0;
width = 1278;
},
{
anchors = (
{
name = center;
pos = (770,0);
}
);
layerId = "6E6EE38D-3D27-4929-8DEE-9F0163F8D5EF";
shapes = (
{
closed = 1;
nodes = (
(460,0,l),
(694,714,l),
(478,714,l),
(379,350,ls),
(368,309,o),
(351,224,o),
(347,184,c),
(344,224,o),
(325,311,o),
(314,352,cs),
(217,714,l),
(0,714,l),
(233,0,l)
);
},
{
closed = 1;
nodes = (
(1100,0,l),
(1100,110,l),
(1011,144,l),
(1011,571,l),
(1100,604,l),
(1100,714,l),
(728,714,l),
(728,604,l),
(817,571,l),
(817,144,l),
(728,110,l),
(728,0,l)
);
},
{
closed = 1;
nodes = (
(1540,0,l),
(1540,110,l),
(1451,144,l),
(1451,571,l),
(1540,604,l),
(1540,714,l),
(1168,714,l),
(1168,604,l),
(1257,571,l),
(1257,144,l),
(1168,110,l),
(1168,0,l)
);
}
);
vertWidth = 0;
width = 1574;
}
);
metricLeft = "Five-roman";
metricRight = "One-roman";
production = uni2166;
unicode = 8550;
}
{
glyphname = "Eight-roman";
layers = (
{
anchors = (
{
name = center;
pos = (571,0);
}
);
layerId = "24810176-774E-47FD-8B80-D284CD1191FD";
shapes = (
{
closed = 1;
nodes = (
(301,0,l),
(572,719,l),
(543,719,l),
(327,144,ls),
(310,99,o),
(299,67,o),
(289,37,c),
(279,67,o),
(264,106,o),
(250,144,cs),
(33,719,l),
(5,719,l),
(276,0,l)
);
},
{
closed = 1;
nodes = (
(759,0,l),
(759,20,l),
(691,23,l),
(691,695,l),
(759,699,l),
(759,719,l),
(596,719,l),
(596,699,l),
(665,695,l),
(665,23,l),
(596,20,l),
(596,0,l)
);
},
{
closed = 1;
nodes = (
(949,0,l),
(949,20,l),
(880,23,l),
(880,695,l),
(949,699,l),
(949,719,l),
(786,719,l),
(786,699,l),
(854,695,l),
(854,23,l),
(786,20,l),
(786,0,l)
);
},
{
closed = 1;
nodes = (
(1138,0,l),
(1138,20,l),
(1070,23,l),
(1070,695,l),
(1138,699,l),
(1138,719,l),
(975,719,l),
(975,699,l),
(1043,695,l),
(1043,23,l),
(975,20,l),
(975,0,l)
);
}
);
vertWidth = 0;
width = 1159;
},
{
anchors = (
{
name = center;
pos = (788,0);
}
);
layerId = "F394B0DB-5C84-43F6-ACB2-AE9DD557A8AE";
shapes = (
{
closed = 1;
nodes = (
(345,0,l),
(600,714,l),
(505,714,l),
(345,258,ls),
(324,198,o),
(309,147,o),
(300,100,c),
(290,147,o),
(276,197,o),
(255,256,cs),
(94,714,l),
(0,714,l),
(255,0,l)
);
},
{
closed = 1;
nodes = (
(898,0,l),
(898,52,l),
(814,71,l),
(814,642,l),
(898,662,l),
(898,714,l),
(640,714,l),
(640,662,l),
(724,642,l),
(724,71,l),
(640,52,l),
(640,0,l)
);
},
{
closed = 1;
nodes = (
(1237,0,l),
(1237,52,l),
(1153,71,l),
(1153,642,l),
(1237,662,l),
(1237,714,l),
(979,714,l),
(979,662,l),
(1063,642,l),
(1063,71,l),
(979,52,l),
(979,0,l)
);
},
{
closed = 1;
nodes = (
(1576,0,l),
(1576,52,l),
(1492,71,l),
(1492,642,l),
(1576,662,l),
(1576,714,l),
(1318,714,l),
(1318,662,l),
(1402,642,l),
(1402,71,l),
(1318,52,l),
(1318,0,l)
);
}
);
vertWidth = 0;
width = 1617;
},
{
anchors = (
{
name = center;
pos = (989,0);
}
);
layerId = "6E6EE38D-3D27-4929-8DEE-9F0163F8D5EF";
shapes = (
{
closed = 1;
nodes = (
(460,0,l),
(694,714,l),
(478,714,l),
(379,350,ls),
(368,309,o),
(351,224,o),
(347,184,c),
(344,224,o),
(325,311,o),
(314,352,cs),
(217,714,l),
(0,714,l),
(233,0,l)
);
},
{
closed = 1;
nodes = (
(1100,0,l),
(1100,110,l),
(1011,144,l),
(1011,571,l),
(1100,604,l),
(1100,714,l),
(728,714,l),
(728,604,l),
(817,571,l),
(817,144,l),
(728,110,l),
(728,0,l)
);
},
{
closed = 1;
nodes = (
(1540,0,l),
(1540,110,l),
(1451,144,l),
(1451,571,l),
(1540,604,l),
(1540,714,l),
(1168,714,l),
(1168,604,l),
(1257,571,l),
(1257,144,l),
(1168,110,l),
(1168,0,l)
);
},
{
closed = 1;
nodes = (
(1979,0,l),
(1979,110,l),
(1891,144,l),
(1891,571,l),
(1979,604,l),
(1979,714,l),
(1608,714,l),
(1608,604,l),
(1697,571,l),
(1697,144,l),
(1608,110,l),
(1608,0,l)
);
}
);
vertWidth = 0;
width = 2013;
}
);
metricLeft = "Five-roman";
metricRight = "One-roman";
production = uni2167;
unicode = 8551;
}
{
glyphname = "Nine-roman";
layers = (
{
anchors = (
{
name = center;
pos = (375,0);
}
);
layerId = "24810176-774E-47FD-8B80-D284CD1191FD";
shapes = (
{
closed = 1;
nodes = (
(242,0,l),
(472,353,l),
(699,0,l),
(730,0,l),
(490,373,l),
(712,719,l),
(681,719,l),
(473,393,l),
(268,719,l),
(236,719,l),
(455,373,l),
(211,0,l)
);
},
{
closed = 1;
nodes = (
(185,0,l),
(185,20,l),
(116,23,l),
(116,695,l),
(185,699,l),
(185,719,l),
(21,719,l),
(21,699,l),
(90,695,l),
(90,23,l),
(21,20,l),
(21,0,l)
);
}
);
vertWidth = 0;
width = 735;
},
{
anchors = (
{
name = center;
pos = (480,0);
}
);
layerId = "F394B0DB-5C84-43F6-ACB2-AE9DD557A8AE";
shapes = (
{
closed = 1;
nodes = (
(438,0,l),
(630,310,l),
(819,0,l),
(921,0,l),
(683,374,l),
(904,714,l),
(809,714,l),
(633,434,l),
(458,714,l),
(358,714,l),
(580,372,l),
(343,0,l)
);
},
{
closed = 1;
nodes = (
(298,0,l),
(298,52,l),
(214,71,l),
(214,642,l),
(298,662,l),
(298,714,l),
(40,714,l),
(40,662,l),
(124,642,l),
(124,71,l),
(40,52,l),
(40,0,l)
);
}
);
vertWidth = 0;
width = 925;
},
{
anchors = (
{
name = center;
pos = (597,0);
}
);
layerId = "6E6EE38D-3D27-4929-8DEE-9F0163F8D5EF";
shapes = (
{
closed = 1;
nodes = (
(660,0,l),
(798,223,l),
(937,0,l),
(1160,0,l),
(917,350,l),
(1143,714,l),
(923,714,l),
(799,493,l),
(670,714,l),
(456,714,l),
(679,365,l),
(442,0,l)
);
},
{
closed = 1;
nodes = (
(406,0,l),
(406,110,l),
(317,144,l),
(317,571,l),
(406,604,l),
(406,714,l),
(34,714,l),
(34,604,l),
(123,571,l),
(123,144,l),
(34,110,l),
(34,0,l)
);
}
);
vertWidth = 0;
width = 1163;
}
);
metricLeft = "One-roman";
metricRight = "Ten-roman";
production = uni2168;
unicode = 8552;
}
{
glyphname = "Ten-roman";
layers = (
{
anchors = (
{
name = center;
pos = (264,0);
}
);
layerId = "24810176-774E-47FD-8B80-D284CD1191FD";
shapes = (
{
closed = 1;
nodes = (
(36,0,l),
(266,353,l),
(493,0,l),
(524,0,l),
(284,373,l),
(506,719,l),
(475,719,l),
(267,393,l),
(62,719,l),
(30,719,l),
(249,373,l),
(5,0,l)
);
}
);
vertWidth = 0;
width = 529;
},
{
anchors = (
{
name = center;
pos = (293,0);
}
);
layerId = "F394B0DB-5C84-43F6-ACB2-AE9DD557A8AE";
shapes = (
{
closed = 1;
nodes = (
(99,0,l),
(291,310,l),
(480,0,l),
(582,0,l),
(344,374,l),
(565,714,l),
(470,714,l),
(294,434,l),
(119,714,l),
(19,714,l),
(241,372,l),
(4,0,l)
);
}
);
vertWidth = 0;
width = 586;
},
{
anchors = (
{
name = center;
pos = (361,0);
}
);
layerId = "6E6EE38D-3D27-4929-8DEE-9F0163F8D5EF";
shapes = (
{
closed = 1;
nodes = (
(220,0,l),
(358,223,l),
(497,0,l),
(720,0,l),
(477,350,l),
(703,714,l),
(483,714,l),
(359,493,l),
(230,714,l),
(16,714,l),
(239,365,l),
(2,0,l)
);
}
);
vertWidth = 0;
width = 723;
}
);
production = uni2169;
unicode = 8553;
}
{
glyphname = "Eleven-roman";
layers = (
{
anchors = (
{
name = center;
pos = (359,0);
}
);
layerId = "24810176-774E-47FD-8B80-D284CD1191FD";
shapes = (
{
closed = 1;
nodes = (
(36,0,l),
(266,353,l),
(493,0,l),
(524,0,l),
(284,373,l),
(506,719,l),
(475,719,l),
(267,393,l),
(62,719,l),
(30,719,l),
(249,373,l),
(5,0,l)
);
},
{
closed = 1;
nodes = (
(713,0,l),
(713,20,l),
(645,23,l),
(645,695,l),
(713,699,l),
(713,719,l),
(550,719,l),
(550,699,l),
(619,695,l),
(619,23,l),
(550,20,l),
(550,0,l)
);
}
);
vertWidth = 0;
width = 734;
},
{
anchors = (
{
name = center;
pos = (444,0);
}
);
layerId = "F394B0DB-5C84-43F6-ACB2-AE9DD557A8AE";
shapes = (
{
closed = 1;
nodes = (
(99,0,l),
(291,310,l),
(480,0,l),
(582,0,l),
(344,374,l),
(565,714,l),
(470,714,l),
(294,434,l),
(119,714,l),
(19,714,l),
(241,372,l),
(4,0,l)
);
},
{
closed = 1;
nodes = (
(884,0,l),
(884,52,l),
(800,71,l),
(800,642,l),
(884,662,l),
(884,714,l),
(626,714,l),
(626,662,l),
(710,642,l),
(710,71,l),
(626,52,l),
(626,0,l)
);
}
);
vertWidth = 0;
width = 925;
},
{
anchors = (
{
name = center;
pos = (565,0);
}
);
layerId = "6E6EE38D-3D27-4929-8DEE-9F0163F8D5EF";
shapes = (
{
closed = 1;
nodes = (
(220,0,l),
(358,223,l),
(497,0,l),
(720,0,l),
(477,350,l),
(703,714,l),
(483,714,l),
(359,493,l),
(230,714,l),
(16,714,l),
(239,365,l),
(2,0,l)
);
},
{
closed = 1;
nodes = (
(1129,0,l),
(1129,110,l),
(1040,144,l),
(1040,571,l),
(1129,604,l),
(1129,714,l),
(757,714,l),
(757,604,l),
(846,571,l),
(846,144,l),
(757,110,l),
(757,0,l)
);
}
);
vertWidth = 0;
width = 1163;
}
);
metricLeft = "Ten-roman";
metricRight = "One-roman";
production = uni216A;
unicode = 8554;
}
{
glyphname = "Twelve-roman";
layers = (
{
anchors = (
{
name = center;
pos = (489,0);
}
);
layerId = "24810176-774E-47FD-8B80-D284CD1191FD";
shapes = (
{
closed = 1;
nodes = (
(36,0,l),
(266,353,l),
(493,0,l),
(524,0,l),
(284,373,l),
(506,719,l),
(475,719,l),
(267,393,l),
(62,719,l),
(30,719,l),
(249,373,l),
(5,0,l)
);
},
{
closed = 1;
nodes = (
(784,0,l),
(784,20,l),
(716,23,l),
(716,695,l),
(784,699,l),
(784,719,l),
(621,719,l),
(621,699,l),
(689,695,l),
(689,23,l),
(621,20,l),
(621,0,l)
);
},
{
closed = 1;
nodes = (
(974,0,l),
(974,20,l),
(905,23,l),
(905,695,l),
(974,699,l),
(974,719,l),
(811,719,l),
(811,699,l),
(879,695,l),
(879,23,l),
(811,20,l),
(811,0,l)
);
}
);
vertWidth = 0;
width = 995;
},
{
anchors = (
{
name = center;
pos = (613,0);
}
);
layerId = "F394B0DB-5C84-43F6-ACB2-AE9DD557A8AE";
shapes = (
{
closed = 1;
nodes = (
(99,0,l),
(291,310,l),
(480,0,l),
(582,0,l),
(344,374,l),
(565,714,l),
(470,714,l),
(294,434,l),
(119,714,l),
(19,714,l),
(241,372,l),
(4,0,l)
);
},
{
closed = 1;
nodes = (
(884,0,l),
(884,52,l),
(800,71,l),
(800,642,l),
(884,662,l),
(884,714,l),
(626,714,l),
(626,662,l),
(710,642,l),
(710,71,l),
(626,52,l),
(626,0,l)
);
},
{
closed = 1;
nodes = (
(1223,0,l),
(1223,52,l),
(1139,71,l),
(1139,642,l),
(1223,662,l),
(1223,714,l),
(965,714,l),
(965,662,l),
(1049,642,l),
(1049,71,l),
(965,52,l),
(965,0,l)
);
}
);
vertWidth = 0;
width = 1264;
},
{
anchors = (
{
name = center;
pos = (785,0);
}
);
layerId = "6E6EE38D-3D27-4929-8DEE-9F0163F8D5EF";
shapes = (
{
closed = 1;
nodes = (
(220,0,l),
(358,223,l),
(497,0,l),
(720,0,l),
(477,350,l),
(703,714,l),
(483,714,l),
(359,493,l),
(230,714,l),
(16,714,l),
(239,365,l),
(2,0,l)
);
},
{
closed = 1;
nodes = (
(1129,0,l),
(1129,110,l),
(1040,144,l),
(1040,571,l),
(1129,604,l),
(1129,714,l),
(757,714,l),
(757,604,l),
(846,571,l),
(846,144,l),
(757,110,l),
(757,0,l)
);
},
{
closed = 1;
nodes = (
(1569,0,l),
(1569,110,l),
(1480,144,l),
(1480,571,l),
(1569,604,l),
(1569,714,l),
(1197,714,l),
(1197,604,l),
(1286,571,l),
(1286,144,l),
(1197,110,l),
(1197,0,l)
);
}
);
vertWidth = 0;
width = 1603;
}
);
metricLeft = "Ten-roman";
metricRight = "One-roman";
production = uni216B;
unicode = 8555;
}
{
glyphname = "Fifty-roman";
layers = (
{
layerId = "24810176-774E-47FD-8B80-D284CD1191FD";
shapes = (
{
closed = 1;
nodes = (
(463,0,l),
(463,25,l),
(104,25,l),
(104,719,l),
(77,719,l),
(77,0,l)
);
}
);
vertWidth = 0;
width = 468;
},
{
layerId = "F394B0DB-5C84-43F6-ACB2-AE9DD557A8AE";
shapes = (
{
closed = 1;
nodes = (
(499,0,l),
(499,80,l),
(187,80,l),
(187,714,l),
(97,714,l),
(97,0,l)
);
}
);
vertWidth = 0;
width = 524;
},
{
layerId = "6E6EE38D-3D27-4929-8DEE-9F0163F8D5EF";
shapes = (
{
closed = 1;
nodes = (
(545,0,l),
(545,156,l),
(270,156,l),
(270,714,l),
(77,714,l),
(77,0,l)
);
}
);
vertWidth = 0;
width = 582;
}
);
production = uni216C;
unicode = 8556;
}
{
glyphname = "Hundred-roman";
layers = (
{
layerId = "24810176-774E-47FD-8B80-D284CD1191FD";
shapes = (
{
closed = 1;
nodes = (
(460,-20,o),
(524,-5,o),
(569,12,c),
(569,36,l),
(520,18,o),
(458,6,o),
(379,6,cs),
(176,6,o),
(74,148,o),
(74,362,cs),
(74,563,o),
(191,712,o),
(399,712,cs),
(456,712,o),
(514,705,o),
(572,674,c),
(583,700,l),
(526,725,o),
(466,738,o),
(399,738,cs),
(178,738,o),
(46,577,o),
(46,362,cs),
(46,134,o),
(160,-20,o),
(379,-20,cs)
);
}
);
vertWidth = 0;
width = 621;
},
{
layerId = "F394B0DB-5C84-43F6-ACB2-AE9DD557A8AE";
shapes = (
{
closed = 1;
nodes = (
(468,-10,o),
(520,-1,o),
(573,19,c),
(573,97,l),
(519,81,o),
(464,69,o),
(402,69,cs),
(238,69,o),
(156,180,o),
(156,357,cs),
(156,536,o),
(250,645,o),
(403,645,cs),
(467,645,o),
(521,626,o),
(565,606,c),
(601,682,l),
(547,709,o),
(477,724,o),
(404,724,cs),
(183,724,o),
(61,574,o),
(61,358,cs),
(61,133,o),
(170,-10,o),
(389,-10,cs)
);
}
);
vertWidth = 0;
width = 632;
},
{
layerId = "6E6EE38D-3D27-4929-8DEE-9F0163F8D5EF";
shapes = (
{
closed = 1;
nodes = (
(459,-10,o),
(524,2,o),
(587,30,c),
(587,193,l),
(527,168,o),
(469,148,o),
(406,148,cs),
(300,148,o),
(249,219,o),
(249,354,cs),
(249,487,o),
(304,566,o),
(395,566,cs),
(455,566,o),
(507,547,o),
(559,522,c),
(618,674,l),
(545,709,o),
(466,724,o),
(397,724,cs),
(174,724,o),
(51,571,o),
(51,355,cs),
(51,138,o),
(152,-10,o),
(385,-10,cs)
);
}
);
vertWidth = 0;
width = 649;
}
);
production = uni216D;
unicode = 8557;
}
{
glyphname = "Fivehundred-roman";
layers = (
{
layerId = "24810176-774E-47FD-8B80-D284CD1191FD";
shapes = (
{
closed = 1;
nodes = (
(232,0,ls),
(484,0,o),
(606,126,o),
(606,367,cs),
(606,595,o),
(493,719,o),
(255,719,cs),
(77,719,l),
(77,0,l)
);
},
{
closed = 1;
nodes = (
(104,694,l),
(246,694,ls),
(479,694,o),
(579,579,o),
(579,366,cs),
(579,137,o),
(466,25,o),
(235,25,cs),
(104,25,l)
);
}
);
vertWidth = 0;
width = 652;
},
{
layerId = "F394B0DB-5C84-43F6-ACB2-AE9DD557A8AE";
shapes = (
{
closed = 1;
nodes = (
(296,0,ls),
(531,0,o),
(669,123,o),
(669,364,cs),
(669,593,o),
(532,714,o),
(317,714,cs),
(97,714,l),
(97,0,l)
);
},
{
closed = 1;
nodes = (
(187,637,l),
(304,637,ls),
(476,637,o),
(574,551,o),
(574,361,cs),
(574,173,o),
(477,77,o),
(284,77,cs),
(187,77,l)
);
}
);
vertWidth = 0;
width = 730;
},
{
layerId = "6E6EE38D-3D27-4929-8DEE-9F0163F8D5EF";
shapes = (
{
closed = 1;
nodes = (
(308,0,ls),
(535,0,o),
(683,123,o),
(683,372,cs),
(683,593,o),
(554,714,o),
(324,714,cs),
(77,714,l),
(77,0,l)
);
},
{
closed = 1;
nodes = (
(270,558,l),
(326,558,ls),
(431,558,o),
(483,495,o),
(483,365,cs),
(483,225,o),
(430,158,o),
(313,158,cs),
(270,158,l)
);
}
);
vertWidth = 0;
width = 734;
}
);
production = uni216E;
unicode = 8558;
}
{
glyphname = "Thousand-roman";
layers = (
{
anchors = (
{
name = center;
pos = (394,0);
}
);
layerId = "24810176-774E-47FD-8B80-D284CD1191FD";
shapes = (
{
closed = 1;
nodes = (
(104,0,l),
(104,601,ls),
(104,630,o),
(103,657,o),
(103,684,c),
(104,684,l),
(384,0,l),
(404,0,l),
(685,683,l),
(687,683,l),
(686,656,o),
(686,626,o),
(686,606,cs),
(686,0,l),
(712,0,l),
(712,719,l),
(671,719,l),
(396,48,l),
(394,48,l),
(120,719,l),
(77,719,l),
(77,0,l)
);
}
);
vertWidth = 0;
width = 789;
},
{
anchors = (
{
name = center;
pos = (453,0);
}
);
layerId = "F394B0DB-5C84-43F6-ACB2-AE9DD557A8AE";
shapes = (
{
closed = 1;
nodes = (
(180,0,l),
(180,433,ls),
(180,509,o),
(177,585,o),
(173,626,c),
(177,626,l),
(412,0,l),
(486,0,l),
(724,625,l),
(728,625,l),
(725,582,o),
(721,508,o),
(721,439,cs),
(721,0,l),
(810,0,l),
(810,714,l),
(678,714,l),
(454,129,l),
(450,129,l),
(230,714,l),
(97,714,l),
(97,0,l)
);
}
);
vertWidth = 0;
width = 907;
},
{
anchors = (
{
name = center;
pos = (483,0);
}
);
layerId = "6E6EE38D-3D27-4929-8DEE-9F0163F8D5EF";
shapes = (
{
closed = 1;
nodes = (
(248,0,l),
(248,310,ls),
(248,383,o),
(241,474,o),
(238,514,c),
(242,514,l),
(388,0,l),
(572,0,l),
(716,513,l),
(720,513,l),
(717,473,o),
(713,380,o),
(713,313,cs),
(713,0,l),
(890,0,l),
(890,714,l),
(633,714,l),
(487,207,l),
(483,207,l),
(334,714,l),
(77,714,l),
(77,0,l)
);
}
);
vertWidth = 0;
width = 967;
}
);
production = uni216F;
unicode = 8559;
}
{
glyphname = "one-roman";
layers = (
{
anchors = (
{
name = center;
pos = (93,0);
}
);
layerId = "24810176-774E-47FD-8B80-D284CD1191FD";
shapes = (
{
closed = 1;
nodes = (
(105,0,l),
(105,532,l),
(80,532,l),
(80,0,l)
);
},
{
closed = 1;
nodes = (
(117,657,o),
(120,671,o),
(120,688,cs),
(120,704,o),
(117,719,o),
(93,719,cs),
(72,719,o),
(67,704,o),
(67,688,cs),
(67,671,o),
(72,657,o),
(93,657,cs)
);
}
);
vertWidth = 0;
width = 187;
},
{
anchors = (
{
name = center;
pos = (129,0);
}
);
layerId = "F394B0DB-5C84-43F6-ACB2-AE9DD557A8AE";
shapes = (
{
closed = 1;
nodes = (
(173,0,l),
(173,536,l),
(85,536,l),
(85,0,l)
);
},
{
closed = 1;
nodes = (
(157,614,o),
(181,632,o),
(181,670,cs),
(181,709,o),
(157,726,o),
(130,726,cs),
(101,726,o),
(78,709,o),
(78,670,cs),
(78,632,o),
(101,614,o),
(130,614,cs)
);
}
);
vertWidth = 0;
width = 258;
},
{
anchors = (
{
name = center;
pos = (163,0);
}
);
layerId = "6E6EE38D-3D27-4929-8DEE-9F0163F8D5EF";
shapes = (
{
closed = 1;
nodes = (
(258,0,l),
(258,553,l),
(67,553,l),
(67,0,l)
);
},
{
closed = 1;
nodes = (
(218,607,o),
(265,625,o),
(265,691,cs),
(265,759,o),
(218,776,o),
(163,776,cs),
(107,776,o),
(62,759,o),
(62,691,c),
(62,625,o),
(107,607,o),
(163,607,cs)
);
}
);
vertWidth = 0;
width = 325;
}
);
production = uni2170;
unicode = 8560;
}
{
glyphname = "two-roman";
layers = (
{
anchors = (
{
name = center;
pos = (160,0);
}
);
layerId = "24810176-774E-47FD-8B80-D284CD1191FD";
shapes = (
{
closed = 1;
nodes = (
(239,0,l),
(239,531,l),
(213,531,l),
(213,0,l)
);
},
{
closed = 1;
nodes = (
(105,0,l),
(105,531,l),
(80,531,l),
(80,0,l)
);
},
{
closed = 1;
nodes = (
(117,657,o),
(120,671,o),
(120,688,cs),
(120,704,o),
(117,719,o),
(93,719,cs),
(72,719,o),
(67,704,o),
(67,688,cs),
(67,671,o),
(72,657,o),
(93,657,cs)
);
},
{
closed = 1;
nodes = (
(250,657,o),
(253,671,o),
(253,688,cs),
(253,704,o),
(250,719,o),
(226,719,cs),
(206,719,o),
(201,704,o),
(201,688,cs),
(201,671,o),
(206,657,o),
(226,657,cs)
);
}
);
vertWidth = 0;
width = 320;
},
{
anchors = (
{
name = center;
pos = (258,0);
}
);
layerId = "F394B0DB-5C84-43F6-ACB2-AE9DD557A8AE";
shapes = (
{
closed = 1;
nodes = (
(431,0,l),
(431,536,l),
(343,536,l),
(343,0,l)
);
},
{
closed = 1;
nodes = (
(173,0,l),
(173,536,l),
(85,536,l),
(85,0,l)
);
},
{
closed = 1;
nodes = (
(157,614,o),
(181,632,o),
(181,670,cs),
(181,709,o),
(157,726,o),
(130,726,cs),
(101,726,o),
(78,709,o),
(78,670,cs),
(78,632,o),
(101,614,o),
(130,614,cs)
);
},
{
closed = 1;
nodes = (
(415,614,o),
(439,632,o),
(439,670,cs),
(439,709,o),
(415,726,o),
(388,726,cs),
(359,726,o),
(336,709,o),
(336,670,cs),
(336,632,o),
(359,614,o),
(388,614,cs)
);
}
);
vertWidth = 0;
width = 516;
},
{
anchors = (
{
name = center;
pos = (326,0);
}
);
layerId = "6E6EE38D-3D27-4929-8DEE-9F0163F8D5EF";
shapes = (
{
closed = 1;
nodes = (
(583,0,l),
(583,553,l),
(392,553,l),
(392,0,l)
);
},
{
closed = 1;
nodes = (
(258,0,l),
(258,553,l),
(67,553,l),
(67,0,l)
);
},
{
closed = 1;
nodes = (
(218,607,o),
(265,625,o),
(265,691,cs),
(265,759,o),
(218,776,o),
(163,776,cs),
(107,776,o),
(62,759,o),
(62,691,cs),
(62,625,o),
(107,607,o),
(163,607,cs)
);
},
{
closed = 1;
nodes = (
(543,607,o),
(590,625,o),
(590,691,cs),
(590,759,o),
(543,776,o),
(488,776,cs),
(432,776,o),
(387,759,o),
(387,691,cs),
(387,625,o),
(432,607,o),
(488,607,cs)
);
}
);
vertWidth = 0;
width = 650;
}
);
metricLeft = "one-roman";
metricRight = "one-roman";
production = uni2171;
unicode = 8561;
}
{
glyphname = "three-roman";
layers = (
{
anchors = (
{
name = center;
pos = (226,0);
}
);
layerId = "24810176-774E-47FD-8B80-D284CD1191FD";
shapes = (
{
closed = 1;
nodes = (
(372,0,l),
(372,532,l),
(346,532,l),
(346,0,l)
);
},
{
closed = 1;
nodes = (
(105,0,l),
(105,532,l),
(80,532,l),
(80,0,l)
);
},
{
closed = 1;
nodes = (
(239,0,l),
(239,532,l),
(213,532,l),
(213,0,l)
);
},
{
closed = 1;
nodes = (
(117,657,o),
(120,671,o),
(120,688,cs),
(120,704,o),
(117,719,o),
(93,719,cs),
(72,719,o),
(67,704,o),
(67,688,cs),
(67,671,o),
(72,657,o),
(93,657,cs)
);
},
{
closed = 1;
nodes = (
(250,657,o),
(253,671,o),
(253,688,cs),
(253,704,o),
(250,719,o),
(226,719,cs),
(206,719,o),
(201,704,o),
(201,688,cs),
(201,671,o),
(206,657,o),
(226,657,cs)
);
},
{
closed = 1;
nodes = (
(383,657,o),
(386,671,o),
(386,688,cs),
(386,704,o),
(383,719,o),
(359,719,cs),
(339,719,o),
(334,704,o),
(334,688,cs),
(334,671,o),
(339,657,o),
(359,657,cs)
);
}
);
vertWidth = 0;
width = 453;
},
{
anchors = (
{
name = center;
pos = (387,0);
}
);
layerId = "F394B0DB-5C84-43F6-ACB2-AE9DD557A8AE";
shapes = (
{
closed = 1;
nodes = (
(688,0,l),
(688,536,l),
(601,536,l),
(601,0,l)
);
},
{
closed = 1;
nodes = (
(173,0,l),
(173,536,l),
(85,536,l),
(85,0,l)
);
},
{
closed = 1;
nodes = (
(431,0,l),
(431,536,l),
(343,536,l),
(343,0,l)
);
},
{
closed = 1;
nodes = (
(157,614,o),
(181,632,o),
(181,670,cs),
(181,709,o),
(157,726,o),
(130,726,cs),
(101,726,o),
(78,709,o),
(78,670,cs),
(78,632,o),
(101,614,o),
(130,614,cs)
);
},
{
closed = 1;
nodes = (
(415,614,o),
(439,632,o),
(439,670,cs),
(439,709,o),
(415,726,o),
(388,726,cs),
(359,726,o),
(336,709,o),
(336,670,cs),
(336,632,o),
(359,614,o),
(388,614,cs)
);
},
{
closed = 1;
nodes = (
(673,614,o),
(697,632,o),
(697,670,cs),
(697,709,o),
(673,726,o),
(646,726,cs),
(617,726,o),
(594,709,o),
(594,670,cs),
(594,632,o),
(617,614,o),
(646,614,cs)
);
}
);
vertWidth = 0;
width = 774;
},
{
anchors = (
{
name = center;
pos = (489,0);
}
);
layerId = "6E6EE38D-3D27-4929-8DEE-9F0163F8D5EF";
shapes = (
{
closed = 1;
nodes = (
(908,0,l),
(908,553,l),
(717,553,l),
(717,0,l)
);
},
{
closed = 1;
nodes = (
(258,0,l),
(258,553,l),
(67,553,l),
(67,0,l)
);
},
{
closed = 1;
nodes = (
(583,0,l),
(583,553,l),
(392,553,l),
(392,0,l)
);
},
{
closed = 1;
nodes = (
(218,607,o),
(265,625,o),
(265,691,cs),
(265,759,o),
(218,776,o),
(163,776,cs),
(107,776,o),
(62,759,o),
(62,691,c),
(62,625,o),
(107,607,o),
(163,607,cs)
);
},
{
closed = 1;
nodes = (
(543,607,o),
(590,625,o),
(590,691,cs),
(590,759,o),
(543,776,o),
(488,776,cs),
(432,776,o),
(387,759,o),
(387,691,c),
(387,625,o),
(432,607,o),
(488,607,cs)
);
},
{
closed = 1;
nodes = (
(868,607,o),
(916,625,o),
(916,691,cs),
(916,759,o),
(868,776,o),
(813,776,cs),
(757,776,o),
(712,759,o),
(712,691,c),
(712,625,o),
(757,607,o),
(813,607,cs)
);
}
);
vertWidth = 0;
width = 976;
}
);
metricLeft = "one-roman";
metricRight = "one-roman";
production = uni2172;
unicode = 8562;
}
{
glyphname = "four-roman";
layers = (
{
layerId = "24810176-774E-47FD-8B80-D284CD1191FD";
shapes = (
{
closed = 1;
nodes = (
(358,0,l),
(564,532,l),
(537,532,l),
(386,139,ls),
(369,96,o),
(360,69,o),
(349,36,c),
(346,36,l),
(335,69,o),
(326,96,o),
(309,139,cs),
(158,532,l),
(131,532,l),
(336,0,l)
);
},
{
closed = 1;
nodes = (
(105,0,l),
(105,532,l),
(80,532,l),
(80,0,l)
);
},
{
closed = 1;
nodes = (
(117,657,o),
(120,671,o),
(120,688,cs),
(120,704,o),
(117,719,o),
(93,719,cs),
(72,719,o),
(67,704,o),
(67,688,cs),
(67,671,o),
(72,657,o),
(93,657,cs)
);
}
);
vertWidth = 0;
width = 569;
},
{
layerId = "F394B0DB-5C84-43F6-ACB2-AE9DD557A8AE";
shapes = (
{
closed = 1;
nodes = (
(562,0,l),
(766,536,l),
(672,536,l),
(558,220,ls),
(543,177,o),
(520,111,o),
(513,78,c),
(509,78,l),
(503,111,o),
(482,176,o),
(466,220,cs),
(352,536,l),
(258,536,l),
(461,0,l)
);
},
{
closed = 1;
nodes = (
(173,0,l),
(173,536,l),
(85,536,l),
(85,0,l)
);
},
{
closed = 1;
nodes = (
(157,614,o),
(181,632,o),
(181,670,cs),
(181,709,o),
(157,726,o),
(130,726,cs),
(101,726,o),
(78,709,o),
(78,670,cs),
(78,632,o),
(101,614,o),
(130,614,cs)
);
}
);
vertWidth = 0;
width = 766;
},
{
layerId = "6E6EE38D-3D27-4929-8DEE-9F0163F8D5EF";
shapes = (
{
closed = 1;
nodes = (
(725,0,l),
(936,553,l),
(737,553,l),
(639,225,l),
(636,214,o),
(630,192,o),
(630,170,c),
(627,170,l),
(627,191,o),
(620,220,o),
(618,226,c),
(524,553,l),
(325,553,l),
(536,0,l)
);
},
{
closed = 1;
nodes = (
(258,0,l),
(258,553,l),
(67,553,l),
(67,0,l)
);
},
{
closed = 1;
nodes = (
(218,607,o),
(265,625,o),
(265,691,cs),
(265,759,o),
(218,776,o),
(163,776,cs),
(107,776,o),
(62,759,o),
(62,691,cs),
(62,625,o),
(107,607,o),
(163,607,cs)
);
}
);
vertWidth = 0;
width = 936;
}
);
metricLeft = "one-roman";
metricRight = "five-roman";
production = uni2173;
unicode = 8563;
}
{
glyphname = "five-roman";
layers = (
{
anchors = (
{
name = center;
pos = (221,0);
}
);
layerId = "24810176-774E-47FD-8B80-D284CD1191FD";
shapes = (
{
closed = 1;
nodes = (
(232,0,l),
(438,532,l),
(411,532,l),
(260,139,ls),
(243,96,o),
(234,69,o),
(223,36,c),
(220,36,l),
(209,69,o),
(200,96,o),
(183,139,cs),
(32,532,l),
(5,532,l),
(210,0,l)
);
}
);
vertWidth = 0;
width = 443;
},
{
anchors = (
{
name = center;
pos = (254,0);
}
);
layerId = "F394B0DB-5C84-43F6-ACB2-AE9DD557A8AE";
shapes = (
{
closed = 1;
nodes = (
(304,0,l),
(508,536,l),
(414,536,l),
(300,220,ls),
(285,177,o),
(262,111,o),
(255,78,c),
(251,78,l),
(245,111,o),
(224,176,o),
(208,220,cs),
(94,536,l),
(0,536,l),
(203,0,l)
);
}
);
vertWidth = 0;
width = 508;
},
{
anchors = (
{
name = center;
pos = (305,0);
}
);
layerId = "6E6EE38D-3D27-4929-8DEE-9F0163F8D5EF";
shapes = (
{
closed = 1;
nodes = (
(400,0,l),
(611,553,l),
(412,553,l),
(314,225,l),
(311,214,o),
(305,192,o),
(305,170,c),
(302,170,l),
(302,191,o),
(295,220,o),
(293,226,c),
(199,553,l),
(0,553,l),
(211,0,l)
);
}
);
vertWidth = 0;
width = 611;
}
);
production = uni2174;
unicode = 8564;
}
{
glyphname = "six-roman";
layers = (
{
layerId = "24810176-774E-47FD-8B80-D284CD1191FD";
shapes = (
{
closed = 1;
nodes = (
(232,0,l),
(438,532,l),
(411,532,l),
(260,139,ls),
(243,96,o),
(234,69,o),
(223,36,c),
(220,36,l),
(209,69,o),
(200,96,o),
(183,139,cs),
(32,532,l),
(5,532,l),
(210,0,l)
);
},
{
closed = 1;
nodes = (
(489,0,l),
(489,532,l),
(463,532,l),
(463,0,l)
);
},
{
closed = 1;
nodes = (
(500,657,o),
(503,671,o),
(503,688,cs),
(503,704,o),
(500,719,o),
(476,719,cs),
(456,719,o),
(451,704,o),
(451,688,cs),
(451,671,o),
(456,657,o),
(476,657,cs)
);
}
);
vertWidth = 0;
width = 570;
},
{
layerId = "F394B0DB-5C84-43F6-ACB2-AE9DD557A8AE";
shapes = (
{
closed = 1;
nodes = (
(304,0,l),
(508,536,l),
(414,536,l),
(300,220,ls),
(285,177,o),
(262,111,o),
(255,78,c),
(251,78,l),
(245,111,o),
(224,176,o),
(208,220,cs),
(94,536,l),
(0,536,l),
(203,0,l)
);
},
{
closed = 1;
nodes = (
(681,0,l),
(681,536,l),
(593,536,l),
(593,0,l)
);
},
{
closed = 1;
nodes = (
(665,614,o),
(689,632,o),
(689,670,cs),
(689,709,o),
(665,726,o),
(638,726,cs),
(609,726,o),
(586,709,o),
(586,670,cs),
(586,632,o),
(609,614,o),
(638,614,cs)
);
}
);
vertWidth = 0;
width = 766;
},
{
layerId = "6E6EE38D-3D27-4929-8DEE-9F0163F8D5EF";
shapes = (
{
closed = 1;
nodes = (
(400,0,l),
(611,553,l),
(412,553,l),
(314,225,l),
(311,214,o),
(305,192,o),
(305,170,c),
(302,170,l),
(302,191,o),
(295,220,o),
(293,226,c),
(199,553,l),
(0,553,l),
(211,0,l)
);
},
{
closed = 1;
nodes = (
(869,0,l),
(869,553,l),
(678,553,l),
(678,0,l)
);
},
{
closed = 1;
nodes = (
(829,607,o),
(876,625,o),
(876,691,cs),
(876,759,o),
(829,776,o),
(774,776,cs),
(718,776,o),
(673,759,o),
(673,691,cs),
(673,625,o),
(718,607,o),
(774,607,cs)
);
}
);
vertWidth = 0;
width = 936;
}
);
metricLeft = "five-roman";
metricRight = "one-roman";
production = uni2175;
unicode = 8565;
}
{
glyphname = "eight-roman";
layers = (
{
anchors = (
{
name = center;
pos = (387,0);
}
);
layerId = "24810176-774E-47FD-8B80-D284CD1191FD";
shapes = (
{
closed = 1;
nodes = (
(232,0,l),
(438,532,l),
(411,532,l),
(260,139,ls),
(243,96,o),
(234,69,o),
(223,36,c),
(220,36,l),
(209,69,o),
(200,96,o),
(183,139,cs),
(32,532,l),
(5,532,l),
(210,0,l)
);
},
{
closed = 1;
nodes = (
(489,0,l),
(489,532,l),
(463,532,l),
(463,0,l)
);
},
{
closed = 1;
nodes = (
(623,0,l),
(623,532,l),
(597,532,l),
(597,0,l)
);
},
{
closed = 1;
nodes = (
(756,0,l),
(756,532,l),
(730,532,l),
(730,0,l)
);
},
{
closed = 1;
nodes = (
(500,657,o),
(503,671,o),
(503,688,cs),
(503,704,o),
(500,719,o),
(477,719,cs),
(456,719,o),
(451,704,o),
(451,688,cs),
(451,671,o),
(456,657,o),
(477,657,cs)
);
},
{
closed = 1;
nodes = (
(634,657,o),
(637,671,o),
(637,688,cs),
(637,704,o),
(634,719,o),
(610,719,cs),
(589,719,o),
(584,704,o),
(584,688,cs),
(584,671,o),
(589,657,o),
(610,657,cs)
);
},
{
closed = 1;
nodes = (
(767,657,o),
(770,671,o),
(770,688,cs),
(770,704,o),
(767,719,o),
(743,719,cs),
(723,719,o),
(718,704,o),
(718,688,cs),
(718,671,o),
(723,657,o),
(743,657,cs)
);
}
);
vertWidth = 0;
width = 837;
},
{
anchors = (
{
name = center;
pos = (602,0);
}
);
layerId = "F394B0DB-5C84-43F6-ACB2-AE9DD557A8AE";
shapes = (
{
closed = 1;
nodes = (
(304,0,l),
(508,536,l),
(414,536,l),
(300,220,ls),
(285,177,o),
(263,111,o),
(255,78,c),
(251,78,l),
(245,111,o),
(224,176,o),
(208,220,cs),
(94,536,l),
(0,536,l),
(203,0,l)
);
},
{
closed = 1;
nodes = (
(681,0,l),
(681,536,l),
(593,536,l),
(593,0,l)
);
},
{
closed = 1;
nodes = (
(938,0,l),
(938,536,l),
(851,536,l),
(851,0,l)
);
},
{
closed = 1;
nodes = (
(1196,0,l),
(1196,536,l),
(1108,536,l),
(1108,0,l)
);
},
{
closed = 1;
nodes = (
(665,614,o),
(689,632,o),
(689,670,cs),
(689,709,o),
(665,726,o),
(638,726,cs),
(609,726,o),
(586,709,o),
(586,670,cs),
(586,632,o),
(609,614,o),
(638,614,cs)
);
},
{
closed = 1;
nodes = (
(923,614,o),
(947,632,o),
(947,670,cs),
(947,709,o),
(923,726,o),
(896,726,cs),
(867,726,o),
(844,709,o),
(844,670,cs),
(844,632,o),
(867,614,o),
(896,614,cs)
);
},
{
closed = 1;
nodes = (
(1181,614,o),
(1205,632,o),
(1205,670,cs),
(1205,709,o),
(1181,726,o),
(1153,726,cs),
(1125,726,o),
(1102,709,o),
(1102,670,cs),
(1102,632,o),
(1125,614,o),
(1153,614,cs)
);
}
);
vertWidth = 0;
width = 1282;
},
{
anchors = (
{
name = center;
pos = (763,0);
}
);
layerId = "6E6EE38D-3D27-4929-8DEE-9F0163F8D5EF";
shapes = (
{
closed = 1;
nodes = (
(400,0,l),
(611,553,l),
(412,553,l),
(314,225,l),
(311,214,o),
(306,191,o),
(305,170,c),
(302,170,l),
(302,191,o),
(295,220,o),
(293,226,c),
(199,553,l),
(0,553,l),
(211,0,l)
);
},
{
closed = 1;
nodes = (
(869,0,l),
(869,553,l),
(678,553,l),
(678,0,l)
);
},
{
closed = 1;
nodes = (
(1194,0,l),
(1194,553,l),
(1003,553,l),
(1003,0,l)
);
},
{
closed = 1;
nodes = (
(1519,0,l),
(1519,553,l),
(1328,553,l),
(1328,0,l)
);
},
{
closed = 1;
nodes = (
(829,607,o),
(876,625,o),
(876,691,cs),
(876,759,o),
(829,776,o),
(774,776,cs),
(718,776,o),
(673,759,o),
(673,691,cs),
(673,625,o),
(718,607,o),
(774,607,cs)
);
},
{
closed = 1;
nodes = (
(1154,607,o),
(1201,625,o),
(1201,691,cs),
(1201,759,o),
(1154,776,o),
(1099,776,cs),
(1043,776,o),
(998,759,o),
(998,691,cs),
(998,625,o),
(1043,607,o),
(1099,607,cs)
);
},
{
closed = 1;
nodes = (
(1479,607,o),
(1526,625,o),
(1526,691,cs),
(1526,759,o),
(1479,776,o),
(1424,776,cs),
(1368,776,o),
(1323,759,o),
(1323,691,cs),
(1323,625,o),
(1368,607,o),
(1424,607,cs)
);
}
);
vertWidth = 0;
width = 1586;
}
);
metricLeft = "five-roman";
metricRight = "one-roman";
production = uni2177;
unicode = 8567;
}
{
glyphname = "nine-roman";
layers = (
{
anchors = (
{
name = center;
pos = (312,0);
}
);
layerId = "24810176-774E-47FD-8B80-D284CD1191FD";
shapes = (
{
closed = 1;
nodes = (
(162,0,l),
(342,255,l),
(525,0,l),
(557,0,l),
(360,274,l),
(545,532,l),
(513,532,l),
(342,292,l),
(172,532,l),
(139,532,l),
(325,274,l),
(131,0,l)
);
},
{
closed = 1;
nodes = (
(105,0,l),
(105,532,l),
(80,532,l),
(80,0,l)
);
},
{
closed = 1;
nodes = (
(117,657,o),
(120,671,o),
(120,688,cs),
(120,704,o),
(117,719,o),
(93,719,cs),
(72,719,o),
(67,704,o),
(67,688,cs),
(67,671,o),
(72,657,o),
(93,657,cs)
);
}
);
vertWidth = 0;
width = 562;
},
{
anchors = (
{
name = center;
pos = (423,0);
}
);
layerId = "F394B0DB-5C84-43F6-ACB2-AE9DD557A8AE";
shapes = (
{
closed = 1;
nodes = (
(375,0,l),
(523,214,l),
(669,0,l),
(769,0,l),
(574,274,l),
(759,536,l),
(660,536,l),
(523,334,l),
(385,536,l),
(285,536,l),
(470,274,l),
(276,0,l)
);
},
{
closed = 1;
nodes = (
(173,0,l),
(173,536,l),
(85,536,l),
(85,0,l)
);
},
{
closed = 1;
nodes = (
(157,614,o),
(181,632,o),
(181,670,cs),
(181,709,o),
(157,726,o),
(130,726,cs),
(101,726,o),
(78,709,o),
(78,670,cs),
(78,632,o),
(101,614,o),
(130,614,cs)
);
}
);
vertWidth = 0;
width = 787;
},
{
anchors = (
{
name = center;
pos = (506,0);
}
);
layerId = "6E6EE38D-3D27-4929-8DEE-9F0163F8D5EF";
shapes = (
{
closed = 1;
nodes = (
(547,0,l),
(640,168,l),
(733,0,l),
(950,0,l),
(770,282,l),
(943,553,l),
(726,553,l),
(640,398,l),
(556,553,l),
(339,553,l),
(508,282,l),
(330,0,l)
);
},
{
closed = 1;
nodes = (
(258,0,l),
(258,553,l),
(67,553,l),
(67,0,l)
);
},
{
closed = 1;
nodes = (
(218,607,o),
(265,625,o),
(265,691,cs),
(265,759,o),
(218,776,o),
(163,776,cs),
(107,776,o),
(62,759,o),
(62,691,c),
(62,625,o),
(107,607,o),
(163,607,cs)
);
}
);
vertWidth = 0;
width = 955;
}
);
metricLeft = "one-roman";
metricRight = "ten-roman";
production = uni2178;
unicode = 8568;
}
{
glyphname = "ten-roman";
layers = (
{
layerId = "24810176-774E-47FD-8B80-D284CD1191FD";
shapes = (
{
closed = 1;
nodes = (
(36,0,l),
(216,255,l),
(399,0,l),
(431,0,l),
(234,274,l),
(419,532,l),
(387,532,l),
(216,292,l),
(46,532,l),
(13,532,l),
(199,274,l),
(5,0,l)
);
}
);
vertWidth = 0;
width = 436;
},
{
layerId = "F394B0DB-5C84-43F6-ACB2-AE9DD557A8AE";
shapes = (
{
closed = 1;
nodes = (
(117,0,l),
(265,214,l),
(411,0,l),
(511,0,l),
(316,274,l),
(501,536,l),
(402,536,l),
(265,334,l),
(127,536,l),
(27,536,l),
(212,274,l),
(18,0,l)
);
}
);
vertWidth = 0;
width = 529;
},
{
layerId = "6E6EE38D-3D27-4929-8DEE-9F0163F8D5EF";
shapes = (
{
closed = 1;
nodes = (
(222,0,l),
(315,168,l),
(408,0,l),
(625,0,l),
(445,282,l),
(618,553,l),
(401,553,l),
(315,398,l),
(231,553,l),
(14,553,l),
(183,282,l),
(5,0,l)
);
}
);
vertWidth = 0;
width = 630;
}
);
production = uni2179;
unicode = 8569;
}
{
glyphname = "eleven-roman";
layers = (
{
anchors = (
{
name = center;
pos = (251,0);
}
);
layerId = "24810176-774E-47FD-8B80-D284CD1191FD";
shapes = (
{
closed = 1;
nodes = (
(36,0,l),
(216,255,l),
(399,0,l),
(431,0,l),
(234,274,l),
(419,532,l),
(387,532,l),
(216,292,l),
(46,532,l),
(13,532,l),
(199,274,l),
(5,0,l)
);
},
{
closed = 1;
nodes = (
(482,0,l),
(482,532,l),
(457,532,l),
(457,0,l)
);
},
{
closed = 1;
nodes = (
(494,657,o),
(497,671,o),
(497,688,cs),
(497,704,o),
(494,719,o),
(470,719,cs),
(449,719,o),
(444,704,o),
(444,688,cs),
(444,671,o),
(449,657,o),
(470,657,cs)
);
}
);
vertWidth = 0;
width = 564;
},
{
anchors = (
{
name = center;
pos = (364,0);
}
);
layerId = "F394B0DB-5C84-43F6-ACB2-AE9DD557A8AE";
shapes = (
{
closed = 1;
nodes = (
(117,0,l),
(265,214,l),
(411,0,l),
(511,0,l),
(316,274,l),
(501,536,l),
(402,536,l),
(265,334,l),
(127,536,l),
(27,536,l),
(212,274,l),
(18,0,l)
);
},
{
closed = 1;
nodes = (
(702,0,l),
(702,536,l),
(614,536,l),
(614,0,l)
);
},
{
closed = 1;
nodes = (
(686,614,o),
(710,632,o),
(710,670,cs),
(710,709,o),
(686,726,o),
(659,726,cs),
(630,726,o),
(607,709,o),
(607,670,cs),
(607,632,o),
(630,614,o),
(659,614,cs)
);
}
);
vertWidth = 0;
width = 787;
},
{
anchors = (
{
name = center;
pos = (450,0);
}
);
layerId = "6E6EE38D-3D27-4929-8DEE-9F0163F8D5EF";
shapes = (
{
closed = 1;
nodes = (
(222,0,l),
(315,168,l),
(408,0,l),
(625,0,l),
(445,282,l),
(618,553,l),
(401,553,l),
(315,398,l),
(231,553,l),
(14,553,l),
(183,282,l),
(5,0,l)
);
},
{
closed = 1;
nodes = (
(888,0,l),
(888,553,l),
(697,553,l),
(697,0,l)
);
},
{
closed = 1;
nodes = (
(848,607,o),
(895,625,o),
(895,691,cs),
(895,759,o),
(848,776,o),
(793,776,cs),
(737,776,o),
(692,759,o),
(692,691,c),
(692,625,o),
(737,607,o),
(793,607,cs)
);
}
);
vertWidth = 0;
width = 955;
}
);
metricLeft = "ten-roman";
metricRight = "one-roman";
production = uni217A;
unicode = 8570;
}
{
glyphname = "fifty-roman";
layers = (
{
anchors = (
{
name = center;
pos = (80,0);
}
);
layerId = "24810176-774E-47FD-8B80-D284CD1191FD";
shapes = (
{
closed = 1;
nodes = (
(94,0,l),
(94,766,l),
(67,766,l),
(67,0,l)
);
}
);
vertWidth = 0;
width = 161;
},
{
anchors = (
{
name = center;
pos = (129,0);
}
);
layerId = "F394B0DB-5C84-43F6-ACB2-AE9DD557A8AE";
shapes = (
{
closed = 1;
nodes = (
(173,0,l),
(173,760,l),
(85,760,l),
(85,0,l)
);
}
);
vertWidth = 0;
width = 258;
},
{
anchors = (
{
name = center;
pos = (161,0);
}
);
layerId = "6E6EE38D-3D27-4929-8DEE-9F0163F8D5EF";
shapes = (
{
closed = 1;
nodes = (
(257,0,l),
(257,760,l),
(66,760,l),
(66,0,l)
);
}
);
vertWidth = 0;
width = 323;
}
);
production = uni217C;
unicode = 8572;
}
{
glyphname = "hundred-roman";
layers = (
{
anchors = (
{
name = center;
pos = (233,0);
}
);
layerId = "24810176-774E-47FD-8B80-D284CD1191FD";
shapes = (
{
closed = 1;
nodes = (
(340,-10,o),
(389,2,o),
(422,16,c),
(422,41,l),
(382,25,o),
(333,15,o),
(285,15,cs),
(132,15,o),
(67,126,o),
(67,263,cs),
(67,412,o),
(157,517,o),
(302,517,cs),
(340,517,o),
(380,511,o),
(421,492,c),
(426,518,l),
(389,534,o),
(350,542,o),
(302,542,cs),
(139,542,o),
(40,425,o),
(40,263,cs),
(40,106,o),
(115,-10,o),
(285,-10,cs)
);
}
);
vertWidth = 0;
width = 449;
},
{
anchors = (
{
name = center;
pos = (251,0);
}
);
layerId = "F394B0DB-5C84-43F6-ACB2-AE9DD557A8AE";
shapes = (
{
closed = 1;
nodes = (
(361,-10,o),
(402,0,o),
(438,19,c),
(438,97,l),
(401,80,o),
(357,66,o),
(299,66,cs),
(198,66,o),
(146,137,o),
(146,266,cs),
(146,400,o),
(197,469,o),
(304,469,cs),
(341,469,o),
(388,456,o),
(420,444,c),
(447,517,l),
(415,533,o),
(360,546,o),
(306,546,cs),
(162,546,o),
(55,463,o),
(55,265,cs),
(55,75,o),
(157,-10,o),
(300,-10,cs)
);
}
);
vertWidth = 0;
width = 480;
},
{
anchors = (
{
name = center;
pos = (278,0);
}
);
layerId = "6E6EE38D-3D27-4929-8DEE-9F0163F8D5EF";
shapes = (
{
closed = 1;
nodes = (
(394,-10,o),
(449,9,o),
(495,39,c),
(495,191,l),
(446,160,o),
(389,142,o),
(334,142,cs),
(276,142,o),
(236,179,o),
(236,275,cs),
(236,368,o),
(275,413,o),
(333,413,cs),
(375,413,o),
(412,400,o),
(458,380,c),
(514,521,l),
(462,547,o),
(401,563,o),
(333,563,cs),
(166,563,o),
(42,475,o),
(42,274,cs),
(42,77,o),
(150,-10,o),
(318,-10,cs)
);
}
);
vertWidth = 0;
width = 539;
}
);
production = uni217D;
unicode = 8573;
}
{
glyphname = "fivehundred-roman";
layers = (
{
layerId = "24810176-774E-47FD-8B80-D284CD1191FD";
shapes = (
{
closed = 1;
nodes = (
(372,-10,o),
(428,46,o),
(452,114,c),
(454,114,l),
(456,0,l),
(478,0,l),
(478,766,l),
(452,766,l),
(452,547,ls),
(452,504,o),
(452,462,o),
(454,417,c),
(452,417,l),
(430,487,o),
(371,542,o),
(274,542,cs),
(123,542,o),
(40,440,o),
(40,256,cs),
(40,83,o),
(113,-10,o),
(266,-10,cs)
);
},
{
closed = 1;
nodes = (
(131,15,o),
(67,95,o),
(67,256,cs),
(67,430,o),
(141,517,o),
(274,517,cs),
(394,517,o),
(452,429,o),
(452,268,cs),
(452,265,ls),
(452,107,o),
(399,15,o),
(266,15,cs)
);
}
);
vertWidth = 0;
width = 545;
},
{
layerId = "F394B0DB-5C84-43F6-ACB2-AE9DD557A8AE";
shapes = (
{
closed = 1;
nodes = (
(359,-10,o),
(410,26,o),
(442,72,c),
(446,72,l),
(459,0,l),
(530,0,l),
(530,760,l),
(442,760,l),
(442,546,ls),
(442,526,o),
(446,484,o),
(448,467,c),
(442,467,l),
(409,511,o),
(359,546,o),
(276,546,cs),
(143,546,o),
(55,451,o),
(55,267,cs),
(55,83,o),
(142,-10,o),
(275,-10,cs)
);
},
{
closed = 1;
nodes = (
(193,63,o),
(146,137,o),
(146,265,cs),
(146,392,o),
(193,473,o),
(288,473,cs),
(407,473,o),
(443,399,o),
(443,266,cs),
(443,250,ls),
(443,125,o),
(402,63,o),
(289,63,cs)
);
}
);
vertWidth = 0;
width = 615;
},
{
layerId = "6E6EE38D-3D27-4929-8DEE-9F0163F8D5EF";
shapes = (
{
closed = 1;
nodes = (
(314,-10,o),
(358,26,o),
(385,70,c),
(392,70,l),
(433,0,l),
(577,0,l),
(577,760,l),
(385,760,l),
(385,612,ls),
(385,565,o),
(389,510,o),
(394,482,c),
(390,482,l),
(361,528,o),
(319,563,o),
(245,563,cs),
(125,563,o),
(42,465,o),
(42,276,cs),
(42,89,o),
(124,-10,o),
(238,-10,cs)
);
},
{
closed = 1;
nodes = (
(268,141,o),
(235,181,o),
(235,273,cs),
(235,366,o),
(268,409,o),
(314,409,cs),
(381,409,o),
(401,361,o),
(401,274,cs),
(401,259,ls),
(399,179,o),
(377,141,o),
(316,141,cs)
);
}
);
vertWidth = 0;
width = 643;
}
);
production = uni217E;
unicode = 8574;
}
{
glyphname = "onethousand-roman";
layers = (
{
anchors = (
{
name = center;
pos = (409,0);
}
);
layerId = "24810176-774E-47FD-8B80-D284CD1191FD";
shapes = (
{
closed = 1;
nodes = (
(94,0,l),
(94,327,ls),
(94,462,o),
(172,517,o),
(266,517,cs),
(339,517,o),
(397,470,o),
(397,363,cs),
(397,0,l),
(423,0,l),
(423,327,ls),
(423,462,o),
(495,517,o),
(595,517,cs),
(669,517,o),
(726,470,o),
(726,363,cs),
(726,0,l),
(752,0,l),
(752,364,ls),
(752,485,o),
(686,542,o),
(595,542,cs),
(500,542,o),
(440,498,o),
(415,432,c),
(413,432,l),
(395,503,o),
(339,542,o),
(266,542,cs),
(163,542,o),
(116,484,o),
(95,435,c),
(93,435,l),
(88,532,l),
(67,532,l),
(67,0,l)
);
}
);
vertWidth = 0;
width = 819;
},
{
anchors = (
{
name = center;
pos = (469,0);
}
);
layerId = "F394B0DB-5C84-43F6-ACB2-AE9DD557A8AE";
shapes = (
{
closed = 1;
nodes = (
(173,0,l),
(173,278,ls),
(173,403,o),
(208,472,o),
(316,472,cs),
(391,472,o),
(426,429,o),
(426,345,cs),
(426,0,l),
(513,0,l),
(513,296,ls),
(513,410,o),
(554,472,o),
(658,472,cs),
(732,472,o),
(767,429,o),
(767,345,cs),
(767,0,l),
(854,0,l),
(854,349,ls),
(854,487,o),
(794,546,o),
(673,546,cs),
(603,546,o),
(537,517,o),
(501,456,c),
(496,456,l),
(470,517,o),
(414,546,o),
(332,546,cs),
(268,546,o),
(207,519,o),
(174,463,c),
(169,463,l),
(156,536,l),
(85,536,l),
(85,0,l)
);
}
);
vertWidth = 0;
width = 935;
},
{
anchors = (
{
name = center;
pos = (501,0);
}
);
layerId = "6E6EE38D-3D27-4929-8DEE-9F0163F8D5EF";
shapes = (
{
closed = 1;
nodes = (
(257,0,l),
(257,242,ls),
(257,352,o),
(275,413,o),
(341,413,cs),
(384,413,o),
(405,381,o),
(405,301,cs),
(405,0,l),
(596,0,l),
(596,258,ls),
(596,357,o),
(616,413,o),
(678,413,cs),
(722,413,o),
(745,385,o),
(745,301,cs),
(745,0,l),
(936,0,l),
(936,360,ls),
(936,502,o),
(867,563,o),
(741,563,cs),
(672,563,o),
(615,535,o),
(580,486,c),
(574,486,l),
(541,534,o),
(490,563,o),
(409,563,cs),
(327,563,o),
(272,530,o),
(243,485,c),
(238,485,l),
(210,553,l),
(66,553,l),
(66,0,l)
);
}
);
vertWidth = 0;
width = 1000;
}
);
production = uni217F;
unicode = 8575;
}
{
glyphname = "Onethousandcd-roman";
layers = (
{
layerId = "24810176-774E-47FD-8B80-D284CD1191FD";
shapes = (
{
closed = 1;
nodes = (
(704,0,ls),
(955,0,o),
(1077,126,o),
(1077,367,cs),
(1077,595,o),
(964,719,o),
(727,719,cs),
(397,719,ls),
(159,719,o),
(46,595,o),
(46,367,cs),
(46,126,o),
(168,0,o),
(420,0,cs)
);
},
{
closed = 1;
nodes = (
(187,25,o),
(74,137,o),
(74,366,cs),
(74,579,o),
(173,694,o),
(407,694,cs),
(549,694,l),
(549,25,l),
(417,25,ls)
);
},
{
closed = 1;
nodes = (
(575,694,l),
(717,694,ls),
(950,694,o),
(1050,579,o),
(1050,366,cs),
(1050,137,o),
(937,25,o),
(707,25,cs),
(575,25,l)
);
}
);
vertWidth = 0;
width = 1123;
},
{
layerId = "F394B0DB-5C84-43F6-ACB2-AE9DD557A8AE";
shapes = (
{
closed = 1;
nodes = (
(738,0,ls),
(974,0,o),
(1113,124,o),
(1113,367,cs),
(1113,597,o),
(975,719,o),
(759,719,cs),
(402,719,ls),
(186,719,o),
(48,597,o),
(48,367,cs),
(48,124,o),
(187,0,o),
(423,0,cs)
);
},
{
closed = 1;
nodes = (
(244,87,o),
(149,181,o),
(149,364,cs),
(149,548,o),
(245,632,o),
(412,632,cs),
(532,632,l),
(532,87,l),
(431,87,ls)
);
},
{
closed = 1;
nodes = (
(629,632,l),
(749,632,ls),
(917,632,o),
(1012,548,o),
(1012,364,cs),
(1012,181,o),
(917,87,o),
(730,87,cs),
(629,87,l)
);
}
);
vertWidth = 0;
width = 1161;
},
{
layerId = "6E6EE38D-3D27-4929-8DEE-9F0163F8D5EF";
shapes = (
{
closed = 1;
nodes = (
(695,0,ls),
(922,0,o),
(1070,123,o),
(1070,372,cs),
(1070,593,o),
(941,714,o),
(711,714,cs),
(410,714,ls),
(180,714,o),
(51,593,o),
(51,372,cs),
(51,123,o),
(199,0,o),
(426,0,cs)
);
},
{
closed = 1;
nodes = (
(304,158,o),
(251,225,o),
(251,365,cs),
(251,495,o),
(303,558,o),
(408,558,cs),
(464,558,l),
(464,158,l),
(421,158,ls)
);
},
{
closed = 1;
nodes = (
(657,558,l),
(713,558,ls),
(818,558,o),
(870,495,o),
(870,365,cs),
(870,225,o),
(817,158,o),
(700,158,cs),
(657,158,l)
);
}
);
vertWidth = 0;
width = 1121;
}
);
production = uni2180;
unicode = 8576;
}
{
glyphname = "Fivethousand-roman";
layers = (
{
layerId = "24810176-774E-47FD-8B80-D284CD1191FD";
shapes = (
{
closed = 1;
nodes = (
(232,0,ls),
(484,0,o),
(606,126,o),
(606,367,cs),
(606,595,o),
(493,719,o),
(255,719,cs),
(77,719,l),
(77,0,l)
);
},
{
closed = 1;
nodes = (
(104,546,l),
(187,546,ls),
(317,546,o),
(373,482,o),
(373,363,cs),
(373,235,o),
(310,173,o),
(181,173,cs),
(104,173,l)
);
},
{
closed = 1;
nodes = (
(104,147,l),
(180,147,ls),
(328,147,o),
(400,222,o),
(400,364,cs),
(400,499,o),
(334,572,o),
(193,572,cs),
(104,572,l),
(104,694,l),
(246,694,ls),
(479,694,o),
(579,579,o),
(579,366,cs),
(579,137,o),
(466,25,o),
(235,25,cs),
(104,25,l)
);
}
);
vertWidth = 0;
width = 652;
},
{
layerId = "F394B0DB-5C84-43F6-ACB2-AE9DD557A8AE";
shapes = (
{
closed = 1;
nodes = (
(284,0,ls),
(520,0,o),
(659,125,o),
(659,367,cs),
(659,598,o),
(521,720,o),
(305,720,cs),
(77,720,l),
(77,0,l)
);
},
{
closed = 1;
nodes = (
(175,516,l),
(234,516,ls),
(332,516,o),
(387,468,o),
(387,363,cs),
(387,258,o),
(332,205,o),
(224,205,cs),
(175,205,l)
);
},
{
closed = 1;
nodes = (
(175,155,l),
(243,155,ls),
(380,155,o),
(460,226,o),
(460,364,cs),
(460,496,o),
(380,565,o),
(255,565,cs),
(175,565,l),
(175,633,l),
(295,633,ls),
(462,633,o),
(558,549,o),
(558,364,cs),
(558,181,o),
(463,87,o),
(276,87,cs),
(175,87,l)
);
}
);
vertWidth = 0;
width = 707;
},
{
layerId = "6E6EE38D-3D27-4929-8DEE-9F0163F8D5EF";
shapes = (
{
closed = 1;
nodes = (
(308,0,ls),
(535,0,o),
(683,123,o),
(683,372,cs),
(683,593,o),
(554,714,o),
(324,714,cs),
(77,714,l),
(77,0,l)
);
},
{
closed = 1;
nodes = (
(260,438,l),
(284,438,ls),
(320,438,o),
(341,414,o),
(341,361,cs),
(341,308,o),
(319,281,o),
(276,281,cs),
(260,281,l)
);
},
{
closed = 1;
nodes = (
(260,194,l),
(289,194,ls),
(387,194,o),
(444,251,o),
(444,362,cs),
(444,468,o),
(387,525,o),
(298,525,cs),
(260,525,l),
(260,568,l),
(326,568,ls),
(438,568,o),
(493,501,o),
(493,365,cs),
(493,218,o),
(437,148,o),
(313,148,cs),
(260,148,l)
);
}
);
vertWidth = 0;
width = 734;
}
);
production = uni2181;
unicode = 8577;
}
{
glyphname = "Tenthousand-roman";
layers = (
{
anchors = (
{
name = center;
pos = (561,0);
}
);
layerId = "24810176-774E-47FD-8B80-D284CD1191FD";
shapes = (
{
closed = 1;
nodes = (
(703,0,ls),
(955,0,o),
(1077,126,o),
(1077,367,cs),
(1077,595,o),
(964,719,o),
(726,719,cs),
(396,719,ls),
(159,719,o),
(46,595,o),
(46,367,cs),
(46,126,o),
(168,0,o),
(419,0,cs)
);
},
{
closed = 1;
nodes = (
(186,25,o),
(73,137,o),
(73,366,cs),
(73,579,o),
(173,694,o),
(406,694,cs),
(548,694,l),
(548,572,l),
(458,572,ls),
(318,572,o),
(252,499,o),
(252,364,cs),
(252,222,o),
(324,147,o),
(472,147,cs),
(548,147,l),
(548,25,l),
(417,25,ls)
);
},
{
closed = 1;
nodes = (
(342,173,o),
(279,235,o),
(279,363,cs),
(279,482,o),
(335,546,o),
(465,546,cs),
(548,546,l),
(548,173,l),
(471,173,ls)
);
},
{
closed = 1;
nodes = (
(574,546,l),
(657,546,ls),
(788,546,o),
(843,482,o),
(843,363,cs),
(843,235,o),
(780,173,o),
(651,173,cs),
(574,173,l)
);
},
{
closed = 1;
nodes = (
(574,147,l),
(651,147,ls),
(799,147,o),
(871,222,o),
(871,364,cs),
(871,499,o),
(805,572,o),
(664,572,cs),
(574,572,l),
(574,694,l),
(716,694,ls),
(950,694,o),
(1049,579,o),
(1049,366,cs),
(1049,137,o),
(937,25,o),
(706,25,cs),
(574,25,l)
);
}
);
vertWidth = 0;
width = 1123;
},
{
anchors = (
{
name = center;
pos = (580,0);
}
);
layerId = "F394B0DB-5C84-43F6-ACB2-AE9DD557A8AE";
shapes = (
{
closed = 1;
nodes = (
(738,0,ls),
(974,0,o),
(1113,124,o),
(1113,367,cs),
(1113,597,o),
(975,719,o),
(759,719,cs),
(402,719,ls),
(186,719,o),
(48,597,o),
(48,367,cs),
(48,124,o),
(187,0,o),
(423,0,cs)
);
},
{
closed = 1;
nodes = (
(244,87,o),
(149,181,o),
(149,364,cs),
(149,548,o),
(245,632,o),
(412,632,cs),
(532,632,l),
(532,565,l),
(452,565,ls),
(327,565,o),
(247,495,o),
(247,364,cs),
(247,226,o),
(327,155,o),
(464,155,cs),
(532,155,l),
(532,87,l),
(431,87,ls)
);
},
{
closed = 1;
nodes = (
(375,204,o),
(320,258,o),
(320,362,cs),
(320,467,o),
(375,515,o),
(473,515,cs),
(532,515,l),
(532,204,l),
(483,204,ls)
);
},
{
closed = 1;
nodes = (
(629,515,l),
(688,515,ls),
(786,515,o),
(841,467,o),
(841,362,cs),
(841,258,o),
(786,204,o),
(678,204,cs),
(629,204,l)
);
},
{
closed = 1;
nodes = (
(629,155,l),
(697,155,ls),
(834,155,o),
(915,226,o),
(915,364,cs),
(915,495,o),
(834,565,o),
(709,565,cs),
(629,565,l),
(629,632,l),
(749,632,ls),
(917,632,o),
(1012,548,o),
(1012,364,cs),
(1012,181,o),
(917,87,o),
(730,87,cs),
(629,87,l)
);
}
);
vertWidth = 0;
width = 1161;
},
{
anchors = (
{
name = center;
pos = (560,0);
}
);
layerId = "6E6EE38D-3D27-4929-8DEE-9F0163F8D5EF";
shapes = (
{
closed = 1;
nodes = (
(695,0,ls),
(922,0,o),
(1070,123,o),
(1070,372,cs),
(1070,593,o),
(941,714,o),
(711,714,cs),
(410,714,ls),
(180,714,o),
(51,593,o),
(51,372,cs),
(51,123,o),
(199,0,o),
(426,0,cs)
);
},
{
closed = 1;
nodes = (
(297,148,o),
(241,218,o),
(241,365,cs),
(241,501,o),
(296,568,o),
(408,568,cs),
(474,568,l),
(474,525,l),
(436,525,ls),
(347,525,o),
(290,468,o),
(290,362,cs),
(290,251,o),
(347,194,o),
(445,194,cs),
(474,194,l),
(474,148,l),
(421,148,ls)
);
},
{
closed = 1;
nodes = (
(415,281,o),
(393,308,o),
(393,361,cs),
(393,414,o),
(414,438,o),
(450,438,cs),
(474,438,l),
(474,281,l),
(458,281,ls)
);
},
{
closed = 1;
nodes = (
(647,438,l),
(670,438,ls),
(707,438,o),
(728,414,o),
(728,361,cs),
(728,308,o),
(706,281,o),
(663,281,cs),
(647,281,l)
);
},
{
closed = 1;
nodes = (
(647,194,l),
(676,194,ls),
(773,194,o),
(831,251,o),
(831,362,cs),
(831,468,o),
(774,525,o),
(685,525,cs),
(647,525,l),
(647,568,l),
(713,568,ls),
(824,568,o),
(879,501,o),
(879,365,cs),
(879,218,o),
(824,148,o),
(700,148,cs),
(647,148,l)
);
}
);
vertWidth = 0;
width = 1121;
}
);
production = uni2182;
unicode = 8578;
}
{
glyphname = "Onehundredreversed-roman";
layers = (
{
anchors = (
{
name = center;
pos = (341,0);
}
);
layerId = "24810176-774E-47FD-8B80-D284CD1191FD";
shapes = (
{
closed = 1;
nodes = (
(494,-20,o),
(605,134,o),
(605,362,cs),
(605,582,o),
(504,738,o),
(282,738,cs),
(204,738,o),
(131,719,o),
(77,694,c),
(86,667,l),
(146,699,o),
(219,712,o),
(281,712,cs),
(483,712,o),
(577,568,o),
(577,362,cs),
(577,146,o),
(476,6,o),
(254,6,cs),
(186,6,o),
(131,18,o),
(82,36,c),
(82,10,l),
(127,-7,o),
(182,-20,o),
(252,-20,cs)
);
}
);
vertWidth = 0;
width = 642;
},
{
anchors = (
{
name = center;
pos = (317,0);
}
);
layerId = "F394B0DB-5C84-43F6-ACB2-AE9DD557A8AE";
shapes = (
{
closed = 1;
nodes = (
(470,-20,o),
(596,134,o),
(596,358,cs),
(596,590,o),
(483,738,o),
(257,738,cs),
(167,738,o),
(93,722,o),
(38,694,c),
(76,613,l),
(122,634,o),
(176,653,o),
(242,653,cs),
(410,653,o),
(495,540,o),
(495,359,cs),
(495,176,o),
(398,65,o),
(242,65,cs),
(179,65,o),
(124,77,o),
(67,94,c),
(67,10,l),
(122,-11,o),
(175,-20,o),
(257,-20,cs)
);
}
);
vertWidth = 0;
width = 642;
},
{
anchors = (
{
name = center;
pos = (295,0);
}
);
layerId = "6E6EE38D-3D27-4929-8DEE-9F0163F8D5EF";
shapes = (
{
closed = 1;
nodes = (
(461,-18,o),
(587,136,o),
(587,358,cs),
(587,589,o),
(474,735,o),
(247,735,cs),
(162,735,o),
(78,714,o),
(3,677,c),
(66,542,l),
(121,566,o),
(181,588,o),
(233,588,cs),
(362,588,o),
(426,500,o),
(426,359,cs),
(426,216,o),
(353,129,o),
(233,129,cs),
(182,129,o),
(116,145,o),
(41,167,c),
(41,20,l),
(109,-6,o),
(168,-18,o),
(247,-18,cs)
);
}
);
vertWidth = 0;
width = 642;
}
);
production = uni2183;
unicode = 8579;
}
{
glyphname = "sixlateform-roman";
layers = (
{
layerId = "24810176-774E-47FD-8B80-D284CD1191FD";
shapes = (
{
closed = 1;
nodes = (
(442,-258,l),
(442,9,l),
(428,7,o),
(423,6,o),
(407,6,cs),
(186,6,o),
(63,142,o),
(63,362,cs),
(63,563,o),
(182,712,o),
(389,712,cs),
(446,712,o),
(503,705,o),
(563,674,c),
(572,699,l),
(516,725,o),
(456,738,o),
(389,738,cs),
(168,738,o),
(36,577,o),
(36,362,cs),
(36,134,o),
(167,-19,o),
(416,-19,c),
(416,-258,l)
);
}
);
vertWidth = 0;
width = 642;
},
{
layerId = "F394B0DB-5C84-43F6-ACB2-AE9DD557A8AE";
shapes = (
{
closed = 1;
nodes = (
(496,-258,l),
(496,79,l),
(468,69,o),
(438,66,o),
(404,66,cs),
(223,66,o),
(147,177,o),
(147,358,cs),
(147,542,o),
(245,653,o),
(407,653,cs),
(476,653,o),
(531,634,o),
(578,613,c),
(618,694,l),
(561,721,o),
(487,738,o),
(410,738,cs),
(179,738,o),
(46,582,o),
(46,359,cs),
(46,139,o),
(147,-20,o),
(403,-20,c),
(403,-258,l)
);
}
);
vertWidth = 0;
width = 642;
},
{
layerId = "6E6EE38D-3D27-4929-8DEE-9F0163F8D5EF";
shapes = (
{
closed = 1;
nodes = (
(499,-232,l),
(499,157,l),
(441,136,o),
(408,130,o),
(381,130,cs),
(242,130,o),
(185,216,o),
(185,358,cs),
(185,502,o),
(260,588,o),
(384,588,cs),
(439,588,o),
(499,566,o),
(554,541,c),
(622,677,l),
(545,713,o),
(460,735,o),
(386,735,cs),
(156,735,o),
(23,580,o),
(23,359,cs),
(23,151,o),
(115,-2,o),
(345,-17,c),
(345,-232,l)
);
}
);
vertWidth = 0;
width = 642;
}
);
production = uni2185;
unicode = 8581;
}
{
glyphname = "fiftyearlyform-roman";
layers = (
{
anchors = (
{
name = center;
pos = (273,0);
}
);
layerId = "24810176-774E-47FD-8B80-D284CD1191FD";
shapes = (
{
closed = 1;
nodes = (
(279,-69,l),
(482,115,l),
(482,148,l),
(277,-37,l),
(287,-50,l),
(287,719,l),
(260,719,l),
(260,-50,l),
(270,-37,l),
(65,148,l),
(65,115,l),
(268,-69,l)
);
}
);
vertWidth = 0;
width = 547;
},
{
anchors = (
{
name = center;
pos = (273,0);
}
);
layerId = "F394B0DB-5C84-43F6-ACB2-AE9DD557A8AE";
shapes = (
{
closed = 1;
nodes = (
(279,-69,l),
(518,148,l),
(518,261,l),
(313,77,l),
(322,53,l),
(322,719,l),
(225,719,l),
(225,53,l),
(234,77,l),
(29,261,l),
(29,148,l),
(268,-69,l)
);
}
);
vertWidth = 0;
width = 547;
},
{
anchors = (
{
name = center;
pos = (274,0);
}
);
layerId = "6E6EE38D-3D27-4929-8DEE-9F0163F8D5EF";
shapes = (
{
closed = 1;
nodes = (
(292,-62,l),
(529,153,l),
(529,349,l),
(337,175,l),
(353,153,l),
(353,719,l),
(194,719,l),
(194,154,l),
(210,176,l),
(19,349,l),
(19,153,l),
(255,-62,l)
);
}
);
vertWidth = 0;
width = 547;
}
);
production = uni2186;
unicode = 8582;
}
{
glyphname = "fiftythousand-roman";
layers = (
{
layerId = "24810176-774E-47FD-8B80-D284CD1191FD";
shapes = (
{
closed = 1;
nodes = (
(232,0,ls),
(484,0,o),
(606,126,o),
(606,367,cs),
(606,595,o),
(493,719,o),
(255,719,cs),
(77,719,l),
(77,0,l)
);
},
{
closed = 1;
nodes = (
(104,487,l),
(163,487,ls),
(251,487,o),
(289,443,o),
(289,362,cs),
(289,275,o),
(246,232,o),
(159,232,cs),
(104,232,l)
);
},
{
closed = 1;
nodes = (
(104,207,l),
(158,207,ls),
(265,207,o),
(316,261,o),
(316,363,cs),
(316,459,o),
(269,512,o),
(168,512,cs),
(104,512,l),
(104,590,l),
(205,590,ls),
(365,590,o),
(434,511,o),
(434,364,cs),
(434,206,o),
(356,129,o),
(197,129,cs),
(104,129,l)
);
},
{
closed = 1;
nodes = (
(104,104,l),
(195,104,ls),
(375,104,o),
(461,193,o),
(461,365,cs),
(461,527,o),
(381,616,o),
(212,616,cs),
(104,616,l),
(104,694,l),
(246,694,ls),
(479,694,o),
(579,579,o),
(579,366,cs),
(579,137,o),
(466,25,o),
(235,25,cs),
(104,25,l)
);
}
);
vertWidth = 0;
width = 652;
},
{
layerId = "F394B0DB-5C84-43F6-ACB2-AE9DD557A8AE";
shapes = (
{
closed = 1;
nodes = (
(284,0,ls),
(520,0,o),
(659,124,o),
(659,367,cs),
(659,597,o),
(521,719,o),
(305,719,cs),
(77,719,l),
(77,0,l)
);
},
{
closed = 1;
nodes = (
(175,477,l),
(207,477,ls),
(279,477,o),
(320,441,o),
(320,361,cs),
(320,283,o),
(279,243,o),
(199,243,cs),
(175,243,l)
);
},
{
closed = 1;
nodes = (
(175,205,l),
(222,205,ls),
(323,205,o),
(383,258,o),
(383,363,cs),
(383,462,o),
(324,514,o),
(230,514,cs),
(175,514,l),
(175,545,l),
(252,545,ls),
(366,545,o),
(431,488,o),
(431,363,cs),
(431,238,o),
(366,174,o),
(239,174,cs),
(175,174,l)
);
},
{
closed = 1;
nodes = (
(175,115,l),
(249,115,ls),
(410,115,o),
(504,200,o),
(504,365,cs),
(504,521,o),
(411,604,o),
(263,604,cs),
(175,604,l),
(175,632,l),
(295,632,ls),
(462,632,o),
(558,548,o),
(558,364,cs),
(558,181,o),
(463,87,o),
(276,87,cs),
(175,87,l)
);
}
);
vertWidth = 0;
width = 707;
},
{
layerId = "6E6EE38D-3D27-4929-8DEE-9F0163F8D5EF";
shapes = (
{
closed = 1;
nodes = (
(308,0,ls),
(535,0,o),
(683,123,o),
(683,372,cs),
(683,593,o),
(554,714,o),
(324,714,cs),
(77,714,l),
(77,0,l)
);
},
{
closed = 1;
nodes = (
(236,426,l),
(255,426,ls),
(286,426,o),
(303,416,o),
(303,361,cs),
(303,306,o),
(286,293,o),
(251,293,cs),
(236,293,l)
);
},
{
closed = 1;
nodes = (
(236,247,l),
(259,247,ls),
(322,247,o),
(359,275,o),
(359,361,cs),
(359,444,o),
(322,472,o),
(264,472,cs),
(236,472,l),
(236,503,l),
(282,503,ls),
(347,503,o),
(385,469,o),
(385,362,cs),
(385,254,o),
(347,215,o),
(273,215,cs),
(236,215,l)
);
},
{
closed = 1;
nodes = (
(236,150,l),
(289,150,ls),
(409,150,o),
(479,212,o),
(479,363,cs),
(479,508,o),
(410,569,o),
(299,569,cs),
(236,569,l),
(236,592,l),
(326,592,ls),
(454,592,o),
(517,518,o),
(517,365,cs),
(517,202,o),
(454,124,o),
(313,124,cs),
(236,124,l)
);
}
);
vertWidth = 0;
width = 734;
}
);
production = uni2187;
unicode = 8583;
}
{
glyphname = "Onehundredthousand-roman";
layers = (
{
layerId = "24810176-774E-47FD-8B80-D284CD1191FD";
shapes = (
{
closed = 1;
nodes = (
(703,0,ls),
(955,0,o),
(1077,126,o),
(1077,367,cs),
(1077,595,o),
(964,719,o),
(726,719,cs),
(396,719,ls),
(159,719,o),
(46,595,o),
(46,367,cs),
(46,126,o),
(168,0,o),
(419,0,cs)
);
},
{
closed = 1;
nodes = (
(186,25,o),
(73,137,o),
(73,366,cs),
(73,579,o),
(173,694,o),
(406,694,cs),
(548,694,l),
(548,616,l),
(440,616,ls),
(271,616,o),
(190,527,o),
(190,365,cs),
(190,193,o),
(277,104,o),
(457,104,cs),
(548,104,l),
(548,25,l),
(417,25,ls)
);
},
{
closed = 1;
nodes = (
(295,129,o),
(218,206,o),
(218,364,cs),
(218,511,o),
(287,590,o),
(447,590,cs),
(548,590,l),
(548,512,l),
(484,512,ls),
(383,512,o),
(335,459,o),
(335,363,cs),
(335,261,o),
(387,207,o),
(494,207,cs),
(548,207,l),
(548,129,l),
(455,129,ls)
);
},
{
closed = 1;
nodes = (
(406,232,o),
(363,275,o),
(363,362,cs),
(363,443,o),
(401,487,o),
(489,487,cs),
(548,487,l),
(548,232,l),
(493,232,ls)
);
},
{
closed = 1;
nodes = (
(574,487,l),
(633,487,ls),
(722,487,o),
(760,443,o),
(760,362,cs),
(760,275,o),
(717,232,o),
(629,232,cs),
(574,232,l)
);
},
{
closed = 1;
nodes = (
(574,207,l),
(629,207,ls),
(735,207,o),
(787,261,o),
(787,363,cs),
(787,459,o),
(740,512,o),
(639,512,cs),
(574,512,l),
(574,590,l),
(675,590,ls),
(836,590,o),
(905,511,o),
(905,364,cs),
(905,206,o),
(827,129,o),
(668,129,cs),
(574,129,l)
);
},
{
closed = 1;
nodes = (
(574,104,l),
(666,104,ls),
(845,104,o),
(932,193,o),
(932,365,cs),
(932,527,o),
(852,616,o),
(683,616,cs),
(574,616,l),
(574,694,l),
(716,694,ls),
(950,694,o),
(1049,579,o),
(1049,366,cs),
(1049,137,o),
(937,25,o),
(706,25,cs),
(574,25,l)
);
}
);
vertWidth = 0;
width = 1123;
},
{
layerId = "F394B0DB-5C84-43F6-ACB2-AE9DD557A8AE";
shapes = (
{
closed = 1;
nodes = (
(739,0,ls),
(975,0,o),
(1114,124,o),
(1114,367,cs),
(1114,597,o),
(976,719,o),
(760,719,cs),
(402,719,ls),
(186,719,o),
(48,597,o),
(48,367,cs),
(48,124,o),
(187,0,o),
(423,0,cs)
);
},
{
closed = 1;
nodes = (
(244,87,o),
(149,181,o),
(149,364,cs),
(149,548,o),
(245,632,o),
(412,632,cs),
(532,632,l),
(532,604,l),
(444,604,ls),
(296,604,o),
(203,521,o),
(203,365,cs),
(203,200,o),
(297,115,o),
(458,115,cs),
(532,115,l),
(532,87,l),
(431,87,ls)
);
},
{
closed = 1;
nodes = (
(341,174,o),
(276,238,o),
(276,363,cs),
(276,488,o),
(341,545,o),
(455,545,cs),
(532,545,l),
(532,514,l),
(477,514,ls),
(383,514,o),
(324,462,o),
(324,363,cs),
(324,258,o),
(384,205,o),
(485,205,cs),
(532,205,l),
(532,174,l),
(468,174,ls)
);
},
{
closed = 1;
nodes = (
(428,243,o),
(387,283,o),
(387,361,cs),
(387,441,o),
(428,477,o),
(500,477,cs),
(532,477,l),
(532,243,l),
(508,243,ls)
);
},
{
closed = 1;
nodes = (
(630,477,l),
(662,477,ls),
(734,477,o),
(775,441,o),
(775,361,cs),
(775,283,o),
(734,243,o),
(654,243,cs),
(630,243,l)
);
},
{
closed = 1;
nodes = (
(630,205,l),
(677,205,ls),
(778,205,o),
(838,258,o),
(838,363,cs),
(838,462,o),
(779,514,o),
(686,514,cs),
(630,514,l),
(630,545,l),
(707,545,ls),
(821,545,o),
(886,488,o),
(886,363,cs),
(886,238,o),
(821,174,o),
(694,174,cs),
(630,174,l)
);
},
{
closed = 1;
nodes = (
(630,115,l),
(704,115,ls),
(865,115,o),
(959,200,o),
(959,365,cs),
(959,521,o),
(866,604,o),
(718,604,cs),
(630,604,l),
(630,632,l),
(750,632,ls),
(917,632,o),
(1013,548,o),
(1013,364,cs),
(1013,181,o),
(918,87,o),
(731,87,cs),
(630,87,l)
);
}
);
vertWidth = 0;
width = 1162;
},
{
layerId = "6E6EE38D-3D27-4929-8DEE-9F0163F8D5EF";
shapes = (
{
closed = 1;
nodes = (
(729,0,ls),
(956,0,o),
(1104,123,o),
(1104,372,cs),
(1104,593,o),
(975,714,o),
(745,714,cs),
(410,714,ls),
(180,714,o),
(51,593,o),
(51,372,cs),
(51,123,o),
(199,0,o),
(426,0,cs)
);
},
{
closed = 1;
nodes = (
(280,124,o),
(217,202,o),
(217,365,cs),
(217,518,o),
(280,592,o),
(408,592,cs),
(498,592,l),
(498,569,l),
(435,569,ls),
(324,569,o),
(254,508,o),
(254,363,cs),
(254,212,o),
(325,150,o),
(445,150,cs),
(498,150,l),
(498,124,l),
(421,124,ls)
);
},
{
closed = 1;
nodes = (
(387,215,o),
(349,254,o),
(349,362,cs),
(349,469,o),
(387,503,o),
(452,503,cs),
(498,503,l),
(498,472,l),
(470,472,ls),
(412,472,o),
(375,444,o),
(375,361,cs),
(375,275,o),
(412,247,o),
(475,247,cs),
(498,247,l),
(498,215,l),
(461,215,ls)
);
},
{
closed = 1;
nodes = (
(448,293,o),
(431,306,o),
(431,361,cs),
(431,416,o),
(448,426,o),
(479,426,cs),
(498,426,l),
(498,293,l),
(483,293,ls)
);
},
{
closed = 1;
nodes = (
(657,426,l),
(676,426,ls),
(707,426,o),
(724,416,o),
(724,361,cs),
(724,306,o),
(707,293,o),
(672,293,cs),
(657,293,l)
);
},
{
closed = 1;
nodes = (
(657,247,l),
(680,247,ls),
(743,247,o),
(780,275,o),
(780,361,cs),
(780,444,o),
(743,472,o),
(685,472,cs),
(657,472,l),
(657,503,l),
(703,503,ls),
(768,503,o),
(806,469,o),
(806,362,cs),
(806,254,o),
(768,215,o),
(694,215,cs),
(657,215,l)
);
},
{
closed = 1;
nodes = (
(657,150,l),
(709,150,ls),
(830,150,o),
(900,212,o),
(900,363,cs),
(900,508,o),
(831,569,o),
(720,569,cs),
(657,569,l),
(657,592,l),
(747,592,ls),
(875,592,o),
(938,518,o),
(938,365,cs),
(938,202,o),
(875,124,o),
(734,124,cs),
(657,124,l)
);
}
);
vertWidth = 0;
width = 1155;
}
);
production = uni2188;
unicode = 8584;
}
{
glyphname = twoTurned;
layers = (
{
anchors = (
{
name = center;
pos = (296,0);
}
);
layerId = "24810176-774E-47FD-8B80-D284CD1191FD";
shapes = (
{
closed = 1;
nodes = (
(361,-10,o),
(430,9,o),
(491,59,c),
(476,79,l),
(423,36,o),
(365,15,o),
(303,15,cs),
(202,15,o),
(140,73,o),
(140,178,cs),
(140,273,o),
(190,351,o),
(288,454,cs),
(512,691,l),
(512,714,l),
(80,714,l),
(80,689,l),
(477,689,l),
(268,468,ls),
(170,365,o),
(113,279,o),
(113,177,cs),
(113,61,o),
(189,-10,o),
(302,-10,cs)
);
}
);
vertWidth = 0;
width = 582;
},
{
anchors = (
{
name = center;
pos = (298,0);
}
);
layerId = "F394B0DB-5C84-43F6-ACB2-AE9DD557A8AE";
shapes = (
{
closed = 1;
nodes = (
(403,-30,o),
(474,7,o),
(531,55,c),
(483,134,l),
(427,78,o),
(376,55,o),
(311,55,cs),
(228,55,o),
(179,96,o),
(179,180,cs),
(179,274,o),
(236,349,o),
(348,462,cs),
(540,655,l),
(540,729,l),
(57,729,l),
(57,644,l),
(418,644,l),
(266,493,ls),
(152,380,o),
(79,292,o),
(79,174,cs),
(79,47,o),
(165,-30,o),
(304,-30,cs)
);
}
);
vertWidth = 0;
width = 582;
},
{
anchors = (
{
name = center;
pos = (286,0);
}
);
layerId = "6E6EE38D-3D27-4929-8DEE-9F0163F8D5EF";
shapes = (
{
closed = 1;
nodes = (
(392,-43,o),
(471,2,o),
(541,62,c),
(458,183,l),
(394,131,o),
(343,104,o),
(296,104,cs),
(240,104,o),
(211,141,o),
(211,199,cs),
(211,274,o),
(262,349,o),
(354,442,cs),
(536,627,l),
(536,744,l),
(31,744,l),
(31,597,l),
(306,597,l),
(229,519,ls),
(124,412,o),
(50,317,o),
(50,190,cs),
(50,49,o),
(145,-43,o),
(287,-43,cs)
);
}
);
vertWidth = 0;
width = 582;
}
);
production = uni218A;
unicode = 8586;
}
{
glyphname = threeTurned;
layers = (
{
anchors = (
{
name = center;
pos = (321,0);
}
);
layerId = "24810176-774E-47FD-8B80-D284CD1191FD";
shapes = (
{
closed = 1;
nodes = (
(406,-10,o),
(477,19,o),
(536,64,c),
(522,85,l),
(457,38,o),
(393,15,o),
(318,15,cs),
(216,15,o),
(148,63,o),
(148,163,cs),
(148,279,o),
(246,330,o),
(352,330,cs),
(435,330,l),
(435,355,l),
(352,355,ls),
(219,355,o),
(126,400,o),
(126,520,cs),
(126,629,o),
(200,699,o),
(344,699,cs),
(418,699,o),
(494,679,o),
(544,654,c),
(544,682,l),
(493,706,o),
(423,724,o),
(344,724,cs),
(184,724,o),
(99,639,o),
(99,520,cs),
(99,414,o),
(162,356,o),
(273,341,c),
(273,339,l),
(186,324,o),
(121,259,o),
(121,162,cs),
(121,53,o),
(201,-10,o),
(318,-10,cs)
);
}
);
vertWidth = 0;
width = 639;
},
{
anchors = (
{
name = center;
pos = (317,0);
}
);
layerId = "F394B0DB-5C84-43F6-ACB2-AE9DD557A8AE";
shapes = (
{
closed = 1;
nodes = (
(430,-30,o),
(502,10,o),
(554,50,c),
(510,112,l),
(457,76,o),
(402,53,o),
(332,53,cs),
(243,53,o),
(195,95,o),
(195,166,cs),
(195,246,o),
(258,304,o),
(376,304,cs),
(448,304,l),
(449,390,l),
(378,390,ls),
(249,390,o),
(173,427,o),
(173,525,cs),
(173,609,o),
(229,666,o),
(356,666,cs),
(426,666,o),
(499,649,o),
(561,619,c),
(562,708,l),
(501,738,o),
(427,748,o),
(358,748,cs),
(157,748,o),
(72,647,o),
(72,528,cs),
(72,433,o),
(129,358,o),
(244,343,c),
(244,339,l),
(160,319,o),
(94,249,o),
(94,151,cs),
(94,47,o),
(169,-30,o),
(321,-30,cs)
);
}
);
vertWidth = 0;
width = 639;
},
{
anchors = (
{
name = center;
pos = (304,0);
}
);
layerId = "6E6EE38D-3D27-4929-8DEE-9F0163F8D5EF";
shapes = (
{
closed = 1;
nodes = (
(421,-43,o),
(499,5,o),
(563,58,c),
(484,169,l),
(425,129,o),
(372,102,o),
(315,102,cs),
(260,102,o),
(227,127,o),
(227,178,cs),
(227,239,o),
(271,276,o),
(355,276,cs),
(455,276,l),
(456,423,l),
(356,423,ls),
(262,423,o),
(207,446,o),
(207,514,cs),
(207,574,o),
(250,611,o),
(332,611,cs),
(397,611,o),
(472,589,o),
(556,547,c),
(557,706,l),
(483,743,o),
(406,755,o),
(335,755,cs),
(132,755,o),
(46,655,o),
(46,523,cs),
(46,426,o),
(93,364,o),
(183,332,c),
(181,347,l),
(109,310,o),
(65,250,o),
(65,160,cs),
(65,37,o),
(150,-43,o),
(299,-43,cs)
);
}
);
vertWidth = 0;
width = 639;
}
);
production = uni218B;
unicode = 8587;
}
{
glyphname = leftArrow;
layers = (
{
layerId = "24810176-774E-47FD-8B80-D284CD1191FD";
shapes = (
{
closed = 1;
nodes = (
(309,231,l),
(289,270,o),
(267,303,o),
(239,334,c),
(239,350,l),
(267,381,o),
(289,414,o),
(309,453,c),
(289,453,l),
(248,406,o),
(205,371,o),
(159,346,c),
(159,338,l),
(205,313,o),
(248,278,o),
(289,231,c)
);
},
{
closed = 1;
nodes = (
(841,329,l),
(841,355,l),
(237,355,l),
(237,329,l)
);
}
);
vertWidth = 0;
width = 1000;
},
{
layerId = "F394B0DB-5C84-43F6-ACB2-AE9DD557A8AE";
shapes = (
{
closed = 1;
nodes = (
(321,225,l),
(299,271,o),
(278,305,o),
(258,327,c),
(258,357,l),
(278,379,o),
(299,413,o),
(321,459,c),
(286,459,l),
(244,410,o),
(200,374,o),
(154,351,c),
(154,333,l),
(200,310,o),
(244,274,o),
(286,225,c)
);
},
{
closed = 1;
nodes = (
(846,321,l),
(846,363,l),
(253,363,l),
(253,321,l)
);
}
);
vertWidth = 0;
width = 1000;
},
{
layerId = "6E6EE38D-3D27-4929-8DEE-9F0163F8D5EF";
shapes = (
{
closed = 1;
nodes = (
(389,201,l),
(377,235,o),
(360,269,o),
(336,303,c),
(336,380,l),
(360,415,o),
(378,449,o),
(389,483,c),
(285,483,l),
(244,434,o),
(198,397,o),
(148,371,c),
(148,312,l),
(199,287,o),
(244,249,o),
(285,201,c)
);
},
{
closed = 1;
nodes = (
(852,288,l),
(852,396,l),
(331,396,l),
(330,288,l)
);
}
);
vertWidth = 0;
width = 1000;
}
);
note = arrowleft;
production = arrowleft;
unicode = 8592;
}
{
glyphname = upArrow;
layers = (
{
anchors = (
{
name = center;
pos = (250,0);
}
);
layerId = "24810176-774E-47FD-8B80-D284CD1191FD";
shapes = (
{
closed = 1;
nodes = (
(263,0,l),
(263,599,l),
(292,575,o),
(324,554,o),
(361,535,c),
(361,552,l),
(313,592,o),
(278,635,o),
(254,682,c),
(246,682,l),
(222,635,o),
(187,592,o),
(139,552,c),
(139,535,l),
(176,554,o),
(208,575,o),
(237,599,c),
(237,0,l)
);
}
);
vertWidth = 0;
width = 500;
},
{
anchors = (
{
name = center;
pos = (250,0);
}
);
layerId = "F394B0DB-5C84-43F6-ACB2-AE9DD557A8AE";
shapes = (
{
closed = 1;
nodes = (
(271,0,l),
(271,583,l),
(293,564,o),
(325,545,o),
(367,525,c),
(367,560,l),
(318,602,o),
(282,646,o),
(259,692,c),
(241,692,l),
(218,646,o),
(182,602,o),
(133,560,c),
(133,525,l),
(175,545,o),
(207,564,o),
(229,583,c),
(229,0,l)
);
}
);
vertWidth = 0;
width = 500;
},
{
anchors = (
{
name = center;
pos = (250,0);
}
);
layerId = "6E6EE38D-3D27-4929-8DEE-9F0163F8D5EF";
shapes = (
{
closed = 1;
nodes = (
(305,0,l),
(305,505,l),
(333,486,o),
(362,472,o),
(391,462,c),
(391,566,l),
(342,607,o),
(305,654,o),
(280,704,c),
(221,704,l),
(195,654,o),
(158,607,o),
(109,566,c),
(109,463,l),
(138,473,o),
(167,487,o),
(196,506,c),
(196,0,l)
);
}
);
vertWidth = 0;
width = 500;
}
);
note = arrowup;
production = arrowup;
unicode = 8593;
}
{
glyphname = rightArrow;
layers = (
{
anchors = (
{
name = center;
pos = (500,0);
}
);
layerId = "24810176-774E-47FD-8B80-D284CD1191FD";
shapes = (
{
closed = 1;
nodes = (
(711,231,l),
(752,278,o),
(795,313,o),
(841,338,c),
(841,346,l),
(795,371,o),
(752,406,o),
(711,453,c),
(691,453,l),
(710,416,o),
(731,384,o),
(757,355,c),
(159,355,l),
(159,329,l),
(757,329,l),
(731,300,o),
(710,268,o),
(691,231,c)
);
}
);
vertWidth = 0;
width = 1000;
},
{
anchors = (
{
name = center;
pos = (500,0);
}
);
layerId = "F394B0DB-5C84-43F6-ACB2-AE9DD557A8AE";
shapes = (
{
closed = 1;
nodes = (
(714,225,l),
(756,274,o),
(800,310,o),
(846,333,c),
(846,351,l),
(800,374,o),
(756,410,o),
(714,459,c),
(679,459,l),
(699,417,o),
(718,385,o),
(737,363,c),
(154,363,l),
(154,321,l),
(737,321,l),
(718,299,o),
(699,267,o),
(679,225,c)
);
}
);
vertWidth = 0;
width = 1000;
},
{
anchors = (
{
name = center;
pos = (500,0);
}
);
layerId = "6E6EE38D-3D27-4929-8DEE-9F0163F8D5EF";
shapes = (
{
closed = 1;
nodes = (
(714,201,l),
(755,250,o),
(801,287,o),
(852,312,c),
(852,371,l),
(801,397,o),
(755,434,o),
(714,483,c),
(611,483,l),
(620,454,o),
(634,425,o),
(654,396,c),
(148,396,l),
(148,288,l),
(653,288,l),
(633,259,o),
(619,230,o),
(610,201,c)
);
}
);
vertWidth = 0;
width = 1000;
}
);
note = arrowright;
production = arrowright;
unicode = 8594;
}
{
glyphname = downArrow;
layers = (
{
layerId = "24810176-774E-47FD-8B80-D284CD1191FD";
shapes = (
{
closed = 1;
nodes = (
(254,0,l),
(278,47,o),
(313,90,o),
(361,130,c),
(361,148,l),
(324,129,o),
(292,108,o),
(263,84,c),
(263,682,l),
(237,682,l),
(237,84,l),
(208,108,o),
(176,129,o),
(139,148,c),
(139,130,l),
(187,90,o),
(222,47,o),
(246,0,c)
);
}
);
vertWidth = 0;
width = 500;
},
{
layerId = "F394B0DB-5C84-43F6-ACB2-AE9DD557A8AE";
shapes = (
{
closed = 1;
nodes = (
(259,0,l),
(282,47,o),
(318,91,o),
(367,132,c),
(367,167,l),
(325,147,o),
(293,128,o),
(271,109,c),
(271,692,l),
(229,692,l),
(229,109,l),
(207,128,o),
(175,147,o),
(133,167,c),
(133,132,l),
(182,91,o),
(218,47,o),
(241,0,c)
);
}
);
vertWidth = 0;
width = 500;
},
{
layerId = "6E6EE38D-3D27-4929-8DEE-9F0163F8D5EF";
shapes = (
{
closed = 1;
nodes = (
(279,0,l),
(305,51,o),
(342,96,o),
(391,138,c),
(391,241,l),
(362,232,o),
(333,217,o),
(304,198,c),
(304,704,l),
(196,704,l),
(196,199,l),
(167,218,o),
(138,233,o),
(109,242,c),
(109,138,l),
(158,96,o),
(195,50,o),
(220,0,c)
);
}
);
vertWidth = 0;
width = 500;
}
);
note = arrowdown;
production = arrowdown;
unicode = 8595;
}
{
glyphname = leftRightArrow;
layers = (
{
layerId = "24810176-774E-47FD-8B80-D284CD1191FD";
shapes = (
{
closed = 1;
nodes = (
(309,231,l),
(290,268,o),
(269,300,o),
(243,329,c),
(757,329,l),
(731,300,o),
(710,268,o),
(691,231,c),
(711,231,l),
(752,278,o),
(795,313,o),
(841,338,c),
(841,346,l),
(795,371,o),
(752,406,o),
(711,453,c),
(691,453,l),
(710,416,o),
(731,384,o),
(757,355,c),
(243,355,l),
(269,384,o),
(290,416,o),
(309,453,c),
(289,453,l),
(248,406,o),
(205,371,o),
(159,346,c),
(159,338,l),
(205,313,o),
(248,278,o),
(289,231,c)
);
}
);
vertWidth = 0;
width = 1000;
},
{
layerId = "F394B0DB-5C84-43F6-ACB2-AE9DD557A8AE";
shapes = (
{
closed = 1;
nodes = (
(321,225,l),
(301,267,o),
(282,299,o),
(263,321,c),
(737,321,l),
(718,299,o),
(699,267,o),
(679,225,c),
(714,225,l),
(756,274,o),
(800,310,o),
(846,333,c),
(846,351,l),
(800,374,o),
(756,410,o),
(714,459,c),
(679,459,l),
(699,417,o),
(718,385,o),
(737,363,c),
(263,363,l),
(282,385,o),
(301,417,o),
(321,459,c),
(286,459,l),
(244,410,o),
(200,374,o),
(154,351,c),
(154,333,l),
(200,310,o),
(244,274,o),
(286,225,c)
);
}
);
vertWidth = 0;
width = 1000;
},
{
layerId = "6E6EE38D-3D27-4929-8DEE-9F0163F8D5EF";
shapes = (
{
closed = 1;
nodes = (
(384,201,l),
(374,230,o),
(360,259,o),
(341,288,c),
(657,288,l),
(638,259,o),
(624,230,o),
(615,201,c),
(719,201,l),
(760,250,o),
(806,287,o),
(857,312,c),
(857,371,l),
(806,397,o),
(760,434,o),
(719,483,c),
(615,483,l),
(625,454,o),
(639,425,o),
(659,396,c),
(342,396,l),
(361,425,o),
(375,454,o),
(385,483,c),
(281,483,l),
(240,434,o),
(193,397,o),
(143,371,c),
(143,312,l),
(194,287,o),
(240,249,o),
(281,201,c)
);
}
);
vertWidth = 0;
width = 1000;
}
);
note = arrowboth;
production = arrowboth;
unicode = 8596;
}
{
glyphname = upDownArrow;
layers = (
{
anchors = (
{
name = center;
pos = (250,0);
}
);
layerId = "24810176-774E-47FD-8B80-D284CD1191FD";
shapes = (
{
closed = 1;
nodes = (
(254,0,l),
(278,47,o),
(313,90,o),
(361,130,c),
(361,148,l),
(324,129,o),
(292,108,o),
(263,84,c),
(263,599,l),
(292,575,o),
(324,554,o),
(361,535,c),
(361,552,l),
(313,592,o),
(278,635,o),
(254,682,c),
(246,682,l),
(222,635,o),
(187,592,o),
(139,552,c),
(139,535,l),
(176,554,o),
(208,575,o),
(237,599,c),
(237,84,l),
(208,108,o),
(176,129,o),
(139,148,c),
(139,130,l),
(187,90,o),
(222,47,o),
(246,0,c)
);
}
);
vertWidth = 0;
width = 500;
},
{
anchors = (
{
name = center;
pos = (250,0);
}
);
layerId = "F394B0DB-5C84-43F6-ACB2-AE9DD557A8AE";
shapes = (
{
closed = 1;
nodes = (
(259,0,l),
(282,47,o),
(318,91,o),
(367,132,c),
(367,167,l),
(325,147,o),
(293,128,o),
(271,109,c),
(271,583,l),
(293,564,o),
(325,545,o),
(367,525,c),
(367,560,l),
(318,602,o),
(282,646,o),
(259,692,c),
(241,692,l),
(218,646,o),
(182,602,o),
(133,560,c),
(133,525,l),
(175,545,o),
(207,564,o),
(229,583,c),
(229,109,l),
(207,128,o),
(175,147,o),
(133,167,c),
(133,132,l),
(182,91,o),
(218,47,o),
(241,0,c)
);
}
);
vertWidth = 0;
width = 500;
},
{
anchors = (
{
name = center;
pos = (250,0);
}
);
layerId = "6E6EE38D-3D27-4929-8DEE-9F0163F8D5EF";
shapes = (
{
closed = 1;
nodes = (
(279,0,l),
(305,51,o),
(342,96,o),
(391,138,c),
(391,241,l),
(362,232,o),
(333,217,o),
(304,198,c),
(304,505,l),
(333,486,o),
(362,472,o),
(391,462,c),
(391,566,l),
(342,607,o),
(305,654,o),
(279,704,c),
(220,704,l),
(195,654,o),
(158,607,o),
(109,566,c),
(109,463,l),
(138,473,o),
(167,487,o),
(196,506,c),
(196,199,l),
(167,218,o),
(138,233,o),
(109,242,c),
(109,138,l),
(158,96,o),
(195,50,o),
(220,0,c)
);
}
);
vertWidth = 0;
width = 500;
}
);
note = arrowupdn;
production = arrowupdn;
unicode = 8597;
}
{
glyphname = northWestArrow;
layers = (
{
layerId = "24810176-774E-47FD-8B80-D284CD1191FD";
shapes = (
{
closed = 1;
nodes = (
(622,109,l),
(199,533,l),
(236,536,o),
(274,544,o),
(313,557,c),
(301,569,l),
(239,563,o),
(184,569,o),
(134,585,c),
(128,579,l),
(144,529,o),
(150,474,o),
(144,412,c),
(156,400,l),
(169,439,o),
(177,477,o),
(180,514,c),
(604,91,l)
);
}
);
vertWidth = 0;
width = 750;
},
{
layerId = "F394B0DB-5C84-43F6-ACB2-AE9DD557A8AE";
shapes = (
{
closed = 1;
nodes = (
(630,116,l),
(218,528,l),
(247,531,o),
(283,540,o),
(327,555,c),
(302,580,l),
(238,575,o),
(181,581,o),
(132,597,c),
(119,584,l),
(136,536,o),
(141,479,o),
(136,415,c),
(161,390,l),
(177,434,o),
(186,470,o),
(188,499,c),
(600,86,l)
);
}
);
vertWidth = 0;
width = 750;
},
{
layerId = "6E6EE38D-3D27-4929-8DEE-9F0163F8D5EF";
shapes = (
{
closed = 1;
nodes = (
(653,142,l),
(296,499,l),
(329,505,o),
(360,516,o),
(387,529,c),
(314,603,l),
(250,597,o),
(191,604,o),
(138,622,c),
(96,580,l),
(113,527,o),
(120,467,o),
(114,404,c),
(187,331,l),
(201,358,o),
(211,389,o),
(218,423,c),
(576,65,l)
);
}
);
vertWidth = 0;
width = 750;
}
);
note = uni2196;
production = uni2196;
unicode = 8598;
}
{
glyphname = northEastArrow;
layers = (
{
anchors = (
{
name = center;
pos = (375,0);
}
);
layerId = "24810176-774E-47FD-8B80-D284CD1191FD";
shapes = (
{
closed = 1;
nodes = (
(570,514,l),
(573,477,o),
(581,439,o),
(594,400,c),
(606,412,l),
(600,474,o),
(606,529,o),
(622,579,c),
(616,585,l),
(566,569,o),
(511,563,o),
(449,569,c),
(437,557,l),
(476,544,o),
(514,536,o),
(551,533,c),
(128,109,l),
(146,91,l)
);
}
);
vertWidth = 0;
width = 750;
},
{
anchors = (
{
name = center;
pos = (375,0);
}
);
layerId = "F394B0DB-5C84-43F6-ACB2-AE9DD557A8AE";
shapes = (
{
closed = 1;
nodes = (
(562,499,l),
(564,470,o),
(573,434,o),
(589,390,c),
(614,415,l),
(609,479,o),
(614,536,o),
(631,584,c),
(618,597,l),
(569,581,o),
(512,575,o),
(448,580,c),
(423,555,l),
(467,540,o),
(503,531,o),
(532,528,c),
(120,116,l),
(150,86,l)
);
}
);
vertWidth = 0;
width = 750;
},
{
anchors = (
{
name = center;
pos = (375,0);
}
);
layerId = "6E6EE38D-3D27-4929-8DEE-9F0163F8D5EF";
shapes = (
{
closed = 1;
nodes = (
(531,421,l),
(537,388,o),
(548,358,o),
(561,330,c),
(635,404,l),
(629,467,o),
(636,527,o),
(654,580,c),
(612,621,l),
(558,604,o),
(499,597,o),
(435,603,c),
(362,530,l),
(390,517,o),
(420,506,o),
(454,499,c),
(96,141,l),
(173,64,l)
);
}
);
vertWidth = 0;
width = 750;
}
);
note = uni2197;
production = uni2197;
unicode = 8599;
}
{
glyphname = southEastArrow;
layers = (
{
layerId = "24810176-774E-47FD-8B80-D284CD1191FD";
shapes = (
{
closed = 1;
nodes = (
(622,97,l),
(606,147,o),
(600,202,o),
(606,264,c),
(594,276,l),
(581,237,o),
(573,199,o),
(570,162,c),
(146,585,l),
(128,567,l),
(551,143,l),
(514,140,o),
(476,132,o),
(437,119,c),
(449,107,l),
(511,113,o),
(566,107,o),
(616,91,c)
);
}
);
vertWidth = 0;
width = 750;
},
{
layerId = "F394B0DB-5C84-43F6-ACB2-AE9DD557A8AE";
shapes = (
{
closed = 1;
nodes = (
(631,99,l),
(614,147,o),
(609,204,o),
(614,268,c),
(589,293,l),
(573,249,o),
(564,213,o),
(562,184,c),
(150,597,l),
(120,567,l),
(532,155,l),
(503,152,o),
(467,143,o),
(423,128,c),
(448,103,l),
(512,108,o),
(569,102,o),
(618,86,c)
);
}
);
vertWidth = 0;
width = 750;
},
{
layerId = "6E6EE38D-3D27-4929-8DEE-9F0163F8D5EF";
shapes = (
{
closed = 1;
nodes = (
(654,105,l),
(636,158,o),
(629,218,o),
(635,281,c),
(561,355,l),
(548,327,o),
(537,297,o),
(531,264,c),
(173,621,l),
(96,544,l),
(454,186,l),
(420,179,o),
(390,168,o),
(362,155,c),
(435,82,l),
(499,88,o),
(558,81,o),
(612,64,c)
);
}
);
vertWidth = 0;
width = 750;
}
);
note = uni2198;
production = uni2198;
unicode = 8600;
}
{
glyphname = southWestArrow;
layers = (
{
layerId = "24810176-774E-47FD-8B80-D284CD1191FD";
shapes = (
{
closed = 1;
nodes = (
(184,107,o),
(239,113,o),
(301,107,c),
(313,119,l),
(274,132,o),
(236,140,o),
(199,143,c),
(622,567,l),
(604,585,l),
(180,162,l),
(177,199,o),
(169,237,o),
(156,276,c),
(144,264,l),
(150,202,o),
(144,147,o),
(128,97,c),
(134,91,l)
);
}
);
vertWidth = 0;
width = 750;
},
{
layerId = "F394B0DB-5C84-43F6-ACB2-AE9DD557A8AE";
shapes = (
{
closed = 1;
nodes = (
(181,102,o),
(238,108,o),
(302,103,c),
(327,128,l),
(283,143,o),
(247,152,o),
(218,155,c),
(630,567,l),
(600,597,l),
(188,184,l),
(186,213,o),
(177,249,o),
(161,293,c),
(136,268,l),
(141,204,o),
(136,147,o),
(119,99,c),
(132,86,l)
);
}
);
vertWidth = 0;
width = 750;
},
{
layerId = "6E6EE38D-3D27-4929-8DEE-9F0163F8D5EF";
shapes = (
{
closed = 1;
nodes = (
(191,83,o),
(250,90,o),
(314,84,c),
(387,158,l),
(360,171,o),
(329,182,o),
(296,188,c),
(653,545,l),
(576,622,l),
(218,264,l),
(211,298,o),
(201,329,o),
(187,356,c),
(114,283,l),
(120,220,o),
(113,160,o),
(96,107,c),
(138,65,l)
);
}
);
vertWidth = 0;
width = 750;
}
);
note = uni2199;
production = uni2199;
unicode = 8601;
}
{
glyphname = diameterSign;
layers = (
{
layerId = "24810176-774E-47FD-8B80-D284CD1191FD";
shapes = (
{
closed = 1;
nodes = (
(131,182,l),
(172,145,o),
(226,122,o),
(285,122,cs),
(413,122,o),
(516,225,o),
(516,354,cs),
(516,413,o),
(494,468,o),
(457,509,c),
(503,555,l),
(485,573,l),
(439,527,l),
(398,563,o),
(344,585,o),
(285,585,cs),
(156,585,o),
(53,482,o),
(53,354,cs),
(53,295,o),
(76,241,o),
(113,200,c),
(69,155,l),
(86,137,l)
);
},
{
closed = 1;
nodes = (
(100,254,o),
(81,301,o),
(81,354,cs),
(81,467,o),
(171,558,o),
(285,558,cs),
(336,558,o),
(384,539,o),
(419,507,c),
(132,218,l)
);
},
{
closed = 1;
nodes = (
(233,149,o),
(185,169,o),
(150,200,c),
(437,489,l),
(469,453,o),
(489,406,o),
(489,354,cs),
(489,240,o),
(398,149,o),
(285,149,cs)
);
}
);
vertWidth = 0;
width = 571;
},
{
layerId = "F394B0DB-5C84-43F6-ACB2-AE9DD557A8AE";
shapes = (
{
closed = 1;
nodes = (
(147,166,l),
(187,137,o),
(232,122,o),
(283,122,cs),
(410,122,o),
(515,227,o),
(515,354,cs),
(515,404,o),
(500,449,o),
(470,490,c),
(520,540,l),
(482,583,l),
(431,532,l),
(388,568,o),
(338,586,o),
(283,586,cs),
(156,586,o),
(51,481,o),
(51,354,cs),
(51,297,o),
(69,248,o),
(105,205,c),
(58,158,l),
(97,116,l)
);
},
{
closed = 1;
nodes = (
(125,280,o),
(114,315,o),
(114,354,cs),
(114,448,o),
(189,523,o),
(283,523,cs),
(321,523,o),
(355,511,o),
(387,487,c),
(149,249,l)
);
},
{
closed = 1;
nodes = (
(249,185,o),
(218,194,o),
(192,211,c),
(426,445,l),
(443,417,o),
(452,387,o),
(452,354,cs),
(452,259,o),
(375,185,o),
(283,185,cs)
);
}
);
vertWidth = 0;
width = 571;
},
{
layerId = "6E6EE38D-3D27-4929-8DEE-9F0163F8D5EF";
shapes = (
{
closed = 1;
nodes = (
(162,140,l),
(198,119,o),
(237,110,o),
(280,110,cs),
(414,110,o),
(524,221,o),
(524,354,cs),
(524,397,o),
(515,436,o),
(494,472,c),
(542,521,l),
(461,612,l),
(410,561,l),
(371,586,o),
(328,599,o),
(280,599,cs),
(146,599,o),
(36,488,o),
(36,354,cs),
(36,306,o),
(48,262,o),
(73,224,c),
(28,179,l),
(112,89,l)
);
},
{
closed = 1;
nodes = (
(165,331,o),
(163,341,o),
(163,354,cs),
(163,419,o),
(215,471,o),
(280,471,cs),
(292,471,o),
(305,469,o),
(315,466,c),
(168,319,l)
);
},
{
closed = 1;
nodes = (
(274,237,o),
(267,238,o),
(261,239,c),
(396,373,l),
(397,367,o),
(397,360,o),
(397,354,cs),
(397,288,o),
(344,237,o),
(280,237,cs)
);
}
);
vertWidth = 0;
width = 571;
}
);
note = uni2300;
production = uni2300;
unicode = 8960;
}
{
glyphname = electricArrow;
layers = (
{
anchors = (
{
name = center;
pos = (289,0);
}
);
layerId = "24810176-774E-47FD-8B80-D284CD1191FD";
shapes = (
{
closed = 1;
nodes = (
(301,420,l),
(523,265,l),
(523,294,l),
(277,467,l),
(277,276,l),
(55,432,l),
(55,402,l),
(301,230,l)
);
}
);
vertWidth = 0;
width = 579;
},
{
anchors = (
{
name = center;
pos = (289,0);
}
);
layerId = "F394B0DB-5C84-43F6-ACB2-AE9DD557A8AE";
shapes = (
{
closed = 1;
nodes = (
(316,392,l),
(528,243,l),
(528,315,l),
(263,500,l),
(263,311,l),
(51,460,l),
(51,388,l),
(316,201,l)
);
}
);
vertWidth = 0;
width = 579;
},
{
anchors = (
{
name = center;
pos = (289,0);
}
);
layerId = "6E6EE38D-3D27-4929-8DEE-9F0163F8D5EF";
shapes = (
{
closed = 1;
nodes = (
(348,321,l),
(540,187,l),
(540,337,l),
(230,554,l),
(230,383,l),
(39,517,l),
(39,367,l),
(348,149,l)
);
}
);
vertWidth = 0;
width = 579;
}
);
note = uni2301;
production = uni2301;
unicode = 8961;
}
{
glyphname = house;
layers = (
{
layerId = "24810176-774E-47FD-8B80-D284CD1191FD";
shapes = (
{
closed = 1;
nodes = (
(661,0,l),
(661,419,l),
(358,703,l),
(55,419,l),
(55,0,l)
);
},
{
closed = 1;
nodes = (
(82,411,l),
(358,668,l),
(634,411,l),
(634,25,l),
(82,25,l)
);
}
);
vertWidth = 0;
width = 716;
},
{
layerId = "F394B0DB-5C84-43F6-ACB2-AE9DD557A8AE";
shapes = (
{
closed = 1;
nodes = (
(665,0,l),
(665,425,l),
(358,713,l),
(51,425,l),
(51,0,l)
);
},
{
closed = 1;
nodes = (
(122,402,l),
(358,623,l),
(594,402,l),
(594,71,l),
(122,71,l)
);
}
);
vertWidth = 0;
width = 716;
},
{
layerId = "6E6EE38D-3D27-4929-8DEE-9F0163F8D5EF";
shapes = (
{
closed = 1;
nodes = (
(670,0,l),
(670,434,l),
(358,726,l),
(46,434,l),
(46,0,l)
);
},
{
closed = 1;
nodes = (
(181,382,l),
(358,548,l),
(536,382,l),
(536,134,l),
(181,134,l)
);
}
);
vertWidth = 0;
width = 716;
}
);
note = house;
unicode = 8962;
}
{
glyphname = control;
layers = (
{
anchors = (
{
name = center;
pos = (255,0);
}
);
layerId = "24810176-774E-47FD-8B80-D284CD1191FD";
shapes = (
{
closed = 1;
nodes = (
(103,409,l),
(256,711,l),
(409,409,l),
(438,409,l),
(258,760,l),
(255,760,l),
(73,409,l)
);
}
);
vertWidth = 0;
width = 512;
},
{
anchors = (
{
name = center;
pos = (256,0);
}
);
layerId = "F394B0DB-5C84-43F6-ACB2-AE9DD557A8AE";
shapes = (
{
closed = 1;
nodes = (
(132,409,l),
(256,655,l),
(380,409,l),
(461,409,l),
(266,785,l),
(246,785,l),
(51,409,l)
);
}
);
vertWidth = 0;
width = 512;
},
{
anchors = (
{
name = center;
pos = (256,0);
}
);
layerId = "6E6EE38D-3D27-4929-8DEE-9F0163F8D5EF";
shapes = (
{
closed = 1;
nodes = (
(166,369,l),
(256,547,l),
(346,369,l),
(499,369,l),
(287,778,l),
(226,778,l),
(13,369,l)
);
}
);
vertWidth = 0;
width = 512;
}
);
note = uni2303;
production = uni2303;
unicode = 8963;
}
{
glyphname = downArrowHead;
layers = (
{
layerId = "24810176-774E-47FD-8B80-D284CD1191FD";
shapes = (
{
closed = 1;
nodes = (
(258,-68,l),
(438,282,l),
(409,282,l),
(256,-20,l),
(103,282,l),
(73,282,l),
(255,-68,l)
);
}
);
vertWidth = 0;
width = 512;
},
{
layerId = "F394B0DB-5C84-43F6-ACB2-AE9DD557A8AE";
shapes = (
{
closed = 1;
nodes = (
(266,-94,l),
(461,282,l),
(380,282,l),
(256,36,l),
(132,282,l),
(51,282,l),
(246,-94,l)
);
}
);
vertWidth = 0;
width = 512;
},
{
layerId = "6E6EE38D-3D27-4929-8DEE-9F0163F8D5EF";
shapes = (
{
closed = 1;
nodes = (
(287,-85,l),
(499,325,l),
(346,325,l),
(256,147,l),
(166,325,l),
(13,325,l),
(226,-85,l)
);
}
);
vertWidth = 0;
width = 512;
}
);
note = uni2304;
production = uni2304;
unicode = 8964;
}
{
glyphname = projective;
layers = (
{
anchors = (
{
name = center;
pos = (280,0);
}
);
layerId = "24810176-774E-47FD-8B80-D284CD1191FD";
shapes = (
{
closed = 1;
nodes = (
(127,0,l),
(281,302,l),
(434,0,l),
(463,0,l),
(282,351,l),
(279,351,l),
(98,0,l)
);
},
{
closed = 1;
nodes = (
(499,479,l),
(499,504,l),
(61,504,l),
(61,479,l)
);
}
);
vertWidth = 0;
width = 560;
},
{
anchors = (
{
name = center;
pos = (280,0);
}
);
layerId = "F394B0DB-5C84-43F6-ACB2-AE9DD557A8AE";
shapes = (
{
closed = 1;
nodes = (
(157,0,l),
(281,246,l),
(405,0,l),
(486,0,l),
(291,376,l),
(271,376,l),
(76,0,l)
);
},
{
closed = 1;
nodes = (
(509,449,l),
(509,520,l),
(51,520,l),
(51,449,l)
);
}
);
vertWidth = 0;
width = 560;
},
{
anchors = (
{
name = center;
pos = (280,0);
}
);
layerId = "6E6EE38D-3D27-4929-8DEE-9F0163F8D5EF";
shapes = (
{
closed = 1;
nodes = (
(191,0,l),
(280,178,l),
(370,0,l),
(523,0,l),
(311,409,l),
(250,409,l),
(38,0,l)
);
},
{
closed = 1;
nodes = (
(521,434,l),
(521,568,l),
(38,568,l),
(38,434,l)
);
}
);
vertWidth = 0;
width = 560;
}
);
note = uni2305;
production = uni2305;
unicode = 8965;
}
{
glyphname = perspective;
layers = (
{
layerId = "24810176-774E-47FD-8B80-D284CD1191FD";
shapes = (
{
closed = 1;
nodes = (
(127,0,l),
(281,302,l),
(434,0,l),
(463,0,l),
(282,351,l),
(279,351,l),
(98,0,l)
);
},
{
closed = 1;
nodes = (
(499,479,l),
(499,504,l),
(61,504,l),
(61,479,l)
);
},
{
closed = 1;
nodes = (
(499,648,l),
(499,674,l),
(61,674,l),
(61,648,l)
);
}
);
vertWidth = 0;
width = 560;
},
{
layerId = "F394B0DB-5C84-43F6-ACB2-AE9DD557A8AE";
shapes = (
{
closed = 1;
nodes = (
(157,0,l),
(281,246,l),
(405,0,l),
(486,0,l),
(291,376,l),
(271,376,l),
(76,0,l)
);
},
{
closed = 1;
nodes = (
(509,449,l),
(509,520,l),
(51,520,l),
(51,449,l)
);
},
{
closed = 1;
nodes = (
(509,608,l),
(509,679,l),
(51,679,l),
(51,608,l)
);
}
);
vertWidth = 0;
width = 560;
},
{
layerId = "6E6EE38D-3D27-4929-8DEE-9F0163F8D5EF";
shapes = (
{
closed = 1;
nodes = (
(191,0,l),
(280,178,l),
(370,0,l),
(523,0,l),
(311,409,l),
(250,409,l),
(38,0,l)
);
},
{
closed = 1;
nodes = (
(521,439,l),
(521,573,l),
(38,573,l),
(38,439,l)
);
},
{
closed = 1;
nodes = (
(521,606,l),
(521,741,l),
(38,741,l),
(38,606,l)
);
}
);
vertWidth = 0;
width = 560;
}
);
note = uni2306;
production = uni2306;
unicode = 8966;
}
{
glyphname = wavyLine;
layers = (
{
anchors = (
{
name = center;
pos = (166,0);
}
);
layerId = "24810176-774E-47FD-8B80-D284CD1191FD";
shapes = (
{
closed = 1;
nodes = (
(252,-48,l),
(218,-32,o),
(169,-2,o),
(146,14,cs),
(113,37,o),
(103,55,o),
(103,75,cs),
(103,95,o),
(113,107,o),
(145,134,cs),
(205,186,ls),
(241,217,o),
(253,234,o),
(253,258,cs),
(253,282,o),
(241,299,o),
(205,330,cs),
(145,382,ls),
(113,409,o),
(103,421,o),
(103,441,cs),
(103,461,o),
(113,473,o),
(145,500,cs),
(205,552,ls),
(241,583,o),
(253,600,o),
(253,626,cs),
(253,653,o),
(244,673,o),
(202,703,cs),
(173,724,o),
(125,752,o),
(92,769,c),
(80,749,l),
(114,733,o),
(163,703,o),
(186,687,cs),
(219,663,o),
(229,646,o),
(229,626,cs),
(229,604,o),
(219,592,o),
(187,565,cs),
(127,513,ls),
(91,482,o),
(79,465,o),
(79,441,cs),
(79,417,o),
(91,400,o),
(127,369,cs),
(187,317,ls),
(219,290,o),
(229,278,o),
(229,258,cs),
(229,238,o),
(219,226,o),
(187,199,cs),
(127,147,ls),
(91,116,o),
(79,99,o),
(79,75,cs),
(79,48,o),
(88,28,o),
(130,-2,cs),
(159,-23,o),
(207,-51,o),
(240,-68,c)
);
}
);
vertWidth = 0;
width = 333;
},
{
anchors = (
{
name = center;
pos = (166,0);
}
);
layerId = "F394B0DB-5C84-43F6-ACB2-AE9DD557A8AE";
shapes = (
{
closed = 1;
nodes = (
(283,-42,l),
(251,-24,o),
(210,1,o),
(181,23,cs),
(142,53,o),
(135,69,o),
(135,80,cs),
(135,91,o),
(142,103,o),
(168,126,cs),
(222,173,ls),
(261,207,o),
(272,230,o),
(272,261,cs),
(272,292,o),
(261,315,o),
(222,349,cs),
(168,396,ls),
(142,419,o),
(135,431,o),
(135,441,cs),
(135,451,o),
(142,463,o),
(168,486,cs),
(222,533,ls),
(261,567,o),
(272,590,o),
(272,621,cs),
(272,652,o),
(260,678,o),
(221,712,cs),
(182,746,o),
(124,781,o),
(89,804,c),
(50,746,l),
(82,727,o),
(132,695,o),
(168,664,cs),
(192,643,o),
(199,631,o),
(199,621,cs),
(199,611,o),
(192,599,o),
(166,576,cs),
(112,529,ls),
(73,495,o),
(62,472,o),
(62,441,cs),
(62,410,o),
(73,387,o),
(112,353,cs),
(166,306,ls),
(192,283,o),
(199,271,o),
(199,261,cs),
(199,251,o),
(192,239,o),
(166,216,cs),
(112,169,ls),
(73,135,o),
(62,108,o),
(62,79,cs),
(62,46,o),
(77,20,o),
(109,-8,cs),
(139,-34,o),
(198,-75,o),
(246,-100,c)
);
}
);
vertWidth = 0;
width = 333;
},
{
anchors = (
{
name = center;
pos = (166,0);
}
);
layerId = "6E6EE38D-3D27-4929-8DEE-9F0163F8D5EF";
shapes = (
{
closed = 1;
nodes = (
(315,10,l),
(282,31,o),
(245,56,o),
(220,77,cs),
(199,95,o),
(190,103,o),
(190,112,cs),
(190,121,o),
(198,130,o),
(214,144,cs),
(243,171,ls),
(274,199,o),
(292,234,o),
(292,270,cs),
(292,306,o),
(274,341,o),
(243,369,cs),
(214,396,ls),
(198,410,o),
(190,419,o),
(190,428,cs),
(190,437,o),
(198,446,o),
(214,460,cs),
(243,487,ls),
(274,516,o),
(292,551,o),
(292,591,cs),
(292,632,o),
(274,683,o),
(211,732,cs),
(184,753,o),
(145,780,o),
(104,804,c),
(18,684,l),
(52,666,o),
(91,642,o),
(121,616,cs),
(135,604,o),
(143,595,o),
(143,586,cs),
(143,577,o),
(135,568,o),
(119,554,cs),
(90,527,ls),
(59,499,o),
(41,464,o),
(41,428,cs),
(41,392,o),
(59,357,o),
(90,329,cs),
(119,302,ls),
(135,288,o),
(143,279,o),
(143,270,cs),
(143,261,o),
(135,252,o),
(119,238,cs),
(90,211,ls),
(59,183,o),
(41,148,o),
(41,109,cs),
(41,69,o),
(60,22,o),
(115,-23,cs),
(148,-50,o),
(193,-76,o),
(234,-100,c)
);
}
);
vertWidth = 0;
width = 333;
}
);
note = uni2307;
production = uni2307;
unicode = 8967;
}
{
glyphname = leftCeiling;
layers = (
{
anchors = (
{
name = center;
pos = (202,0);
}
);
layerId = "24810176-774E-47FD-8B80-D284CD1191FD";
shapes = (
{
closed = 1;
nodes = (
(91,-70,l),
(91,748,l),
(339,748,l),
(339,774,l),
(65,774,l),
(65,-70,l)
);
}
);
vertWidth = 0;
width = 404;
},
{
anchors = (
{
name = center;
pos = (202,0);
}
);
layerId = "F394B0DB-5C84-43F6-ACB2-AE9DD557A8AE";
shapes = (
{
closed = 1;
nodes = (
(122,-80,l),
(122,730,l),
(353,730,l),
(353,794,l),
(51,794,l),
(51,-80,l)
);
}
);
vertWidth = 0;
width = 404;
},
{
anchors = (
{
name = center;
pos = (201,0);
}
);
layerId = "6E6EE38D-3D27-4929-8DEE-9F0163F8D5EF";
shapes = (
{
closed = 1;
nodes = (
(165,-110,l),
(165,696,l),
(373,696,l),
(373,824,l),
(30,824,l),
(30,-110,l)
);
}
);
vertWidth = 0;
width = 404;
}
);
note = uni2308;
production = uni2308;
unicode = 8968;
}
{
glyphname = rightCeiling;
layers = (
{
anchors = (
{
name = center;
pos = (202,0);
}
);
layerId = "24810176-774E-47FD-8B80-D284CD1191FD";
shapes = (
{
closed = 1;
nodes = (
(339,-60,l),
(339,774,l),
(65,774,l),
(65,748,l),
(313,748,l),
(313,-60,l)
);
}
);
vertWidth = 0;
width = 404;
},
{
anchors = (
{
name = center;
pos = (202,0);
}
);
layerId = "F394B0DB-5C84-43F6-ACB2-AE9DD557A8AE";
shapes = (
{
closed = 1;
nodes = (
(353,-80,l),
(353,794,l),
(51,794,l),
(51,730,l),
(282,730,l),
(282,-80,l)
);
}
);
vertWidth = 0;
width = 404;
},
{
anchors = (
{
name = center;
pos = (201,0);
}
);
layerId = "6E6EE38D-3D27-4929-8DEE-9F0163F8D5EF";
shapes = (
{
closed = 1;
nodes = (
(373,-110,l),
(373,824,l),
(30,824,l),
(30,696,l),
(239,696,l),
(239,-110,l)
);
}
);
vertWidth = 0;
width = 404;
}
);
note = uni2309;
production = uni2309;
unicode = 8969;
}
{
glyphname = leftFloor;
layers = (
{
layerId = "24810176-774E-47FD-8B80-D284CD1191FD";
shapes = (
{
closed = 1;
nodes = (
(339,-60,l),
(339,-35,l),
(91,-35,l),
(91,774,l),
(65,774,l),
(65,-60,l)
);
}
);
vertWidth = 0;
width = 404;
},
{
layerId = "F394B0DB-5C84-43F6-ACB2-AE9DD557A8AE";
shapes = (
{
closed = 1;
nodes = (
(353,-80,l),
(353,-16,l),
(123,-16,l),
(123,794,l),
(51,794,l),
(51,-80,l)
);
}
);
vertWidth = 0;
width = 404;
},
{
layerId = "6E6EE38D-3D27-4929-8DEE-9F0163F8D5EF";
shapes = (
{
closed = 1;
nodes = (
(373,-110,l),
(373,18,l),
(166,18,l),
(166,824,l),
(30,824,l),
(30,-110,l)
);
}
);
vertWidth = 0;
width = 404;
}
);
note = uni230A;
production = uni230A;
unicode = 8970;
}
